<svg width="101" height="103" viewBox="0 0 101 103" fill="none" xmlns="http://www.w3.org/2000/svg">
<path d="M81.7549 31.1025L96.4289 48.2144L81.7549 60.3456V31.1025Z" fill="#343434"/>
<path d="M96.4287 100.622H6.28857C11.7954 96.5237 47.8803 69.6696 51.3586 67.0811C54.8328 69.6666 90.9219 96.5234 96.4287 100.622Z" fill="#343434"/>
<path d="M96.4287 48.2148V100.622L63.0686 75.7956C64.3307 74.7521 95.4571 49.0181 96.4287 48.2148ZM39.6489 75.7956L6.28857 100.622V48.2151C7.26592 49.0229 38.4008 74.764 39.6489 75.7956Z" fill="#343434"/>
<path d="M20.9626 31.3398V60.3459L6.28857 48.2147L20.9626 31.3398Z" fill="#343434"/>
<path d="M81.755 60.3458L63.0687 75.7954L51.359 67.0812L39.6492 75.7954L20.9629 60.3458C20.9629 56.816 20.9629 8.4801 20.9629 6.28906H81.755C81.755 7.39674 81.755 58.9192 81.755 60.3458Z" fill="#343434"/>
<path d="M98.5249 35.6367C99.6826 35.6367 100.621 34.6982 100.621 33.5405C100.621 32.3828 99.6826 31.4443 98.5249 31.4443C97.3672 31.4443 96.4287 32.3828 96.4287 33.5405C96.4287 34.6982 97.3672 35.6367 98.5249 35.6367Z" fill="#CF0000"/>
<path d="M95.3808 6.28906C97.1165 6.28906 98.5253 7.69769 98.5253 9.43357C98.5253 11.1694 97.1167 12.5781 95.3808 12.5781C93.6452 12.5781 92.2363 11.1694 92.2363 9.43357C92.2363 7.69769 93.645 6.28906 95.3808 6.28906Z" fill="#CF0000"/>
<path d="M8.38525 4.19238C9.54295 4.19238 10.4814 3.25388 10.4814 2.09619C10.4814 0.938496 9.54295 0 8.38525 0C7.22756 0 6.28906 0.938496 6.28906 2.09619C6.28906 3.25388 7.22756 4.19238 8.38525 4.19238Z" fill="#CF0000"/>
<path d="M3.1445 23.0586C4.88016 23.0586 6.28901 24.4672 6.28901 26.2031C6.28901 27.939 4.88038 29.3476 3.1445 29.3476C1.40863 29.3476 0 27.939 0 26.2031C0 24.4672 1.40885 23.0586 3.1445 23.0586ZM39.648 77.8912C39.1775 77.8912 38.7042 77.7337 38.3134 77.4106L4.95332 49.8296C4.06096 49.0921 3.93567 47.7706 4.67339 46.8783C5.41111 45.9859 6.73256 45.8609 7.6247 46.5984L40.985 74.1791C41.8774 74.9169 42.0024 76.2381 41.2649 77.1304C40.8501 77.632 40.2515 77.8912 39.648 77.8912ZM63.0699 77.8912C62.4665 77.8912 61.8676 77.632 61.453 77.1307C60.7153 76.2383 60.8406 74.9171 61.7329 74.1794L95.093 46.5986C95.9858 45.8611 97.3068 45.9861 98.0443 46.8785C98.782 47.7709 98.6565 49.0921 97.7644 49.8298L64.4045 77.4104C64.0138 77.7335 63.5404 77.8912 63.0699 77.8912Z" fill="#CF0000"/>
<path d="M96.4287 102.717C95.2711 102.717 94.3325 101.779 94.3325 100.621V48.9898L80.1636 32.4667C79.4099 31.5879 79.5113 30.2643 80.3903 29.5108C81.2691 28.7573 82.593 28.8587 83.3462 29.7375L98.0202 46.8494C98.3462 47.2294 98.5253 47.7135 98.5253 48.214V100.621C98.5249 101.779 97.5863 102.717 96.4287 102.717ZM6.28857 102.717C5.13074 102.717 4.19238 101.779 4.19238 100.621V48.2142C4.19238 47.7087 4.37506 47.2202 4.7069 46.8386L19.3809 29.9635C20.1405 29.0902 21.4646 28.9976 22.3383 29.7572C23.2119 30.5168 23.3043 31.8409 22.5447 32.7146L8.3852 48.9981V100.621C8.38498 101.779 7.44641 102.717 6.28857 102.717Z" fill="#CF0000"/>
<path d="M96.4289 102.717H6.28879C5.38504 102.717 4.58292 102.138 4.29883 101.28C4.01474 100.422 4.31219 99.479 5.03721 98.9395L50.1073 65.399C50.85 64.8461 51.8675 64.8465 52.6102 65.399L97.6803 98.9395C98.4053 99.4792 98.703 100.422 98.4189 101.28C98.1346 102.138 97.3327 102.717 96.4289 102.717ZM12.617 98.5249H90.1007L51.3588 69.6936L12.617 98.5249ZM81.7549 62.4417C80.5973 62.4417 79.6587 61.5031 79.6587 60.3455V8.38498H23.0592V60.3455C23.0592 61.5031 22.1206 62.4417 20.963 62.4417C19.8052 62.4417 18.8668 61.5031 18.8668 60.3455V6.28857C18.8668 5.13074 19.8054 4.19238 20.963 4.19238H81.7551C82.9128 4.19238 83.8513 5.13096 83.8513 6.28857V60.3453C83.8513 61.5032 82.9125 62.4417 81.7549 62.4417Z" fill="#CF0000"/>
<path d="M54.5035 23.0586H31.4443C30.2865 23.0586 29.3481 22.12 29.3481 20.9624C29.3481 19.8046 30.2867 18.8662 31.4443 18.8662H54.5033C55.6609 18.8662 56.5995 19.8048 56.5995 20.9624C56.5997 22.1202 55.6611 23.0586 54.5035 23.0586ZM71.2737 33.5402H31.4443C30.2865 33.5402 29.3481 32.6016 29.3481 31.444C29.3481 30.2862 30.2867 29.3478 31.4443 29.3478H71.2737C72.4313 29.3478 73.3699 30.2864 73.3699 31.444C73.3699 32.6016 72.4313 33.5402 71.2737 33.5402ZM71.2737 44.0216H31.4443C30.2865 44.0216 29.3481 43.083 29.3481 41.9254C29.3481 40.7678 30.2867 39.8292 31.4443 39.8292H71.2737C72.4313 39.8292 73.3699 40.7678 73.3699 41.9254C73.3699 43.083 72.4313 44.0216 71.2737 44.0216ZM71.2737 54.503H31.4443C30.2865 54.503 29.3481 53.5644 29.3481 52.4068C29.3481 51.249 30.2867 50.3106 31.4443 50.3106H71.2737C72.4313 50.3106 73.3699 51.2492 73.3699 52.4068C73.3699 53.5642 72.4313 54.503 71.2737 54.503ZM69.1775 94.3321H35.6369C34.4791 94.3321 33.5407 93.3935 33.5407 92.2359C33.5407 91.0783 34.4793 90.1397 35.6369 90.1397H69.1775C70.3351 90.1397 71.2737 91.0783 71.2737 92.2359C71.2737 93.3935 70.3351 94.3321 69.1775 94.3321ZM58.6961 85.9471H46.1185C44.9607 85.9471 44.0224 85.0086 44.0224 83.851C44.0224 82.6933 44.9609 81.7548 46.1185 81.7548H58.6961C59.8537 81.7548 60.7923 82.6933 60.7923 83.851C60.7923 85.0086 59.8537 85.9471 58.6961 85.9471Z" fill="#CF0000"/>
</svg>
