<svg width="12" height="16" viewBox="0 0 12 16" fill="none" xmlns="http://www.w3.org/2000/svg">
<path d="M0 0.479004V15.7121H8.88237L12 12.5944V0.479004L0 0.479004ZM0.892563 1.37157H11.1074V11.7749H8.06279V14.8195H0.892533V1.37157H0.892563ZM10.6647 12.6675L8.95535 14.3768V12.6675H10.6647Z" fill="white"/>
<path d="M4.09583 3.2063H7.90409V4.09886H4.09583V3.2063Z" fill="white"/>
<path d="M2.35046 5.42773H9.64963V6.3203H2.35046V5.42773Z" fill="white"/>
<path d="M2.35046 7.33191H9.64963V8.22447H2.35046V7.33191Z" fill="white"/>
<path d="M2.35046 9.23608H9.64963V10.1286H2.35046V9.23608Z" fill="white"/>
<path d="M2.35046 11.7749H3.28763V12.6675H2.35046V11.7749Z" fill="white"/>
<path d="M4.18018 11.7749H6.00005V12.6675H4.18018V11.7749Z" fill="white"/>
</svg>
