<svg width="22" height="22" viewBox="0 0 22 22" fill="none" xmlns="http://www.w3.org/2000/svg">
<g clip-path="url(#clip0_103_87886)">
<path d="M21.3125 7.21875V5.5C21.3094 5.3949 21.2836 5.2917 21.2369 5.1975L19.5594 1.82875C19.3879 1.48525 19.1239 1.19643 18.7972 0.9948C18.4705 0.793175 18.0939 0.686749 17.71 0.687504H4.29C3.90607 0.686749 3.52954 0.793175 3.20281 0.9948C2.87608 1.19643 2.61212 1.48525 2.44062 1.82875L0.763125 5.19063C0.715415 5.28692 0.68959 5.39256 0.6875 5.5V7.21875C0.688289 7.72723 0.814117 8.2277 1.0539 8.67609C1.29368 9.12448 1.64005 9.50702 2.0625 9.79V19.9375H1.375C1.19266 19.9375 1.0178 20.0099 0.888864 20.1389C0.759933 20.2678 0.6875 20.4427 0.6875 20.625C0.6875 20.8073 0.759933 20.9822 0.888864 21.1111C1.0178 21.2401 1.19266 21.3125 1.375 21.3125H20.625C20.8073 21.3125 20.9822 21.2401 21.1111 21.1111C21.2401 20.9822 21.3125 20.8073 21.3125 20.625C21.3125 20.4427 21.2401 20.2678 21.1111 20.1389C20.9822 20.0099 20.8073 19.9375 20.625 19.9375H19.9375V9.79C20.36 9.50702 20.7063 9.12448 20.9461 8.67609C21.1859 8.2277 21.3117 7.72723 21.3125 7.21875ZM19.9375 7.21875C19.9375 7.6746 19.7564 8.11177 19.4341 8.43409C19.1118 8.75642 18.6746 8.9375 18.2188 8.9375C17.7629 8.9375 17.3257 8.75642 17.0034 8.43409C16.6811 8.11177 16.5 7.6746 16.5 7.21875V6.1875H19.9375V7.21875ZM2.0625 7.21875V6.1875H5.5V7.21875C5.5 7.6746 5.31892 8.11177 4.99659 8.43409C4.67426 8.75642 4.23709 8.9375 3.78125 8.9375C3.32541 8.9375 2.88824 8.75642 2.56591 8.43409C2.24358 8.11177 2.0625 7.6746 2.0625 7.21875ZM6.875 6.1875H10.3125V7.21875C10.3125 7.6746 10.1314 8.11177 9.80909 8.43409C9.48676 8.75642 9.04959 8.9375 8.59375 8.9375C8.13791 8.9375 7.70074 8.75642 7.37841 8.43409C7.05608 8.11177 6.875 7.6746 6.875 7.21875V6.1875ZM11.6875 6.1875H15.125V7.21875C15.125 7.6746 14.9439 8.11177 14.6216 8.43409C14.2993 8.75642 13.8621 8.9375 13.4062 8.9375C12.9504 8.9375 12.5132 8.75642 12.1909 8.43409C11.8686 8.11177 11.6875 7.6746 11.6875 7.21875V6.1875ZM3.67125 2.44063C3.7289 2.3262 3.81739 2.23017 3.92672 2.16336C4.03605 2.09654 4.16187 2.06161 4.29 2.0625H17.71C17.8381 2.06161 17.964 2.09654 18.0733 2.16336C18.1826 2.23017 18.2711 2.3262 18.3288 2.44063L19.5112 4.8125H2.48875L3.67125 2.44063ZM13.0625 19.9375H8.9375V15.8125C8.9375 15.6302 9.00993 15.4553 9.13886 15.3264C9.2678 15.1974 9.44266 15.125 9.625 15.125H12.375C12.5573 15.125 12.7322 15.1974 12.8611 15.3264C12.9901 15.4553 13.0625 15.6302 13.0625 15.8125V19.9375ZM18.5625 19.9375H14.4375V15.8125C14.4375 15.2655 14.2202 14.7409 13.8334 14.3541C13.4466 13.9673 12.922 13.75 12.375 13.75H9.625C9.07799 13.75 8.55339 13.9673 8.16659 14.3541C7.7798 14.7409 7.5625 15.2655 7.5625 15.8125V19.9375H3.4375V10.3125C3.5513 10.3308 3.66609 10.3422 3.78125 10.3469C4.24534 10.3429 4.70259 10.2345 5.11913 10.0298C5.53566 9.82514 5.9008 9.52935 6.1875 9.16438C6.4775 9.52324 6.84411 9.8127 7.26045 10.0115C7.6768 10.2104 8.13236 10.3136 8.59375 10.3136C9.05515 10.3136 9.5107 10.2104 9.92705 10.0115C10.3434 9.8127 10.71 9.52324 11 9.16438C11.29 9.52324 11.6566 9.8127 12.073 10.0115C12.4893 10.2104 12.9449 10.3136 13.4062 10.3136C13.8676 10.3136 14.3232 10.2104 14.7395 10.0115C15.1559 9.8127 15.5225 9.52324 15.8125 9.16438C16.1026 9.52304 16.4693 9.81229 16.8856 10.0109C17.3019 10.2096 17.7574 10.3126 18.2188 10.3125C18.3332 10.3193 18.448 10.3193 18.5625 10.3125V19.9375Z" fill="#A6A6A6"/>
</g>
<defs>
<clipPath id="clip0_103_87886">
<rect width="22" height="22" fill="white"/>
</clipPath>
</defs>
</svg>
