<svg width="16" height="16" viewBox="0 0 16 16" fill="none" xmlns="http://www.w3.org/2000/svg">
<g clip-path="url(#clip0_103_71240)">
<path d="M8.00085 8.3084C10.2866 8.3084 12.155 6.43993 12.155 4.1542C12.155 1.86847 10.2866 0 8.00085 0C5.71512 0 3.84668 1.86847 3.84668 4.1542C3.84668 6.43993 5.71515 8.3084 8.00085 8.3084Z" fill="#797979"/>
<path d="M15.1302 11.628C15.0213 11.3559 14.8762 11.1019 14.713 10.8661C13.8785 9.63253 12.5905 8.81621 11.1393 8.61667C10.9579 8.59854 10.7584 8.63479 10.6132 8.74364C9.85131 9.30601 8.94429 9.59625 8.00096 9.59625C7.05763 9.59625 6.15061 9.30601 5.3887 8.74364C5.24356 8.63479 5.04402 8.58038 4.86263 8.61667C3.41138 8.81621 2.10527 9.63253 1.28895 10.8661C1.12568 11.1019 0.980543 11.3741 0.871724 11.628C0.817314 11.7369 0.835439 11.8639 0.889849 11.9727C1.03499 12.2267 1.21638 12.4807 1.37964 12.6983C1.6336 13.043 1.90572 13.3514 2.21412 13.6416C2.46808 13.8956 2.75832 14.1314 3.0486 14.3673C4.48169 15.4376 6.20506 15.9999 7.98284 15.9999C9.76061 15.9999 11.484 15.4375 12.9171 14.3673C13.2073 14.1496 13.4976 13.8956 13.7516 13.6416C14.0418 13.3514 14.332 13.043 14.586 12.6983C14.7674 12.4625 14.9307 12.2267 15.0758 11.9727C15.1665 11.8639 15.1846 11.7368 15.1302 11.628Z" fill="#797979"/>
</g>
<defs>
<clipPath id="clip0_103_71240">
<rect width="16" height="16" fill="white"/>
</clipPath>
</defs>
</svg>
