<svg width="23" height="22" viewBox="0 0 23 22" fill="none" xmlns="http://www.w3.org/2000/svg">
<g clip-path="url(#clip0_103_102961)">
<path d="M2.21724 19.8966C2.1817 19.8966 2.14617 19.8966 2.12849 19.8787C2.03973 19.8611 1.95098 19.79 1.91544 19.7012L0.939143 17.8906C0.850388 17.7131 0.903606 17.5002 1.08112 17.4115L1.66703 17.0918L1.34738 16.4173C1.27648 16.2577 1.3297 16.0623 1.47167 15.9735L2.1108 15.5653L1.77347 14.8553C1.7024 14.6954 1.75579 14.5003 1.89776 14.4115L2.55458 13.9677L2.21724 13.2222C2.1817 13.1513 2.1817 13.0625 2.19956 12.9914L2.87406 10.4175C1.80901 9.44125 1.38291 7.89689 1.79115 6.4236C2.07527 5.41177 2.73209 4.55976 3.65499 4.04491C4.57807 3.53024 5.62544 3.40595 6.65496 3.6899C8.74953 4.27581 9.97441 6.45914 9.37081 8.55371C8.96258 10.0448 7.7377 11.234 6.35316 11.5181L4.32966 18.583C4.31181 18.6717 4.24091 18.7428 4.16984 18.796L2.39475 19.8255C2.34153 19.8787 2.27046 19.8966 2.21724 19.8966ZM1.72025 17.8729L2.35921 19.0444L3.69053 18.2635L5.73188 11.1276C5.76742 10.9856 5.89171 10.8969 6.016 10.879C7.22302 10.7193 8.30576 9.68983 8.67863 8.3762C9.15777 6.65433 8.16379 4.87924 6.44192 4.39993C5.60759 4.16921 4.7379 4.27581 3.99233 4.68405C3.24676 5.10997 2.69655 5.80232 2.46582 6.61879C2.11081 7.87921 2.51904 9.21052 3.49534 10.0093C3.60177 10.0981 3.65499 10.24 3.61963 10.382L2.92728 13.0446L3.33551 13.95C3.40658 14.1097 3.35337 14.2872 3.21122 14.3938L2.55458 14.8197L2.89174 15.5121C2.96281 15.6717 2.90959 15.8671 2.76745 15.9559L2.12849 16.3641L2.46582 17.0564C2.55458 17.234 2.4835 17.4291 2.32368 17.5179L1.72025 17.8729Z" fill="#A6A6A6"/>
<path d="M5.9271 7.47098C5.82049 7.47098 5.6962 7.45313 5.58976 7.41759C5.27028 7.32884 5.00402 7.11597 4.82651 6.83185C4.66668 6.5479 4.63114 6.21057 4.7199 5.89109C4.91526 5.23427 5.60744 4.84372 6.26426 5.02122C6.58374 5.10998 6.85 5.32302 7.02751 5.60714C7.18734 5.89109 7.22288 6.22842 7.13412 6.5479C6.97429 7.11597 6.4773 7.47098 5.9271 7.47098ZM5.9271 5.6959C5.6962 5.6959 5.46547 5.85555 5.41225 6.08628C5.37671 6.22842 5.39457 6.37039 5.46547 6.49469C5.53654 6.6188 5.66083 6.70756 5.78495 6.74309C6.06907 6.83185 6.37087 6.65434 6.45962 6.37039C6.49498 6.22842 6.4773 6.08628 6.40623 5.96216C6.33533 5.83787 6.21104 5.74911 6.08675 5.71358C6.01585 5.6959 5.98031 5.6959 5.9271 5.6959Z" fill="#A6A6A6"/>
<path d="M8.98002 8.96195C8.21677 8.96195 7.50673 8.71355 6.90331 8.25192C6.74348 8.12763 6.7258 7.91476 6.83223 7.75493C6.95652 7.5951 7.16957 7.57742 7.32922 7.68386C7.80853 8.05673 8.37659 8.23424 8.98002 8.23424C9.45933 8.23424 9.93864 8.10995 10.3469 7.86137C10.5244 7.75493 10.7374 7.826 10.8262 7.98566C10.9326 8.16317 10.8617 8.37621 10.7019 8.46496C10.1872 8.8023 9.58362 8.96195 8.98002 8.96195Z" fill="#A6A6A6"/>
<path d="M5.94486 5.69589H5.92718C5.73182 5.67803 5.58984 5.51838 5.58984 5.32301C5.71413 3.54792 7.2051 2.16339 8.98019 2.16339C10.5601 2.16339 11.9625 3.28166 12.2996 4.8437C12.3352 5.03907 12.2287 5.21658 12.0334 5.26979C11.8382 5.30533 11.6607 5.19872 11.6075 5.00353C11.3412 3.74329 10.2406 2.85574 8.98019 2.85574C7.57798 2.85574 6.38863 3.95616 6.29988 5.35855C6.2822 5.53606 6.12237 5.69589 5.94486 5.69589Z" fill="#A6A6A6"/>
<path d="M17.3231 17.2693C17.2344 17.2693 17.1456 17.234 17.0747 17.1629L11.0394 11.1276C10.8974 10.9856 10.5778 10.6128 10.5778 10.169L10.2051 6.24611C10.2051 6.22842 10.2051 6.22842 10.2051 6.21057C10.2051 5.73126 10.3471 5.37624 10.6665 5.03908C10.9862 4.7196 11.3412 4.57745 11.7494 4.57745H11.8382H11.8737L15.7966 4.93247C16.2581 4.93247 16.6131 5.26981 16.7552 5.3941L22.7905 11.4294C22.9325 11.5714 22.9325 11.7844 22.7905 11.9264L17.5717 17.1629C17.5185 17.234 17.4297 17.2693 17.3231 17.2693ZM10.9151 6.19289L11.2878 10.1158V10.1513C11.2878 10.2933 11.3944 10.4708 11.5541 10.6306L17.341 16.4173L22.0449 11.6957L16.2581 5.90877C16.0984 5.74912 15.903 5.64251 15.7789 5.64251C15.7611 5.64251 15.7611 5.64251 15.7434 5.64251L11.7494 5.26981C11.5364 5.26981 11.3589 5.35856 11.1814 5.53607C10.9862 5.73126 10.9151 5.90877 10.9151 6.19289Z" fill="#A6A6A6"/>
<path d="M14.6427 11.0388C14.5539 11.0388 14.4651 11.0033 14.3941 10.9324C14.2521 10.7903 14.2521 10.5774 14.3941 10.4352L16.1159 8.71354C16.2579 8.5714 16.471 8.5714 16.6129 8.71354C16.7551 8.85552 16.7551 9.06856 16.6129 9.21053L14.8912 10.9324C14.8202 11.0033 14.7314 11.0388 14.6427 11.0388Z" fill="#A6A6A6"/>
<path d="M16.6485 13.0446C16.5597 13.0446 16.471 13.0091 16.4001 12.9382C16.2579 12.7962 16.2579 12.5832 16.4001 12.4412L18.1218 10.7193C18.2639 10.5774 18.4768 10.5774 18.6189 10.7193C18.7609 10.8613 18.7609 11.0744 18.6189 11.2163L16.8971 12.9382C16.826 13.0091 16.7372 13.0446 16.6485 13.0446Z" fill="#A6A6A6"/>
</g>
<defs>
<clipPath id="clip0_103_102961">
<rect width="22" height="22" fill="white" transform="translate(0.896973)"/>
</clipPath>
</defs>
</svg>
