<svg width="25" height="25" viewBox="0 0 25 25" fill="none" xmlns="http://www.w3.org/2000/svg">
<path d="M18.2776 6H6.94443C6.4231 6 6 6.448 6 7C6 7.552 6.4231 8 6.94443 8H18.2776C18.7989 8 19.222 7.552 19.222 7C19.222 6.448 18.7989 6 18.2776 6Z" fill="#FEFAFA"/>
<path d="M18.2776 11H6.94443C6.4231 11 6 11.448 6 12C6 12.552 6.4231 13 6.94443 13H18.2776C18.7989 13 19.222 12.552 19.222 12C19.222 11.448 18.7989 11 18.2776 11Z" fill="#FEFAFA"/>
<path d="M18.2776 16H6.94443C6.4231 16 6 16.448 6 17C6 17.552 6.4231 18 6.94443 18H18.2776C18.7989 18 19.222 17.552 19.222 17C19.222 16.448 18.7989 16 18.2776 16Z" fill="#FEFAFA"/>
<path d="M18.75 2.08333C21.0479 2.08333 22.9167 3.95208 22.9167 6.25V18.75C22.9167 21.0479 21.0479 22.9167 18.75 22.9167H6.25C3.95208 22.9167 2.08333 21.0479 2.08333 18.75V6.25C2.08333 3.95208 3.95208 2.08333 6.25 2.08333H18.75ZM18.75 0H6.25C2.79792 0 0 2.79792 0 6.25V18.75C0 22.2021 2.79792 25 6.25 25H18.75C22.2021 25 25 22.2021 25 18.75V6.25C25 2.79792 22.2021 0 18.75 0Z" fill="#EF0000"/>
</svg>
