<svg width="23" height="22" viewBox="0 0 23 22" fill="none" xmlns="http://www.w3.org/2000/svg">
<path d="M11.5 1.375C8.94729 1.375 6.49913 2.38906 4.6941 4.1941C2.88906 5.99913 1.875 8.44729 1.875 11C1.875 11.1823 1.94743 11.3572 2.07636 11.4861C2.2053 11.6151 2.38016 11.6875 2.5625 11.6875H10.8125V19.9375C10.8125 20.1198 10.8849 20.2947 11.0139 20.4236C11.1428 20.5526 11.3177 20.625 11.5 20.625C14.0527 20.625 16.5009 19.6109 18.3059 17.8059C20.1109 16.0009 21.125 13.5527 21.125 11C21.125 8.44729 20.1109 5.99913 18.3059 4.1941C16.5009 2.38906 14.0527 1.375 11.5 1.375ZM12.1875 19.25V11C12.1875 10.8177 12.1151 10.6428 11.9861 10.5139C11.8572 10.3849 11.6823 10.3125 11.5 10.3125H3.25C3.38684 8.74803 3.96738 7.25512 4.92338 6.00919C5.87939 4.76326 7.17115 3.81608 8.64688 3.27894C10.1226 2.74181 11.721 2.63703 13.2542 2.97693C14.7874 3.31683 16.1918 4.08728 17.3023 5.19775C18.4127 6.30822 19.1832 7.71257 19.5231 9.24579C19.863 10.779 19.7582 12.3774 19.2211 13.8531C18.6839 15.3288 17.7367 16.6206 16.4908 17.5766C15.2449 18.5326 13.752 19.1132 12.1875 19.25Z" fill="#A6A6A6"/>
<path d="M8.74995 13.0625H2.99557C2.88419 13.057 2.77314 13.0786 2.67198 13.1255C2.57083 13.1725 2.48262 13.2433 2.41495 13.332C2.34728 13.4206 2.3022 13.5244 2.28358 13.6344C2.26496 13.7443 2.27336 13.8571 2.30807 13.9631C2.77716 15.41 3.58248 16.7251 4.65802 17.8007C5.73355 18.8762 7.04868 19.6815 8.49557 20.1506C8.60155 20.1853 8.71438 20.1937 8.82434 20.1751C8.93429 20.1565 9.03806 20.1114 9.1267 20.0437C9.21535 19.9761 9.2862 19.8879 9.33315 19.7867C9.3801 19.6856 9.40174 19.5745 9.3962 19.4631V13.75C9.39651 13.5746 9.32977 13.4057 9.20963 13.2779C9.08949 13.1501 8.92504 13.073 8.74995 13.0625ZM8.06245 18.4937C6.26869 17.6704 4.82955 16.2312 4.0062 14.4375H8.06245V18.4937Z" fill="#A6A6A6"/>
</svg>
