<svg width="21" height="20" viewBox="0 0 21 20" fill="none" xmlns="http://www.w3.org/2000/svg">
<path d="M13.4396 4.08398H4.97132C4.58178 4.08398 4.26562 4.52574 4.26562 5.07005C4.26562 5.61435 4.58178 6.05611 4.97132 6.05611H13.4396C13.8292 6.05611 14.1453 5.61435 14.1453 5.07005C14.1453 4.52574 13.8292 4.08398 13.4396 4.08398Z" fill="#EF0000"/>
<path d="M11.379 8.02832H5.056C4.61971 8.02832 4.26562 8.47008 4.26562 9.01438C4.26562 9.55869 4.61971 10.0004 5.056 10.0004H11.379C11.8153 10.0004 12.1694 9.55869 12.1694 9.01438C12.1694 8.47008 11.8153 8.02832 11.379 8.02832Z" fill="#EF0000"/>
<path d="M15.6549 0H4.87701C2.40079 0 0.38623 2.01067 0.38623 4.4821V11.6535C0.38623 13.8174 1.93196 15.6282 3.97885 16.045V18.8248C3.97885 19.1556 4.16118 19.4595 4.45308 19.6154C4.58601 19.6863 4.73151 19.7212 4.87701 19.7212C5.05125 19.7212 5.22459 19.6701 5.37548 19.5706L10.5381 16.1355H15.6549C18.1311 16.1355 20.1457 14.1249 20.1457 11.6535V4.4821C20.1457 2.01067 18.1311 0 15.6549 0ZM9.76747 14.4933L5.77516 17.1494V15.2391C5.77516 14.7443 5.37279 14.3427 4.87701 14.3427C3.39146 14.3427 2.18254 13.1361 2.18254 11.6535V4.4821C2.18254 2.99942 3.39146 1.79284 4.87701 1.79284H15.6549C17.1404 1.79284 18.3493 2.99942 18.3493 4.4821V11.6535C18.3493 13.1361 17.1404 14.3427 15.6549 14.3427H10.2659C10.2031 14.3418 10.1133 14.3481 10.0109 14.3786C9.90309 14.4099 9.82135 14.4566 9.76747 14.4933Z" fill="#FEFAFA"/>
</svg>
