<svg width="14" height="16" viewBox="0 0 14 16" fill="none" xmlns="http://www.w3.org/2000/svg">
<path d="M11.375 9.82445C10.5106 9.82445 9.74257 10.2445 9.26398 10.8911L5.1436 8.78541C5.21273 8.55056 5.25 8.30221 5.25 8.04528C5.25 7.69729 5.18178 7.365 5.05826 7.06082L9.37667 4.46621C9.85851 5.03175 10.5755 5.39111 11.375 5.39111C12.8224 5.39111 14 4.21354 14 2.76611C14 1.31869 12.8224 0.141113 11.375 0.141113C9.92758 0.141113 8.75 1.31869 8.75 2.76611C8.75 3.10066 8.81303 3.4207 8.92762 3.7152L4.59842 6.31628C4.11693 5.76742 3.41078 5.42028 2.625 5.42028C1.17757 5.42028 0 6.59786 0 8.04528C0 9.49271 1.17757 10.6703 2.625 10.6703C3.50356 10.6703 4.2826 10.2364 4.75933 9.57169L8.86775 11.6713C8.79124 11.9172 8.75 12.1786 8.75 12.4494C8.75 13.8969 9.92758 15.0744 11.375 15.0744C12.8224 15.0744 14 13.8969 14 12.4494C14 11.002 12.8224 9.82445 11.375 9.82445ZM11.375 1.01611C12.3399 1.01611 13.125 1.80116 13.125 2.76611C13.125 3.73106 12.3399 4.51611 11.375 4.51611C10.4101 4.51611 9.625 3.73106 9.625 2.76611C9.625 1.80116 10.4101 1.01611 11.375 1.01611ZM2.625 9.79528C1.66005 9.79528 0.875 9.01023 0.875 8.04528C0.875 7.08033 1.66005 6.29528 2.625 6.29528C3.58995 6.29528 4.375 7.08033 4.375 8.04528C4.375 9.01023 3.58995 9.79528 2.625 9.79528ZM11.375 14.1994C10.4101 14.1994 9.625 13.4144 9.625 12.4494C9.625 11.4845 10.4101 10.6994 11.375 10.6994C12.3399 10.6994 13.125 11.4845 13.125 12.4494C13.125 13.4144 12.3399 14.1994 11.375 14.1994Z" fill="white"/>
</svg>
