<svg width="12" height="12" viewBox="0 0 12 12" fill="none" xmlns="http://www.w3.org/2000/svg">
<path d="M5.99356 4.1172e-05C5.91466 0.000817603 5.83668 0.0171993 5.7641 0.0482772C5.69152 0.0793551 5.62575 0.124514 5.57056 0.181151C5.51537 0.237788 5.47184 0.304833 5.44246 0.378386C5.41308 0.451939 5.39844 0.530563 5.39936 0.609808V5.43265C5.3994 5.59263 5.4627 5.74606 5.57534 5.85916C5.68798 5.97227 5.84073 6.03577 6 6.03577C6.15927 6.03577 6.31202 5.97227 6.42466 5.85916C6.5373 5.74606 6.6006 5.59263 6.60065 5.43265V0.609808C6.60158 0.529472 6.58651 0.449745 6.55634 0.375341C6.52616 0.300937 6.48148 0.233325 6.42491 0.176514C6.36835 0.119704 6.30106 0.0748513 6.22698 0.0445401C6.1529 0.014229 6.07354 -0.00089769 5.99356 4.1172e-05ZM9.49429 1.20899C9.47475 1.20842 9.45519 1.20881 9.43569 1.21016C9.31705 1.22028 9.20409 1.26563 9.11118 1.34041C9.01827 1.41519 8.9496 1.51601 8.91392 1.6301C8.87823 1.74419 8.87714 1.8664 8.91078 1.98111C8.94442 2.09582 9.01128 2.19789 9.10284 2.27433C10.1423 3.16092 10.7999 4.48051 10.7999 5.96235C10.7999 8.638 8.66082 10.7946 6.00293 10.7946C3.34503 10.7946 1.20128 8.638 1.20129 5.96235C1.20129 4.48908 1.85053 3.17845 2.87958 2.29198C2.93953 2.24058 2.98881 2.1778 3.02462 2.10727C3.06042 2.03674 3.08204 1.95982 3.08825 1.8809C3.09446 1.80198 3.08512 1.72263 3.06079 1.64733C3.03645 1.57203 2.99758 1.50228 2.94641 1.44207C2.89523 1.38186 2.83275 1.33235 2.76253 1.29639C2.6923 1.26043 2.61572 1.23868 2.53714 1.23245C2.45856 1.22622 2.37953 1.23561 2.30456 1.26006C2.22959 1.28451 2.16015 1.32354 2.1002 1.37494C0.815637 2.48154 5.64662e-06 4.13098 0 5.96235C-5.39716e-06 9.28838 2.69537 12 6.00293 12C9.31049 12 12 9.28838 12 5.96235C12 4.1203 11.1763 2.46408 9.8787 1.35729C9.77199 1.26387 9.63583 1.21134 9.49429 1.20899H9.49429Z" fill="white"/>
</svg>
