<svg width="20" height="20" viewBox="0 0 20 20" fill="none" xmlns="http://www.w3.org/2000/svg">
<g clip-path="url(#clip0_103_87912)">
<path d="M13.9328 6.70062L10.2703 12.9006C10.1819 13.0469 9.99125 13.0998 9.84062 13.0114C9.79187 12.9805 9.75219 12.9405 9.73 12.8963L6.0675 6.70062C6.06313 6.69172 6.05859 6.68281 6.05422 6.67844C5.87703 6.35078 5.73531 6.00094 5.64234 5.63328C5.54484 5.27016 5.49609 4.89375 5.49609 4.50391C5.49609 3.25938 6.00094 2.13453 6.81578 1.31969C7.63078 0.504844 8.75578 0 10.0002 0C11.2447 0 12.3695 0.504844 13.1845 1.31969C13.9994 2.13453 14.5042 3.25953 14.5042 4.50391C14.5042 4.89359 14.4509 5.27 14.358 5.63328C14.2605 6.00969 14.1187 6.36406 13.9372 6.69172L13.9328 6.70062ZM10.0002 12.1303L13.3927 6.38172H13.397C13.552 6.09828 13.6717 5.79703 13.7558 5.47828C13.8356 5.16828 13.8797 4.84484 13.8797 4.50391C13.8797 3.43219 13.4458 2.46219 12.7416 1.7625C12.0419 1.05828 11.0719 0.624375 10.0002 0.624375C8.92844 0.624375 7.95859 1.05828 7.25891 1.7625C6.55453 2.46219 6.12063 3.43219 6.12063 4.50391C6.12063 4.84484 6.165 5.16813 6.24469 5.47828C6.32453 5.79266 6.44844 6.09375 6.59906 6.37297L6.60344 6.38188L10.0002 12.1303Z" fill="#A6A6A6"/>
<path d="M9.99996 1.91309C10.7131 1.91309 11.364 2.20543 11.8292 2.67043C12.2986 3.1398 12.5907 3.78652 12.5907 4.50387C12.5907 5.21684 12.2986 5.86777 11.8292 6.3373C11.364 6.80246 10.7131 7.09465 9.99996 7.09465C9.28246 7.09465 8.63605 6.8023 8.16652 6.3373C7.69715 5.86777 7.40918 5.21684 7.40918 4.50387C7.40918 3.78637 7.69715 3.1398 8.16652 2.67043C8.63605 2.20543 9.28246 1.91309 9.99996 1.91309ZM9.99996 3.36574C10.3145 3.36574 10.5979 3.49418 10.8059 3.69793C10.8103 3.70684 10.8148 3.71121 10.8236 3.72012C11.0186 3.92387 11.1381 4.1984 11.1381 4.50402C11.1381 4.8184 11.0098 5.10184 10.8015 5.30559L10.8059 5.30996C10.5979 5.51371 10.3143 5.64199 9.99996 5.64199C9.68559 5.64199 9.40215 5.51356 9.1984 5.30996L9.19402 5.30559C8.99027 5.10184 8.86184 4.81402 8.86184 4.50402C8.86184 4.18949 8.99027 3.90621 9.19402 3.70246V3.69809H9.1984C9.40215 3.49418 9.68543 3.36574 9.99996 3.36574ZM10.3632 4.14074C10.2701 4.04762 10.1418 3.99027 9.99996 3.99027C9.85824 3.99027 9.7298 4.04777 9.63684 4.14074C9.54387 4.23371 9.48637 4.36215 9.48637 4.50387C9.48637 4.64559 9.54387 4.77402 9.63684 4.86699C9.72996 4.95996 9.85824 5.01762 9.99996 5.01762C10.1418 5.01762 10.2701 4.95996 10.3632 4.86699C10.4562 4.77402 10.5139 4.64559 10.5139 4.50387C10.5139 4.36652 10.4606 4.24262 10.3765 4.15402C10.3721 4.14965 10.3678 4.14512 10.3632 4.14074ZM11.3906 3.11324C11.0318 2.75887 10.5404 2.53746 9.99996 2.53746C9.45527 2.53746 8.96356 2.75887 8.60949 3.11324C8.25512 3.46746 8.03371 3.95918 8.03371 4.50387C8.03371 5.04855 8.25512 5.53574 8.60949 5.89449C8.96371 6.24887 9.45527 6.47027 9.99996 6.47027C10.5404 6.47027 11.0318 6.24887 11.3906 5.89449C11.745 5.53574 11.9664 5.04855 11.9664 4.50387C11.9664 3.95918 11.745 3.46746 11.3906 3.11324Z" fill="#A6A6A6"/>
<path d="M2.79 1.32847C2.86985 1.17785 3.06016 1.12019 3.21078 1.20441C3.36141 1.2841 3.41891 1.47457 3.33469 1.62504C3.21969 1.83769 3.11766 2.0591 3.02484 2.28941C2.93172 2.51519 2.85656 2.7455 2.79 2.99363C2.59078 3.72441 2.52875 4.46394 2.59078 5.17691C2.65734 5.92097 2.85219 6.63847 3.16656 7.29832C3.2375 7.45332 3.17094 7.63941 3.01609 7.71019C2.86109 7.7855 2.675 7.7191 2.59984 7.56394C2.25859 6.83316 2.04172 6.04488 1.97094 5.23004C1.90016 4.44613 1.96656 3.63566 2.18797 2.82972C2.25875 2.56847 2.34297 2.3116 2.445 2.0591C2.54656 1.8066 2.66172 1.56316 2.79 1.32847ZM16.6609 1.62504C16.5811 1.47457 16.6388 1.2841 16.7894 1.20441C16.9397 1.12019 17.1258 1.17785 17.2098 1.32847C17.3383 1.56316 17.4536 1.80675 17.5553 2.0591C17.6572 2.3116 17.7413 2.56847 17.8123 2.82972C18.0294 3.63566 18.0956 4.44613 18.0294 5.23004C17.9586 6.04488 17.7414 6.83316 17.4005 7.56394C17.3253 7.71894 17.1392 7.78535 16.9842 7.71019C16.8294 7.63925 16.7628 7.45332 16.8338 7.29832C17.1436 6.63847 17.343 5.92097 17.4048 5.17691C17.4669 4.46394 17.4092 3.72441 17.21 2.99363C17.1436 2.74566 17.0638 2.51519 16.9753 2.28941C16.8823 2.0591 16.7805 1.83769 16.6609 1.62504ZM15.4561 2.7766C15.3897 2.61707 15.4606 2.43113 15.62 2.36472C15.7795 2.29832 15.9613 2.3691 16.032 2.52847C16.0763 2.6391 16.1252 2.75441 16.1694 2.88285C16.2136 3.00691 16.2491 3.13082 16.28 3.24597C16.4217 3.75972 16.4794 4.28222 16.4617 4.7916C16.4483 5.31863 16.3509 5.83675 16.187 6.32394C16.1339 6.48769 15.9567 6.57629 15.793 6.52316C15.6291 6.46566 15.5405 6.28863 15.598 6.12472C15.7442 5.69504 15.8284 5.23894 15.8417 4.77394C15.855 4.3266 15.8019 3.86597 15.6778 3.40988C15.6469 3.29019 15.6112 3.1841 15.5803 3.0866C15.5447 2.98488 15.5048 2.88285 15.4561 2.7766ZM3.96813 2.52863C4.03453 2.36925 4.22047 2.29832 4.38 2.36488C4.535 2.43129 4.61031 2.61722 4.54391 2.77675C4.495 2.883 4.45531 2.98504 4.41985 3.08675C4.38438 3.18425 4.35344 3.29035 4.32235 3.41004C4.19844 3.86613 4.14531 4.32675 4.15859 4.7741C4.17188 5.2391 4.25594 5.69519 4.40219 6.12488C4.45531 6.28879 4.36672 6.46582 4.20735 6.52332C4.04344 6.57644 3.86625 6.48785 3.81328 6.3241C3.645 5.83691 3.55188 5.31879 3.53422 4.79175C3.52094 4.28238 3.57844 3.75988 3.72016 3.24613C3.75109 3.13097 3.78672 3.00707 3.83094 2.883C3.87516 2.75441 3.91953 2.63925 3.96813 2.52863Z" fill="#A6A6A6"/>
<path d="M19.8096 16.0406C19.9646 16.1072 20.0398 16.2888 19.9735 16.4481C19.907 16.6077 19.721 16.6828 19.566 16.6121L16.7406 15.4117C16.6918 15.3941 16.6432 15.3852 16.5943 15.3852C16.5501 15.3896 16.5059 15.4074 16.4571 15.4341L14.9424 16.3463C14.8229 16.4172 14.6945 16.4614 14.566 16.4747C14.442 16.488 14.3181 16.4747 14.1896 16.4438L10.7487 15.5447C10.5804 15.5005 10.4829 15.3322 10.5229 15.1638C10.5671 14.9999 10.7399 14.898 10.9037 14.9424L14.3493 15.8369C14.4024 15.8546 14.4556 15.8591 14.4999 15.8546C14.5398 15.8502 14.5796 15.8369 14.6195 15.8103L16.1341 14.898C16.267 14.8183 16.4087 14.7741 16.5548 14.7652C16.701 14.7561 16.8427 14.7785 16.9843 14.8403L19.8096 16.0406ZM9.30024 14.1497C9.44634 14.2338 9.49946 14.4242 9.41087 14.5749C9.32681 14.7255 9.13634 14.7742 8.98571 14.69L6.92634 13.4988C6.87306 13.4678 6.81993 13.4456 6.76681 13.4413C6.72243 13.4367 6.67368 13.4456 6.62946 13.4635L4.46399 14.3578C4.29134 14.4286 4.10978 14.4464 3.93274 14.4153C3.76009 14.3799 3.59618 14.2958 3.45884 14.1674L0.64665 11.4525C0.522587 11.333 0.518212 11.1381 0.637744 11.0141C0.757275 10.89 0.95665 10.8856 1.08056 11.0052L3.89274 13.7156C3.93712 13.7599 3.99024 13.791 4.04774 13.7999C4.1054 13.8131 4.16743 13.8042 4.22931 13.7822L6.39056 12.8874C6.53228 12.8299 6.67837 12.8077 6.82009 12.821C6.97071 12.8342 7.10806 12.8828 7.24087 12.9583L9.30024 14.1497Z" fill="#A6A6A6"/>
<path d="M10.0001 13.605C10.3414 13.605 10.6469 13.7422 10.8726 13.9681C11.094 14.1894 11.2314 14.4994 11.2314 14.8361C11.2314 15.1772 11.094 15.4872 10.8726 15.7084C10.6469 15.9344 10.3414 16.0715 10.0001 16.0715C9.65904 16.0715 9.3492 15.9344 9.12764 15.7084C8.90623 15.4872 8.76904 15.1772 8.76904 14.8361C8.76904 14.4995 8.90623 14.1894 9.12764 13.9681C9.3492 13.7422 9.65904 13.605 10.0001 13.605ZM10.4298 14.4064C10.319 14.3001 10.1686 14.2292 10.0001 14.2292C9.83186 14.2292 9.68123 14.3001 9.57061 14.4064C9.45982 14.5172 9.39342 14.6678 9.39342 14.8361C9.39342 15.0044 9.45982 15.1594 9.57061 15.2658C9.68123 15.3764 9.83186 15.4473 10.0001 15.4473C10.1686 15.4473 10.319 15.3764 10.4298 15.2658C10.5406 15.1594 10.607 15.0044 10.607 14.8361C10.607 14.6678 10.5406 14.5172 10.4298 14.4064Z" fill="#A6A6A6"/>
<path d="M6.47469 8.77757C6.63859 8.82616 6.73172 9.00335 6.68281 9.16725C6.63406 9.33116 6.46141 9.42866 6.29313 9.37553L5.80156 9.22928C5.77938 9.22491 5.76188 9.22038 5.73969 9.216V12.0548C5.73969 12.2274 5.60234 12.3648 5.42969 12.3648C5.25703 12.3648 5.11516 12.2274 5.11516 12.0548V9.28694C5.10625 9.29132 5.0975 9.30022 5.08422 9.3046L1.00984 11.5012C0.912344 11.5543 0.819375 11.6651 0.748438 11.7935C0.673281 11.9351 0.624531 12.0901 0.624531 12.2363V19.0698C0.624531 19.1362 0.633437 19.1893 0.651094 19.2202L0.655469 19.2293C0.673125 19.2248 0.690938 19.2202 0.712969 19.2069L4.79172 17.006C4.89813 16.9485 5.00422 16.9041 5.115 16.873V14.7874C5.115 14.6148 5.25672 14.4729 5.42953 14.4729C5.60234 14.4729 5.73953 14.6146 5.73953 14.7874V16.8335C5.81906 16.8424 5.89891 16.8601 5.97844 16.8866L14.1984 19.3312L14.225 19.3401V17.3249C14.225 17.1524 14.3667 17.0105 14.5395 17.0105C14.7123 17.0105 14.8495 17.1523 14.8495 17.3249V19.2869C14.8717 19.278 14.8938 19.2693 14.9114 19.2604L18.9902 17.0593C19.0875 17.0062 19.1806 16.8998 19.2514 16.7671C19.3267 16.6298 19.3755 16.4704 19.3755 16.3285V9.49507C19.3755 9.41085 19.3622 9.3135 19.2648 9.36663L15.2083 11.5543C15.0931 11.6162 14.9736 11.6651 14.8495 11.696V14.7385C14.8495 14.9112 14.7122 15.0485 14.5395 15.0485C14.3669 15.0485 14.225 14.9112 14.225 14.7385V11.7226C14.1586 11.7137 14.0877 11.696 14.0212 11.6783L12.4934 11.2221C12.3295 11.1733 12.2366 11.0007 12.2853 10.8324C12.3341 10.6687 12.5067 10.5755 12.675 10.6243L14.1984 11.0804C14.3269 11.1158 14.4464 11.1293 14.5616 11.1158C14.6812 11.1026 14.7964 11.0671 14.9114 11.0052L18.9902 8.80413C19.1098 8.73772 19.2337 8.70678 19.3445 8.70678C19.4642 8.70678 19.5748 8.74225 19.6723 8.80413C19.7655 8.86178 19.8406 8.94147 19.8937 9.04772C19.9603 9.16725 20 9.31788 20 9.49507V16.3285C20 16.5721 19.9203 16.8379 19.7964 17.0637C19.6723 17.2983 19.4908 17.4976 19.2827 17.6083L15.2083 19.8094C15.0267 19.9069 14.7477 19.9999 14.5395 19.9999C14.3536 19.9999 14.1984 19.9823 14.0214 19.9291L5.80156 17.4843C5.68656 17.4488 5.58031 17.4355 5.47391 17.4401C5.46063 17.4444 5.44734 17.4444 5.43406 17.4444C5.31891 17.4577 5.19922 17.4932 5.08422 17.5551L1.00984 19.7563C0.890156 19.8227 0.766094 19.8537 0.651094 19.8537C0.535937 19.8537 0.425156 19.8227 0.327812 19.7607C0.234844 19.703 0.159531 19.619 0.102031 19.5169C0.04 19.3932 0 19.2426 0 19.0699V12.2363C0 11.9883 0.0753125 11.7226 0.199375 11.4968C0.327656 11.2663 0.509219 11.0627 0.712969 10.9519L4.79172 8.75538C5.17266 8.54725 5.56672 8.50741 5.97859 8.63147L6.47469 8.77757Z" fill="#A6A6A6"/>
</g>
<defs>
<clipPath id="clip0_103_87912">
<rect width="20" height="20" fill="white"/>
</clipPath>
</defs>
</svg>
