<svg width="24" height="24" viewBox="0 0 24 24" fill="none" xmlns="http://www.w3.org/2000/svg">
<path d="M12.0793 2.71338C14.6109 2.71338 16.8806 3.67364 18.5392 5.33228C20.1106 6.99093 21.1581 9.26065 21.1581 11.7923C21.1581 14.3239 20.1106 16.5936 18.5392 18.2523C16.8806 19.9109 14.6109 20.8712 12.0793 20.8712V18.9506C12.3411 18.9506 12.5157 19.2125 12.5157 19.3871V19.8236C13.3014 19.8236 13.9998 19.649 14.7855 19.3871L14.6109 18.9506C14.5236 18.776 14.6109 18.5142 14.7855 18.4269C15.0474 18.3396 15.3093 18.4269 15.3966 18.6888L15.5712 19.0379C16.2695 18.776 16.8806 18.3396 17.4917 17.8158L17.1425 17.4666C16.9679 17.292 16.9679 17.0301 17.1425 16.8555C17.3171 16.6809 17.579 16.6809 17.7536 16.8555L18.1028 17.2047C18.6266 16.5936 18.9757 15.9825 19.3249 15.2841L18.9758 15.1095C18.7139 15.0222 18.6266 14.7604 18.7139 14.4985C18.8012 14.3239 19.063 14.2366 19.2376 14.3239L19.6741 14.4985C19.936 13.8001 20.1106 13.0144 20.1106 12.2287H19.6741C19.4122 12.2287 19.2376 12.0541 19.2376 11.7923C19.2376 11.5304 19.4122 11.3558 19.6741 11.3558H20.1106C20.1106 10.5701 19.936 9.78443 19.6741 9.08605L19.2376 9.26065C19.063 9.34795 18.8012 9.26065 18.7139 8.99875C18.6266 8.82415 18.7139 8.56227 18.9758 8.47497L19.3249 8.30037C18.9758 7.60198 18.6266 6.9909 18.1028 6.37982L17.7536 6.729C17.579 6.9036 17.3171 6.9036 17.1425 6.729C16.9679 6.5544 16.9679 6.29252 17.1425 6.11792L17.4917 5.76874C16.8806 5.24496 16.2695 4.80848 15.5712 4.45928L15.3966 4.89576C15.3093 5.15766 15.0474 5.24493 14.7855 5.15766C14.6109 5.07036 14.5236 4.80848 14.6109 4.54658L14.7855 4.1974C13.9998 3.93549 13.3014 3.76092 12.5157 3.76092V4.1974C12.5157 4.372 12.3411 4.63388 12.0793 4.63388V2.71338ZM12.0793 16.9428C13.476 16.9428 14.7855 16.3317 15.6585 15.4588C16.6187 14.4985 17.2298 13.189 17.2298 11.7923C17.2298 10.3955 16.6187 9.0861 15.7458 8.12584C14.7855 7.25288 13.476 6.6418 12.0793 6.6418V7.51476C13.2142 7.51476 14.349 7.95124 15.1347 8.73692C15.8331 9.5226 16.3569 10.5702 16.3569 11.7923C16.3569 12.9272 15.8331 14.0621 15.1347 14.8477C14.349 15.6334 13.2142 16.0699 12.0793 16.0699V16.9428H12.0793ZM12.0793 20.8712C9.54764 20.8712 7.27794 19.9109 5.61927 18.2523C3.9606 16.5936 3.00037 14.3239 3.00037 11.7923C3.00037 9.26065 3.96063 6.99095 5.61927 5.33228C7.27791 3.67362 9.54764 2.71338 12.0793 2.71338V4.63392C11.8174 4.63392 11.6428 4.37202 11.6428 4.19744V3.76096C10.8571 3.76096 10.0714 3.93557 9.37306 4.19744L9.54766 4.54662C9.63496 4.80853 9.54766 5.07041 9.28576 5.15771C9.11116 5.24501 8.84928 5.15771 8.76198 4.8958L8.58738 4.45932C7.889 4.8085 7.27791 5.24501 6.66683 5.76879L7.01601 6.11797C7.10331 6.29257 7.10331 6.55445 7.01601 6.72905C6.84141 6.90365 6.57953 6.90365 6.40493 6.72905L6.05575 6.37987C5.53197 6.99095 5.09549 7.60203 4.74629 8.30042L5.18277 8.47502C5.35737 8.56232 5.53195 8.8242 5.44467 8.9988C5.35737 9.2607 5.09549 9.34798 4.83359 9.2607L4.48441 9.0861C4.22251 9.78448 4.04793 10.5701 3.96063 11.3558H4.48441C4.65901 11.3558 4.83359 11.5304 4.83359 11.7923C4.83359 12.0542 4.65899 12.2288 4.48441 12.2288H3.96063C4.04793 13.0145 4.22253 13.8001 4.48441 14.4985L4.83359 14.3239C5.09549 14.2366 5.35737 14.3239 5.44467 14.4985C5.53197 14.7604 5.35737 15.0223 5.18277 15.1096L4.74629 15.2842C5.09547 15.9826 5.53197 16.5937 6.05575 17.2047L6.40493 16.8556C6.57953 16.681 6.84141 16.681 7.01601 16.8556C7.10331 17.0302 7.10331 17.292 7.01601 17.4666L6.66683 17.8158C7.27791 18.3396 7.889 18.7761 8.58738 19.038L8.76198 18.6888C8.84928 18.4269 9.11116 18.3396 9.28576 18.4269C9.54766 18.5142 9.63494 18.7761 9.54766 19.038L9.37306 19.3872C10.0714 19.649 10.8571 19.8236 11.6428 19.8236V19.3871C11.6428 19.2125 11.8174 18.9507 12.0793 18.9507V20.8712ZM12.0793 6.64175C10.6825 6.64175 9.37306 7.25283 8.41278 8.12579C7.53982 9.08605 6.92873 10.3955 6.92873 11.7923C6.92873 13.189 7.45252 14.4985 8.41278 15.4587C9.37304 16.3317 10.6825 16.9428 12.0793 16.9428V16.0698C10.8571 16.0698 9.80954 15.6333 9.02386 14.8476C8.23817 14.062 7.80169 13.0144 7.80169 11.7922C7.80169 10.5701 8.23817 9.52251 9.02386 8.73682C9.80954 7.95114 10.8571 7.51466 12.0793 7.51466V6.64175Z" fill="white"/>
<path d="M11.8054 14.5703V9.65554H12.9205V14.5703H11.8054ZM9.90554 12.6705V11.5554H14.8203V12.6705H9.90554Z" fill="white"/>
</svg>
