<svg width="20" height="20" viewBox="0 0 20 20" fill="none" xmlns="http://www.w3.org/2000/svg">
<g clip-path="url(#clip0_118_2873)">
<path d="M14.8196 1.92224C16.6358 1.92224 18.1128 3.39641 18.1128 5.20911V15.0697C18.1128 16.8824 16.6358 18.3566 14.8196 18.3566H4.93986C3.12364 18.3566 1.64662 16.8824 1.64662 15.0697V5.20911C1.64662 3.39641 3.12364 1.92224 4.93986 1.92224H14.8196ZM14.8196 0.278809H4.93986C2.21141 0.278809 0 2.48594 0 5.20911V15.0697C0 17.7929 2.21141 20 4.93986 20H14.8196C17.548 20 19.7594 17.7929 19.7594 15.0697V5.20911C19.7594 2.48594 17.548 0.278809 14.8196 0.278809Z" fill="#EF0000"/>
<path d="M9.87995 15.0696C9.42548 15.0696 9.05664 14.7023 9.05664 14.2479V6.0307C9.05664 5.57711 9.42548 5.20898 9.87995 5.20898C10.3344 5.20898 10.7033 5.57711 10.7033 6.0307V14.2479C10.7033 14.7023 10.3344 15.0696 9.87995 15.0696Z" fill="#EF0000"/>
<path d="M4.93994 10.1396C4.93994 9.686 5.30796 9.31787 5.76325 9.31787H13.9963C14.4508 9.31787 14.8197 9.686 14.8197 10.1396C14.8197 10.5932 14.4508 10.9613 13.9963 10.9613H5.76325C5.30796 10.9613 4.93994 10.5932 4.93994 10.1396Z" fill="#EF0000"/>
</g>
<defs>
<clipPath id="clip0_118_2873">
<rect width="19.7594" height="19.7212" fill="white" transform="translate(0 0.278809)"/>
</clipPath>
</defs>
</svg>
