<svg width="16" height="17" viewBox="0 0 16 17" fill="none" xmlns="http://www.w3.org/2000/svg">
<g clip-path="url(#clip0_103_113156)">
<path d="M7.99996 0.541138C5.64702 0.541138 3.76467 2.42349 3.76467 4.77643V6.65878C2.96467 6.65878 2.35291 7.27055 2.35291 8.07055V14.1882C2.35291 14.9882 2.96467 15.6 3.76467 15.6H12.2353C13.0353 15.6 13.647 14.9882 13.647 14.1882V8.07055C13.647 7.27055 13.0353 6.65878 12.2353 6.65878V4.77643C12.2353 2.42349 10.3529 0.541138 7.99996 0.541138ZM12.7058 8.07055V14.1882C12.7058 14.4705 12.5176 14.6588 12.2353 14.6588H3.76467C3.48232 14.6588 3.29408 14.4705 3.29408 14.1882V8.07055C3.29408 7.7882 3.48232 7.59996 3.76467 7.59996H4.23526H11.7647H12.2353C12.5176 7.59996 12.7058 7.7882 12.7058 8.07055ZM4.70585 6.65878V4.77643C4.70585 2.94114 6.16467 1.48231 7.99996 1.48231C9.83526 1.48231 11.2941 2.94114 11.2941 4.77643V6.65878H4.70585Z" fill="white"/>
<path d="M8.00002 9.01172C7.20002 9.01172 6.58826 9.62348 6.58826 10.4235C6.58826 11.0352 6.96473 11.5529 7.52943 11.7411V12.7764C7.52943 13.0588 7.71767 13.247 8.00002 13.247C8.28237 13.247 8.47061 13.0588 8.47061 12.7764V11.7411C9.03532 11.5529 9.41179 11.0352 9.41179 10.4235C9.41179 9.62348 8.80002 9.01172 8.00002 9.01172ZM8.00002 10.8941C7.71767 10.8941 7.52943 10.7058 7.52943 10.4235C7.52943 10.1411 7.71767 9.9529 8.00002 9.9529C8.28237 9.9529 8.47061 10.1411 8.47061 10.4235C8.47061 10.7058 8.28237 10.8941 8.00002 10.8941Z" fill="white"/>
</g>
<defs>
<clipPath id="clip0_103_113156">
<rect width="16" height="16" fill="white" transform="translate(0 0.0705566)"/>
</clipPath>
</defs>
</svg>
