<svg width="39" height="40" viewBox="0 0 39 40" fill="none" xmlns="http://www.w3.org/2000/svg">
<path d="M35.8701 30.1639C37.4056 27.4092 38.2816 24.2366 38.2816 20.859C38.2816 10.2879 29.712 1.71826 19.1408 1.71826C8.56961 1.71826 0 10.2879 0 20.859C0 24.2366 0.876016 27.4092 2.41148 30.1639H35.8701Z" fill="#FF4155"/>
<path d="M24.93 24.6104C24.9304 24.6101 24.9306 24.6098 24.9306 24.6098C24.8845 24.5969 24.8375 24.585 24.7909 24.5726C24.7754 24.5686 24.7601 24.5641 24.7446 24.5601L24.7443 24.5603C24.5871 24.519 24.429 24.479 24.269 24.4421C23.4759 23.649 23.2748 22.1453 23.2386 21.0933C22.8247 21.5754 22.3904 21.9787 21.9753 22.3009C21.1665 22.929 20.1686 23.2701 19.1408 23.2701C18.113 23.2701 17.115 22.929 16.3064 22.3009C15.8913 21.9787 15.4568 21.5753 15.0429 21.0933C15.0067 22.1453 14.8057 23.649 14.0125 24.4421C13.8503 24.4795 13.69 24.5201 13.5305 24.562C13.5305 24.562 13.5304 24.5619 13.5302 24.5618C13.5154 24.5656 13.5008 24.5698 13.4861 24.5737C13.4389 24.5862 13.3914 24.5983 13.3443 24.6112C13.3443 24.6112 13.345 24.6117 13.3452 24.6119C12.6143 24.8121 11.909 25.0569 11.2197 25.3458V27.2103C12.5046 28.9666 14.2239 30.0616 15.2079 30.4752C15.6502 30.6611 16.1216 30.7553 16.6092 30.7553H17.9907L18.3286 30.8725H19.9529L20.2907 30.7553H21.6723C22.1598 30.7553 22.6312 30.661 23.0735 30.4752C24.052 30.0639 25.7575 28.979 27.04 27.24V25.3369C26.3557 25.0513 25.6555 24.8089 24.93 24.6104Z" fill="#FFAA7B"/>
<path d="M16.3066 22.301C15.8915 21.9787 15.457 21.5754 15.0431 21.0933C15.0069 22.1453 14.8059 23.649 14.0127 24.4421C13.8505 24.4795 13.6902 24.5201 13.5308 24.5621C13.5308 24.5621 13.5306 24.5619 13.5305 24.5619C13.5157 24.5658 13.5011 24.5699 13.4863 24.5739C13.4391 24.5864 13.3916 24.5984 13.3446 24.6113C13.3446 24.6113 13.3452 24.6119 13.3455 24.6121C13.0603 24.6902 12.78 24.7772 12.502 24.8689C13.2763 26.7179 14.9018 29.902 16.6215 29.0201C19.0081 27.7961 19.141 23.2701 19.141 23.2701C18.1132 23.2701 17.1152 22.929 16.3066 22.301Z" fill="#FC9460"/>
<path d="M26.0067 28.3662C24.9429 29.3493 23.805 29.9336 23.0734 30.2411C22.6311 30.4269 22.1597 30.5211 21.6722 30.5211H20.2907L19.9528 30.6383C19.3714 30.6383 18.91 30.6383 18.3286 30.6383L17.9907 30.5211H16.6091C16.1216 30.5211 15.6502 30.4268 15.2079 30.2411C15.0506 30.175 14.8737 30.0952 14.6836 30.0023V35.8167C14.6836 35.8167 13.1936 37.2884 14.291 39.3792C15.84 39.7837 17.4649 40.0002 19.1407 40.0002C23.7895 40.0002 28.0508 38.3424 31.3669 35.5863C31.3669 35.4907 31.3669 35.396 31.3669 35.3033C31.3669 32.3928 27.8786 29.6361 26.0067 28.3662Z" fill="#FFC839"/>
<path d="M14.8398 35.8162V30.0767C14.1263 29.7426 13.1775 29.1987 12.2799 28.3706C10.4119 29.6372 6.92188 32.3925 6.92188 35.3018V35.5922C9.08758 37.3904 11.6562 38.7199 14.4721 39.4258C13.3272 37.3101 14.8398 35.8162 14.8398 35.8162Z" fill="#FFB332"/>
<path d="M35.87 30.1639C35.8533 30.1317 35.837 30.0989 35.8201 30.0671C35.195 28.8913 34.1453 27.9979 32.8928 27.5456L27.5936 25.6318C27.6912 25.8286 27.7576 26.1198 27.5688 26.4405C27.0748 27.2798 26.4689 27.9615 25.8462 28.5106C27.5963 29.6771 31.1416 32.3946 31.1416 35.2682V35.7695C33.0553 34.2273 34.6657 32.3246 35.87 30.1639Z" fill="#FFDD40"/>
<path d="M10.7128 26.4405C10.524 26.1198 10.5904 25.8286 10.6879 25.6318L5.38881 27.5456C4.13639 27.9979 3.08662 28.8913 2.46154 30.0671C2.44459 30.0989 2.42826 30.1317 2.41162 30.1639C3.61592 32.3245 5.22631 34.2273 7.14006 35.7695C7.14006 35.5982 7.14006 35.4305 7.14006 35.2682C7.14006 32.3946 10.6852 29.6771 12.4354 28.5106C11.8126 27.9615 11.2069 27.2798 10.7128 26.4405Z" fill="#FFC839"/>
<path d="M28.1365 22.9087C27.5575 21.5578 25.6796 20.7682 23.2073 19.9404L23.0377 21.2943C23.0377 21.2943 24.598 27.4511 19.9531 30.6382H22.2123C22.8452 30.6382 23.471 30.5051 24.0475 30.2439C24.7722 29.9155 25.7884 29.3817 26.6942 28.6414C28.3872 27.2579 28.9978 24.9184 28.1365 22.9087Z" fill="#FEE77F"/>
<path d="M15.4207 26.6622C14.5603 26.4408 12.3543 26.152 11.7666 28.7836C12.625 29.4502 13.5569 29.9367 14.2342 30.2436C14.8106 30.5049 15.4364 30.6379 16.0693 30.6379H18.3285C16.7293 29.5405 15.8657 28.0911 15.4207 26.6622Z" fill="#FEE77F"/>
<path d="M15.244 21.2943L15.0744 19.9404C12.6021 20.7682 10.7242 21.5577 10.1452 22.9087C9.28389 24.9184 9.89452 27.2579 11.5876 28.6414C11.689 28.7243 11.7919 28.8041 11.8955 28.8818C12.4822 25.7404 15.5065 26.9222 15.5065 26.9222L15.5065 26.9217C14.5305 24.112 15.244 21.2943 15.244 21.2943Z" fill="#FFDD40"/>
<path d="M14.8399 35.8167C14.4733 35.8167 14.1733 35.5167 14.1733 35.1501V29.6749C14.1733 29.3082 14.4733 29.0083 14.8399 29.0083C15.2065 29.0083 15.5065 29.3082 15.5065 29.6749V35.1501C15.5065 35.5167 15.2065 35.8167 14.8399 35.8167Z" fill="#DEEEFF"/>
<path d="M23.42 35.8167C23.0533 35.8167 22.7534 35.5167 22.7534 35.1501V29.6749C22.7534 29.3082 23.0533 29.0083 23.42 29.0083C23.7866 29.0083 24.0865 29.3082 24.0865 29.6749V35.1501C24.0865 35.5167 23.7866 35.8167 23.42 35.8167Z" fill="#DEEEFF"/>
<path d="M31.2971 6.07373C29.9087 7.02256 28.858 8.47545 29.2239 10.6597C30.1825 16.3826 25.767 19.3022 32.6679 22.3705C35.1214 23.4615 36.6667 24.7377 37.629 25.8289C38.0543 24.244 38.2816 22.5781 38.2816 20.859C38.2816 14.904 35.5619 9.58428 31.2971 6.07373Z" fill="#FF7186"/>
<path d="M6.98453 6.07373C8.37289 7.02256 9.42359 8.47545 9.05773 10.6597C8.09914 16.3826 12.5146 19.3022 5.61375 22.3705C3.16023 23.4615 1.61492 24.7377 0.652656 25.8289C0.227344 24.244 0 22.5781 0 20.859C0 14.904 2.71969 9.58428 6.98453 6.07373Z" fill="#FF7186"/>
<path d="M26.5965 12.3501C27.1046 10.278 27.5196 7.17318 26.4209 4.58974C24.2965 -0.405885 18.5147 -0.0979166 16.9825 0.0780209C16.8216 0.0964584 16.7409 0.279974 16.8324 0.41349C17.7509 1.75427 14.1527 0.539505 12.1969 4.64185C10.9574 7.24177 11.2689 10.3029 11.722 12.3502H26.5965V12.3501Z" fill="#945230"/>
<path d="M19.0569 5.50405C19.0569 5.50405 18.4809 4.17951 19.9394 3.08576C21.396 1.99342 19.2247 0.0308428 19.2191 0.0257646C18.2421 -0.0361104 17.4305 0.0263896 16.9825 0.077874C16.8216 0.0963897 16.7409 0.279827 16.8324 0.413343C17.7509 1.75412 14.1527 0.539359 12.1969 4.6417C10.9574 7.2417 11.2689 10.3028 11.722 12.3501H15.1221L16.2021 11.921L19.0569 5.50405Z" fill="#753616"/>
<path d="M26.8949 12.0874C26.5744 11.7936 25.8578 11.9425 25.5817 12.1224C25.6421 12.499 25.6456 12.8843 25.5934 13.2648L25.2676 15.6376C25.2676 15.8288 25.2616 16.0165 25.2505 16.2009C26.0449 16.4405 26.5177 15.7273 26.5842 15.2378C26.6128 15.0271 26.6596 14.8195 26.7245 14.6168C26.9357 13.957 27.6981 12.8234 26.8949 12.0874Z" fill="#FFAA7B"/>
<path d="M11.3866 12.0874C11.7071 11.7936 12.4238 11.9425 12.6999 12.1224C12.6394 12.499 12.6359 12.8843 12.6882 13.2648L13.014 15.6376C13.014 15.8288 13.02 16.0165 13.0311 16.2009C12.2366 16.4405 11.7639 15.7273 11.6974 15.2378C11.6688 15.0271 11.622 14.8195 11.5571 14.6168C11.3458 13.957 10.5834 12.8234 11.3866 12.0874Z" fill="#FC9460"/>
<path d="M25.1819 10.8219C24.8209 10.2556 24.9405 9.79297 24.9464 9.25133C24.9464 9.25133 25.2509 6.75782 22.1799 5.87243C21.2908 5.6161 20.0362 5.46282 18.7507 5.51211C17.8561 6.14282 17.2669 7.06829 17.2669 8.37969C17.2669 8.98243 17.3969 9.45344 17.0269 10.0645C16.6281 10.7235 16.396 11.6741 16.5278 12.685L16.8597 15.231C16.8597 18.8913 18.7151 21.3792 20.2933 22.6698C20.5178 22.8534 20.7574 23.0123 21.0073 23.1488C21.3505 22.9977 21.676 22.8048 21.9754 22.5723C23.5247 21.3691 25.346 19.05 25.346 15.6381L25.6718 13.2652C25.8003 12.3303 25.5775 11.4425 25.1819 10.8219Z" fill="#FFC7AB"/>
<path d="M20.309 22.5204C18.7597 21.2534 16.9383 18.811 16.9383 15.2177L16.6124 12.7182C16.4831 11.7259 16.7109 10.7927 17.1024 10.1457C17.4655 9.54578 17.338 9.08344 17.338 8.49164C17.338 7.07969 18.0324 6.12219 19.0567 5.50391C16.3273 5.54164 13.3352 6.4668 13.3352 9.25094C13.3352 9.81281 13.4628 10.2519 13.0996 10.8216C12.7081 11.4359 12.4803 12.322 12.6096 13.2643L12.9355 15.6377C12.9355 19.0497 14.7568 21.3688 16.3062 22.5719C17.1149 23.1998 18.1128 23.5409 19.1406 23.5409C19.8478 23.5409 20.5406 23.3795 21.1675 23.0743C20.8646 22.9238 20.5763 22.739 20.309 22.5204Z" fill="#FFAA7B"/>
<path d="M23.5271 18.3863C23.346 17.306 22.5665 16.2243 21.5259 15.9883L19.9353 15.521C19.6589 15.4398 19.3821 15.5816 19.2707 15.8224C19.2504 15.8664 19.1889 15.8664 19.1685 15.8224C19.0571 15.5816 18.7803 15.4398 18.5039 15.521L16.9133 15.9883C16.8739 15.9973 16.8349 16.0077 16.7963 16.0191H16.8111C16.6426 16.4155 16.3514 17.3999 17.1804 18.152C17.4482 18.0154 17.7346 17.9108 18.0352 17.8444L18.3192 17.7816C18.7333 17.6902 19.0535 17.286 19.171 16.8553C19.1844 16.8059 19.2547 16.8059 19.2682 16.8553C19.3857 17.286 19.7058 17.6902 20.1199 17.7816L20.4041 17.8444C21.2207 18.0246 21.9361 18.4816 22.4422 19.1202C22.3374 19.586 22.0089 20.2938 20.9908 20.6536C20.3077 20.8949 19.5622 20.4653 19.4747 19.7542C19.4736 19.745 19.4725 19.7358 19.4715 19.7264C19.4571 19.5938 19.3461 19.4919 19.211 19.4919C19.0759 19.4919 18.9648 19.5938 18.9504 19.7264C18.9494 19.7358 18.9483 19.745 18.9472 19.7542C18.9002 20.1365 18.6622 20.436 18.3468 20.5952C18.2592 20.9427 18.1428 21.6919 18.5056 22.4194C18.7679 22.9456 19.2285 23.3527 19.8771 23.635C20.2057 23.5687 20.5277 23.4593 20.8331 23.3038C22.4249 22.4934 24.5412 21.0855 25.2182 17.4633C25.2738 17.1655 25.3021 16.8627 25.3021 16.5596C25.0443 17.1956 24.5087 17.9606 23.5271 18.3863Z" fill="#945230"/>
<path d="M17.4371 23.3027C18.2589 23.7215 19.1984 23.8162 20.0743 23.5894C17.9339 22.7597 18.3763 20.8909 18.4928 20.5076C18.1993 20.7152 17.8061 20.7859 17.431 20.6534C16.4911 20.3212 16.0868 19.6923 15.9129 19.2311C16.2696 18.7431 16.7448 18.3523 17.2939 18.0961C16.3913 17.3156 16.8196 16.258 16.9589 15.9746L16.9132 15.988C15.852 16.2287 15.0619 17.3487 14.9014 18.45C13.8157 18.0406 13.2505 17.2284 12.9795 16.5594V16.5597C12.9795 16.8623 13.0077 17.1647 13.0632 17.4621C13.7389 21.0836 15.8451 22.4914 17.4371 23.3027Z" fill="#753616"/>
</svg>
