<svg width="21" height="20" viewBox="0 0 21 20" fill="none" xmlns="http://www.w3.org/2000/svg">
<path d="M19.3078 20H13.9005C13.2728 19.9992 12.7642 19.4905 12.7635 18.8628V13.1277C12.7682 12.1085 11.9458 11.2785 10.9267 11.2738C9.90756 11.269 9.07752 12.0914 9.0728 13.1105C9.07276 13.1162 9.07276 13.1219 9.0728 13.1277V18.8628C9.0721 19.4905 8.56339 19.9992 7.93565 20H2.48601C2.10543 20 1.79688 19.6915 1.79688 19.3109V7.16939C1.79688 6.9556 1.89609 6.75396 2.06543 6.62349L10.4763 0.143232C10.7242 -0.047744 11.0696 -0.047744 11.3175 0.143232L19.7284 6.62349C19.8977 6.75396 19.9969 6.95564 19.9969 7.16939V19.3109C19.9969 19.6914 19.6884 20 19.3078 20ZM14.1416 18.6217H18.6187V7.50841L10.8969 1.55909L3.17511 7.50841V18.6217H7.6944V13.1277C7.68819 11.3473 9.12643 9.89903 10.9067 9.89282C12.6871 9.88661 14.1354 11.3249 14.1416 13.1052C14.1416 13.1127 14.1416 13.1202 14.1416 13.1276V18.6217Z" fill="#A6A6A6"/>
</svg>
