<svg width="12" height="16" viewBox="0 0 12 16" fill="none" xmlns="http://www.w3.org/2000/svg">
<path d="M11.0011 6.62689H10.3565H10.3563V4.35658C10.3563 1.95439 8.40199 0 5.99974 0C3.59762 0 1.64323 1.95439 1.64323 4.35661V6.62692H0.998535C0.4889 6.62692 0.0756836 7.04007 0.0756836 7.54974V8.11113V14.5158V15.0772C0.0756836 15.5869 0.488867 16 0.998535 16H5.99977H11.0011C11.5107 16 11.9239 15.5869 11.9239 15.0772V14.5158V8.11113V7.54974C11.9239 7.04004 11.5107 6.62689 11.0011 6.62689ZM6.98203 13.2372H5.01755L5.36914 11.5619C5.04033 11.3526 4.8207 10.9873 4.8207 10.5687C4.8207 9.91751 5.34863 9.38965 5.99977 9.38965C6.65094 9.38965 7.17878 9.91751 7.17878 10.5687C7.17878 10.9873 6.95921 11.3526 6.63044 11.5618L6.98203 13.2372ZM8.80186 6.62689H5.99977H3.19785H3.19769V4.35658C3.19769 2.81136 4.45462 1.55446 5.99977 1.55446C7.54499 1.55446 8.80186 2.81139 8.80186 4.35658V6.62689Z" fill="#797979"/>
</svg>
