<svg width="17" height="16" viewBox="0 0 17 16" fill="none" xmlns="http://www.w3.org/2000/svg">
<g clip-path="url(#clip0_103_88708)">
<path d="M6.6768 12.8737C8.10691 12.8737 9.4961 12.3966 10.6243 11.5178L14.8809 15.7743C15.1988 16.0814 15.7055 16.0726 16.0126 15.7547C16.3122 15.4445 16.3122 14.9527 16.0126 14.6426L11.7561 10.3861C13.9367 7.57906 13.4289 3.53579 10.6219 1.35519C7.81486 -0.825419 3.77163 -0.317632 1.59103 2.4894C-0.58958 5.29642 -0.0817924 9.33969 2.72523 11.5203C3.85532 12.3982 5.24576 12.8744 6.6768 12.8737ZM3.25674 3.01843C5.14561 1.12953 8.20807 1.12949 10.097 3.01836C11.9859 4.90724 11.9859 7.9697 10.097 9.8586C8.20817 11.7475 5.14571 11.7475 3.2568 9.85867C3.25677 9.85864 3.25677 9.85864 3.25674 9.8586C1.36786 7.9835 1.35674 4.9322 3.23184 3.04333C3.24013 3.03501 3.24841 3.02672 3.25674 3.01843Z" fill="#CF0000"/>
</g>
<defs>
<clipPath id="clip0_103_88708">
<rect width="16" height="16" fill="white" transform="translate(0.237305)"/>
</clipPath>
</defs>
</svg>
