<svg width="16" height="17" viewBox="0 0 16 17" fill="none" xmlns="http://www.w3.org/2000/svg">
<g clip-path="url(#clip0_103_113137)">
<path d="M14.276 1.29468H12.9875V0.759277C12.9875 0.500402 12.7776 0.290527 12.5188 0.290527C12.2599 0.290527 12.05 0.500402 12.05 0.759277V1.29468H9.975V0.759277C9.975 0.500402 9.76513 0.290527 9.50625 0.290527C9.24738 0.290527 9.0375 0.500402 9.0375 0.759277V1.29468H6.9625V0.759277C6.9625 0.500402 6.75262 0.290527 6.49375 0.290527C6.23488 0.290527 6.025 0.500402 6.025 0.759277V1.29468H3.95V0.759277C3.95 0.500402 3.74013 0.290527 3.48125 0.290527C3.22237 0.290527 3.0125 0.500402 3.0125 0.759277V1.29468H1.72394C0.773375 1.29468 0 2.06803 0 3.01865V14.5666C0 15.5172 0.773375 16.2905 1.72394 16.2905H14.276C15.2266 16.2905 16 15.5172 16 14.5666V3.01865C16 2.06803 15.2266 1.29468 14.276 1.29468ZM1.72394 2.23218H3.0125V2.76762C3.0125 3.0265 3.22237 3.23637 3.48125 3.23637C3.74013 3.23637 3.95 3.0265 3.95 2.76762V2.23218H6.02494V2.76762C6.02494 3.0265 6.23481 3.23637 6.49369 3.23637C6.75256 3.23637 6.96244 3.0265 6.96244 2.76762V2.23218H9.03744V2.76762C9.03744 3.0265 9.24731 3.23637 9.50619 3.23637C9.76506 3.23637 9.97494 3.0265 9.97494 2.76762V2.23218H12.0499V2.76762C12.0499 3.0265 12.2598 3.23637 12.5187 3.23637C12.7776 3.23637 12.9874 3.0265 12.9874 2.76762V2.23218H14.2759C14.7097 2.23218 15.0625 2.585 15.0625 3.01865V4.30718H0.9375V3.01865C0.9375 2.585 1.29031 2.23218 1.72394 2.23218ZM14.276 15.353H1.72394C1.29031 15.353 0.9375 15.0002 0.9375 14.5666V5.24468H15.0625V14.5666C15.0625 15.0002 14.7097 15.353 14.276 15.353Z" fill="white"/>
<path d="M4.73649 6.81763H2.72815C2.46927 6.81763 2.2594 7.0275 2.2594 7.28638V9.29469C2.2594 9.55356 2.46927 9.76344 2.72815 9.76344H4.73652C4.9954 9.76344 5.20527 9.55356 5.20527 9.29469V7.28638C5.20524 7.0275 4.9954 6.81763 4.73649 6.81763ZM4.26774 8.82594H3.19687V7.75513H4.26774V8.82594Z" fill="white"/>
<path d="M13.2719 6.81763H11.2635C11.0047 6.81763 10.7948 7.0275 10.7948 7.28638V9.29469C10.7948 9.55356 11.0047 9.76344 11.2635 9.76344H13.2719C13.5307 9.76344 13.7406 9.55356 13.7406 9.29469V7.28638C13.7406 7.0275 13.5307 6.81763 13.2719 6.81763ZM12.8031 8.82594H11.7323V7.75513H12.8031V8.82594Z" fill="white"/>
<path d="M4.73649 10.8342H2.72815C2.46927 10.8342 2.2594 11.0441 2.2594 11.303V13.3113C2.2594 13.5702 2.46927 13.78 2.72815 13.78H4.73652C4.9954 13.78 5.20527 13.5702 5.20527 13.3113V11.303C5.20524 11.0441 4.9954 10.8342 4.73649 10.8342ZM4.26774 12.8425H3.19687V11.7717H4.26774V12.8425Z" fill="white"/>
<path d="M13.2719 10.8342H11.2635C11.0047 10.8342 10.7948 11.0441 10.7948 11.303V13.3113C10.7948 13.5702 11.0047 13.78 11.2635 13.78H13.2719C13.5307 13.78 13.7406 13.5702 13.7406 13.3113V11.303C13.7406 11.0441 13.5307 10.8342 13.2719 10.8342ZM12.8031 12.8425H11.7323V11.7717H12.8031V12.8425Z" fill="white"/>
<path d="M9.0041 10.8342H6.99573C6.73685 10.8342 6.52698 11.0441 6.52698 11.303V13.3113C6.52698 13.5702 6.73685 13.78 6.99573 13.78H9.0041C9.26298 13.78 9.47285 13.5702 9.47285 13.3113V11.303C9.47285 11.0441 9.26298 10.8342 9.0041 10.8342ZM8.53535 12.8425H7.46448V11.7717H8.53535V12.8425Z" fill="white"/>
<path d="M8.73358 7.24911L7.64502 8.33774L7.26639 7.95911C7.08336 7.77605 6.78655 7.77605 6.60348 7.95911C6.42042 8.14218 6.42042 8.43896 6.60348 8.62202L7.31358 9.33211C7.40148 9.42002 7.5207 9.46943 7.64502 9.46943C7.76936 9.46943 7.88858 9.42002 7.97648 9.33211L9.39651 7.91202C9.57955 7.72896 9.57955 7.43218 9.39651 7.24911C9.21342 7.06605 8.91664 7.06605 8.73358 7.24911Z" fill="white"/>
</g>
<defs>
<clipPath id="clip0_103_113137">
<rect width="16" height="16" fill="white" transform="translate(0 0.290527)"/>
</clipPath>
</defs>
</svg>
