<svg width="10" height="9" viewBox="0 0 10 9" fill="none" xmlns="http://www.w3.org/2000/svg">
<path fill-rule="evenodd" clip-rule="evenodd" d="M9.65474 4.4827C9.65474 4.6305 9.59603 4.77225 9.49152 4.87676C9.38701 4.98127 9.24526 5.03998 9.09746 5.03998H2.64085L5.0338 7.43181C5.08561 7.48363 5.12671 7.54514 5.15475 7.61284C5.18279 7.68053 5.19722 7.75309 5.19722 7.82637C5.19722 7.89964 5.18279 7.9722 5.15475 8.0399C5.12671 8.1076 5.08561 8.16911 5.0338 8.22092C4.98198 8.27273 4.92047 8.31383 4.85277 8.34188C4.78508 8.36992 4.71252 8.38435 4.63924 8.38435C4.56597 8.38435 4.49341 8.36992 4.42571 8.34188C4.35802 8.31383 4.2965 8.27273 4.24469 8.22092L0.901026 4.87725C0.849129 4.82549 0.807954 4.76399 0.77986 4.69629C0.751766 4.62858 0.737305 4.556 0.737305 4.4827C0.737305 4.4094 0.751766 4.33682 0.77986 4.26912C0.807954 4.20141 0.849129 4.13992 0.901026 4.08815L4.24469 0.744484C4.34933 0.639842 4.49126 0.581055 4.63924 0.581055C4.78723 0.581055 4.92915 0.639842 5.0338 0.744484C5.13844 0.849126 5.19722 0.991051 5.19722 1.13904C5.19722 1.28702 5.13844 1.42895 5.0338 1.53359L2.64085 3.92542H9.09746C9.24526 3.92542 9.38701 3.98414 9.49152 4.08865C9.59603 4.19316 9.65474 4.3349 9.65474 4.4827Z" fill="url(#paint0_linear_103_71276)"/>
<defs>
<linearGradient id="paint0_linear_103_71276" x1="5.19602" y1="0.581055" x2="5.19602" y2="8.38435" gradientUnits="userSpaceOnUse">
<stop stop-color="white"/>
<stop offset="1" stop-color="white" stop-opacity="0.5"/>
</linearGradient>
</defs>
</svg>
