<svg width="20" height="20" viewBox="0 0 20 20" fill="none" xmlns="http://www.w3.org/2000/svg">
<path d="M19.56 14.7847L18.2176 13.0523C18.0344 12.8169 17.9358 12.5367 17.935 12.2495V7.27787C17.935 5.41021 17.1079 3.61904 15.6357 2.2984C14.1635 0.977766 12.1668 0.23584 10.0848 0.23584C8.00278 0.23584 6.00605 0.977766 4.53385 2.2984C3.06165 3.61904 2.23458 5.41021 2.23458 7.27787V12.2495C2.23382 12.5367 2.13521 12.8169 1.95197 13.0523L0.609587 14.7847C0.406329 14.9867 0.272669 15.2372 0.224772 15.506C0.176874 15.7747 0.216789 16.0501 0.33969 16.2989C0.462592 16.5477 0.663216 16.7592 0.917301 16.9079C1.17139 17.0566 1.46805 17.1361 1.77142 17.1367H6.23819C6.41836 17.9327 6.89975 18.6483 7.60078 19.1623C8.30181 19.6763 9.17938 19.9571 10.0848 19.9571C10.9902 19.9571 11.8678 19.6763 12.5688 19.1623C13.2698 18.6483 13.7512 17.9327 13.9314 17.1367H18.3982C18.7015 17.1361 18.9982 17.0566 19.2523 16.9079C19.5064 16.7592 19.707 16.5477 19.8299 16.2989C19.9528 16.0501 19.9927 15.7747 19.9448 15.506C19.8969 15.2372 19.7632 14.9867 19.56 14.7847ZM10.0848 18.5451C9.59891 18.5439 9.12534 18.4079 8.72901 18.1557C8.33268 17.9036 8.03299 17.5477 7.87103 17.1367H12.2985C12.1366 17.5477 11.8369 17.9036 11.4406 18.1557C11.0442 18.4079 10.5707 18.5439 10.0848 18.5451ZM1.77142 15.7283C1.8069 15.6988 1.83851 15.6657 1.86562 15.6297L3.23941 13.8551C3.60589 13.3842 3.80311 12.8239 3.80462 12.2495V7.27787C3.80462 5.78374 4.46628 4.35081 5.64404 3.2943C6.8218 2.23779 8.41919 1.64425 10.0848 1.64425C11.7504 1.64425 13.3478 2.23779 14.5255 3.2943C15.7033 4.35081 16.365 5.78374 16.365 7.27787V12.2495C16.3665 12.8239 16.5637 13.3842 16.9302 13.8551L18.304 15.6297C18.3311 15.6657 18.3627 15.6988 18.3982 15.7283H1.77142Z" fill="#FEFAFA"/>
</svg>
