<svg width="362" height="287" viewBox="0 0 362 287" fill="none" xmlns="http://www.w3.org/2000/svg">
<path d="M344.03 87V103.13H330.04V163.62H344.03H347.79H361.78V87H344.03Z" fill="#E48B8B"/>
<path d="M351.26 103.99H345.54V105.56H351.26V103.99Z" fill="black"/>
<path d="M351.26 95.4697H345.54V97.0397H351.26V95.4697Z" fill="black"/>
<path d="M351.26 91.21H345.54V92.78H351.26V91.21Z" fill="black"/>
<path d="M351.26 112.41H345.54V113.98H351.26V112.41Z" fill="black"/>
<path d="M351.26 116.57H345.54V118.14H351.26V116.57Z" fill="black"/>
<path d="M351.26 120.73H345.54V122.3H351.26V120.73Z" fill="black"/>
<path d="M351.26 129.06H345.54V130.63H351.26V129.06Z" fill="black"/>
<path d="M351.26 133.22H345.54V134.79H351.26V133.22Z" fill="black"/>
<path d="M265.29 115.25H247.7V164.76H265.29V115.25Z" fill="#E48B8B"/>
<path d="M299.43 129.78H285.91V164.29H299.43V129.78Z" fill="#FF807D"/>
<path d="M139.26 142.27H120.73V164.08H139.26V142.27Z" fill="#E48B8B"/>
<path d="M124.71 124.08H111.51V164.51H124.71V124.08Z" fill="#E48B8B"/>
<path d="M213.35 139.05H203.93V172.24H213.35V139.05Z" fill="#BF0000"/>
<path d="M226.32 134.75H212.23V172.24H226.32V134.75Z" fill="#E48B8B"/>
<path d="M205.64 149.92H196.22V172.24H205.64V149.92Z" fill="#E48B8B"/>
<path d="M187.27 141.96H176.97V172.24H187.27V141.96Z" fill="#E48B8B"/>
<path d="M200.93 154.73H172.59V172.24H200.93V154.73Z" fill="#E48B8B"/>
<path d="M116.84 146.48H98.2798V164.51H116.84V146.48Z" fill="#E48B8B"/>
<path d="M21.66 123.47V93.8398H0V164.74H16.08H21.66H51.4V139.68L37.74 139.99V123.47H21.66Z" fill="#BF0000"/>
<path d="M78.6801 119.29V105.55H49.8501V164.74H69.9001H78.6801H101.98V119.29H78.6801Z" fill="#BF0000"/>
<path d="M16.1799 135.69H5.18994V137.27H16.1799V135.69Z" fill="black"/>
<path d="M16.1799 139.88H5.18994V141.46H16.1799V139.88Z" fill="black"/>
<path d="M16.1799 148.25H5.18994V149.83H16.1799V148.25Z" fill="black"/>
<path d="M16.1799 152.44H5.18994V154.02H16.1799V152.44Z" fill="black"/>
<path d="M16.1799 97.6396H5.18994V99.2196H16.1799V97.6396Z" fill="#020202"/>
<path d="M16.1799 101.83H5.18994V103.41H16.1799V101.83Z" fill="#020202"/>
<path d="M16.1799 110.2H5.18994V111.78H16.1799V110.2Z" fill="#020202"/>
<path d="M16.1799 114.39H5.18994V115.97H16.1799V114.39Z" fill="#020202"/>
<path d="M16.1799 122.77H5.18994V124.35H16.1799V122.77Z" fill="#020202"/>
<path d="M74.8599 122.26H69.1099V123.84H74.8599V122.26Z" fill="#020202"/>
<path d="M74.8599 113.69H69.1099V115.27H74.8599V113.69Z" fill="#020202"/>
<path d="M74.8599 109.41H69.1099V110.99H74.8599V109.41Z" fill="#020202"/>
<path d="M74.8599 126.52H69.1099V128.1H74.8599V126.52Z" fill="#020202"/>
<path d="M74.8599 134.92H69.1099V136.5H74.8599V134.92Z" fill="#020202"/>
<path d="M74.8599 139.11H69.1099V140.69H74.8599V139.11Z" fill="#020202"/>
<path d="M74.8599 147.48H69.1099V149.06H74.8599V147.48Z" fill="#020202"/>
<path d="M74.8599 151.67H69.1099V153.25H74.8599V151.67Z" fill="#020202"/>
<path d="M60.6299 122.26H54.8799V123.84H60.6299V122.26Z" fill="#020202"/>
<path d="M60.6299 118.11H54.8799V119.69H60.6299V118.11Z" fill="#020202"/>
<path d="M60.6299 109.41H54.8799V110.99H60.6299V109.41Z" fill="#020202"/>
<path d="M60.6299 130.73H54.8799V132.31H60.6299V130.73Z" fill="#020202"/>
<path d="M60.6299 134.92H54.8799V136.5H60.6299V134.92Z" fill="#020202"/>
<path d="M60.6299 143.48H54.8799V145.06H60.6299V143.48Z" fill="#020202"/>
<path d="M60.6299 147.48H54.8799V149.06H60.6299V147.48Z" fill="#020202"/>
<path d="M60.6299 151.67H54.8799V153.25H60.6299V151.67Z" fill="#020202"/>
<path d="M330.04 126.39H315.71V163.48H330.04V126.39Z" fill="#BF0000"/>
<path d="M316.76 119.97H296.8V163.48H316.76V119.97Z" fill="#BF0000"/>
<path d="M351.26 138.64H345.54V140.21H351.26V138.64Z" fill="black"/>
<path d="M351.26 147.06H345.54V148.63H351.26V147.06Z" fill="black"/>
<path d="M351.26 151.22H345.54V152.79H351.26V151.22Z" fill="black"/>
<path d="M351.26 155.38H345.54V156.95H351.26V155.38Z" fill="black"/>
<path d="M34.73 127.97H32.52V131.37H34.73V127.97Z" fill="black"/>
<path d="M34.73 136.17H32.52V139.57H34.73V136.17Z" fill="black"/>
<path d="M25.3999 127.97H23.1899V131.37H25.3999V127.97Z" fill="black"/>
<path d="M25.3999 145.44H23.1899V148.84H25.3999V145.44Z" fill="black"/>
<path d="M30.5098 136.17H28.2998V139.57H30.5098V136.17Z" fill="black"/>
<path d="M342.47 106.55H340.77V109.17H342.47V106.55Z" fill="black"/>
<path d="M342.47 112.85H340.77V115.47H342.47V112.85Z" fill="black"/>
<path d="M335.3 106.55H333.6V109.17H335.3V106.55Z" fill="black"/>
<path d="M335.3 119.97H333.6V122.59H335.3V119.97Z" fill="black"/>
<path d="M339.23 112.85H337.53V115.47H339.23V112.85Z" fill="black"/>
<path d="M320.7 128.37H316.76V129.77H320.7V128.37Z" fill="black"/>
<path d="M327.34 128.37H323.4V129.77H327.34V128.37Z" fill="black"/>
<path d="M327.34 141.92H323.4V143.32H327.34V141.92Z" fill="white"/>
<path d="M320.7 135.58H316.76V136.98H320.7V135.58Z" fill="black"/>
<path d="M327.34 144.98H323.4V146.38H327.34V144.98Z" fill="black"/>
<path d="M327.34 131.57H323.4V132.97H327.34V131.57Z" fill="black"/>
<path d="M320.7 150.3H316.76V151.7H320.7V150.3Z" fill="black"/>
<path d="M320.7 141.92H316.76V143.32H320.7V141.92Z" fill="black"/>
<path d="M361.78 169H0V286.93H361.78V169Z" fill="#554F58"/>
<path d="M361.78 163.37H0V169.37H361.78V163.37Z" fill="#74697A"/>
<path d="M159.59 236.49H25.7598C25.0145 236.471 24.3065 236.16 23.7897 235.622C23.2729 235.085 22.989 234.365 22.9998 233.62C22.9917 232.876 23.2767 232.159 23.7932 231.624C24.3098 231.088 25.0162 230.778 25.7598 230.76H159.59C160.333 230.778 161.04 231.088 161.556 231.624C162.073 232.159 162.358 232.876 162.35 233.62C162.361 234.365 162.077 235.085 161.56 235.622C161.043 236.16 160.335 236.471 159.59 236.49Z" fill="#443F47"/>
<path d="M347.24 207.57H213.42C212.674 207.554 211.964 207.243 211.447 206.705C210.93 206.167 210.647 205.446 210.66 204.7C210.649 203.955 210.934 203.237 211.451 202.701C211.968 202.165 212.676 201.856 213.42 201.84H347.24C347.985 201.856 348.693 202.165 349.21 202.701C349.727 203.237 350.011 203.955 350 204.7C350.014 205.446 349.731 206.167 349.213 206.705C348.696 207.243 347.986 207.554 347.24 207.57Z" fill="#443F47"/>
<path d="M263.89 260.74H130.27C128.691 260.74 127.41 262.021 127.41 263.6V263.61C127.41 265.19 128.691 266.47 130.27 266.47H263.89C265.47 266.47 266.75 265.19 266.75 263.61V263.6C266.75 262.021 265.47 260.74 263.89 260.74Z" fill="#443F47"/>
<path d="M41.2902 270.15H28.5002C28.0219 270.139 27.5672 269.94 27.2355 269.595C26.9039 269.25 26.7222 268.788 26.7302 268.31C26.7222 267.831 26.9039 267.369 27.2355 267.024C27.5672 266.68 28.0219 266.48 28.5002 266.47H41.2902C41.5275 266.474 41.7616 266.524 41.9792 266.619C42.1967 266.714 42.3934 266.851 42.5579 267.022C42.7224 267.193 42.8515 267.394 42.9377 267.616C43.0239 267.837 43.0655 268.073 43.0602 268.31C43.0683 268.788 42.8866 269.25 42.5549 269.595C42.2233 269.94 41.7686 270.139 41.2902 270.15Z" fill="#443F47"/>
<path d="M303.72 216.93H290.93C290.452 216.922 289.996 216.725 289.663 216.382C289.329 216.039 289.145 215.578 289.15 215.1C289.146 214.862 289.189 214.626 289.276 214.405C289.364 214.184 289.494 213.982 289.659 213.811C289.824 213.64 290.022 213.504 290.24 213.409C290.458 213.314 290.692 213.264 290.93 213.26H303.72C304.198 213.27 304.653 213.47 304.985 213.815C305.317 214.159 305.498 214.621 305.49 215.1C305.496 215.576 305.313 216.036 304.981 216.379C304.65 216.721 304.197 216.919 303.72 216.93Z" fill="#443F47"/>
<path d="M63.9398 270.15H51.1498C50.6715 270.139 50.2168 269.94 49.8852 269.595C49.5535 269.25 49.3718 268.788 49.3798 268.31C49.3745 268.073 49.4162 267.837 49.5024 267.616C49.5886 267.394 49.7177 267.193 49.8822 267.022C50.0467 266.851 50.2433 266.714 50.4609 266.619C50.6785 266.524 50.9126 266.474 51.1498 266.47H63.9398C64.4182 266.48 64.8729 266.68 65.2045 267.024C65.5362 267.369 65.7179 267.831 65.7098 268.31C65.7179 268.788 65.5362 269.25 65.2045 269.595C64.8729 269.94 64.4182 270.139 63.9398 270.15Z" fill="#443F47"/>
<path d="M75.0002 270.15H62.1902C61.7119 270.139 61.2572 269.94 60.9255 269.595C60.5938 269.25 60.4121 268.788 60.4202 268.31C60.4121 267.831 60.5938 267.369 60.9255 267.024C61.2572 266.68 61.7119 266.48 62.1902 266.47H75.0002C75.2374 266.474 75.4716 266.524 75.6891 266.619C75.9067 266.714 76.1034 266.851 76.2679 267.022C76.4324 267.193 76.5614 267.394 76.6476 267.616C76.7338 267.837 76.7755 268.073 76.7702 268.31C76.7782 268.788 76.5966 269.25 76.2649 269.595C75.9332 269.94 75.4785 270.139 75.0002 270.15Z" fill="#443F47"/>
<path d="M329.63 257.4H316.84C316.362 257.389 315.907 257.19 315.575 256.845C315.244 256.5 315.062 256.038 315.07 255.56C315.062 255.081 315.244 254.619 315.575 254.274C315.907 253.93 316.362 253.73 316.84 253.72H329.63C330.108 253.73 330.563 253.93 330.895 254.274C331.226 254.619 331.408 255.081 331.4 255.56C331.408 256.038 331.226 256.5 330.895 256.845C330.563 257.19 330.108 257.389 329.63 257.4Z" fill="#443F47"/>
<path d="M340.67 257.4H327.88C327.402 257.389 326.947 257.19 326.615 256.845C326.284 256.5 326.102 256.038 326.11 255.56C326.102 255.081 326.284 254.619 326.615 254.274C326.947 253.93 327.402 253.73 327.88 253.72H340.67C341.149 253.73 341.605 253.929 341.938 254.274C342.272 254.618 342.456 255.08 342.45 255.56C342.456 256.039 342.272 256.501 341.938 256.846C341.605 257.19 341.149 257.389 340.67 257.4Z" fill="#443F47"/>
<path d="M89.82 270.15H86.06C85.5808 270.139 85.1251 269.94 84.7918 269.596C84.4586 269.251 84.2747 268.789 84.28 268.31C84.2761 268.072 84.319 267.836 84.4063 267.615C84.4936 267.394 84.6236 267.192 84.7889 267.021C84.9542 266.85 85.1515 266.714 85.3696 266.619C85.5877 266.524 85.8223 266.474 86.06 266.47H89.82C90.0577 266.474 90.2923 266.524 90.5105 266.619C90.7286 266.714 90.9259 266.85 91.0912 267.021C91.2565 267.192 91.3865 267.394 91.4738 267.615C91.5611 267.836 91.604 268.072 91.6 268.31C91.6054 268.789 91.4215 269.251 91.0882 269.596C90.755 269.94 90.2992 270.139 89.82 270.15Z" fill="#443F47"/>
<path d="M347.17 249.43H343.4C342.922 249.42 342.467 249.22 342.135 248.875C341.804 248.53 341.622 248.068 341.63 247.59C341.622 247.112 341.804 246.65 342.135 246.305C342.467 245.96 342.922 245.761 343.4 245.75H347.17C347.648 245.761 348.103 245.96 348.435 246.305C348.767 246.65 348.948 247.112 348.94 247.59C348.948 248.068 348.767 248.53 348.435 248.875C348.103 249.22 347.648 249.42 347.17 249.43Z" fill="#443F47"/>
<path d="M314.17 216.93H310.41C309.932 216.922 309.476 216.725 309.143 216.382C308.809 216.039 308.625 215.578 308.63 215.1C308.626 214.862 308.669 214.626 308.756 214.405C308.844 214.184 308.974 213.982 309.139 213.811C309.304 213.64 309.502 213.504 309.72 213.409C309.938 213.314 310.172 213.264 310.41 213.26H314.17C314.408 213.264 314.642 213.314 314.861 213.409C315.079 213.504 315.276 213.64 315.441 213.811C315.607 213.982 315.737 214.184 315.824 214.405C315.911 214.626 315.954 214.862 315.95 215.1C315.955 215.578 315.771 216.039 315.438 216.382C315.104 216.725 314.648 216.922 314.17 216.93Z" fill="#443F47"/>
<path d="M297.65 124.16C297.65 124.16 293.74 130.74 290.43 133.91C287.12 137.08 276.37 142.68 276.37 142.68L277.17 147.46C277.17 147.46 290.75 141.78 294.03 139.53C295.03 138.83 301.88 129.28 301.88 129.28L297.65 124.16Z" fill="#C88F76"/>
<path d="M301.83 142.53C301.83 142.53 286.93 142.83 281.98 145.96C277.03 149.09 291.93 156.96 294.76 155.54C297.59 154.12 301.83 142.53 301.83 142.53Z" fill="#4A5993"/>
<path d="M261.12 138.91C267.21 140.17 274.33 148.54 279.96 150.01C285.59 151.48 305.96 159.42 305.96 159.42L329.31 161.5L322.31 183.55H261.74C259.62 178.42 249.74 154.48 248.23 148.71C244.55 134.83 252 137 261.12 138.91Z" fill="#24272B"/>
<path d="M245.78 147.22L255.28 171.85L257.58 173.4L259.12 169.56L248.88 142.2L245.78 147.22Z" fill="#393E42"/>
<path d="M337.92 159.78C342.361 159.78 346.703 161.097 350.396 163.564C354.089 166.031 356.968 169.538 358.668 173.641C360.369 177.743 360.815 182.258 359.95 186.615C359.085 190.971 356.948 194.973 353.809 198.115C350.67 201.257 346.669 203.397 342.314 204.266C337.958 205.135 333.443 204.693 329.339 202.996C325.234 201.299 321.725 198.424 319.255 194.733C316.785 191.042 315.464 186.702 315.46 182.26C315.457 179.309 316.036 176.386 317.164 173.659C318.291 170.932 319.945 168.453 322.031 166.366C324.117 164.278 326.594 162.622 329.32 161.492C332.047 160.362 334.969 159.78 337.92 159.78ZM337.92 193.78C340.203 193.78 342.435 193.103 344.333 191.834C346.231 190.565 347.711 188.762 348.583 186.652C349.456 184.542 349.684 182.221 349.237 179.982C348.79 177.742 347.689 175.686 346.073 174.073C344.457 172.46 342.399 171.363 340.159 170.92C337.919 170.477 335.598 170.708 333.49 171.584C331.382 172.461 329.581 173.943 328.315 175.844C327.049 177.744 326.376 179.977 326.38 182.26C326.385 185.317 327.603 188.248 329.767 190.407C331.931 192.567 334.863 193.78 337.92 193.78Z" fill="#181B20"/>
<path d="M337.92 166.61C341.01 166.612 344.03 167.53 346.599 169.248C349.167 170.966 351.169 173.406 352.351 176.261C353.533 179.116 353.842 182.258 353.24 185.288C352.637 188.319 351.15 191.103 348.965 193.289C346.781 195.475 343.998 196.964 340.968 197.568C337.937 198.173 334.796 197.866 331.94 196.685C329.084 195.505 326.642 193.505 324.923 190.937C323.204 188.37 322.284 185.35 322.28 182.26C322.277 180.205 322.68 178.17 323.465 176.271C324.25 174.371 325.401 172.645 326.854 171.192C328.307 169.738 330.032 168.585 331.931 167.799C333.83 167.013 335.865 166.609 337.92 166.61ZM326.38 182.26C326.377 183.723 326.656 185.173 327.2 186.53L333.07 182.43L327.07 178.26C326.605 179.542 326.371 180.897 326.38 182.26ZM339.91 193.62C342.059 193.242 344.057 192.26 345.67 190.79L339.91 186.79V193.62ZM346.77 189.62C347.141 189.153 347.475 188.659 347.77 188.14L341.87 184.02C341.618 184.576 341.253 185.073 340.8 185.48L346.77 189.62ZM349.45 182.22C349.452 180.761 349.174 179.315 348.63 177.96L342.29 182.38L348.53 186.74C349.132 185.323 349.445 183.8 349.45 182.26V182.22ZM337.92 170.68C337.616 170.682 337.312 170.698 337.01 170.73V177.93C337.308 177.861 337.614 177.827 337.92 177.83C338.222 177.83 338.524 177.86 338.82 177.92V170.73C338.52 170.72 338.22 170.7 337.92 170.7V170.68ZM333.73 180.95C333.908 180.364 334.208 179.823 334.61 179.36L328.73 175.26C328.361 175.743 328.027 176.251 327.73 176.78L333.73 180.95ZM340.37 177.73L345.88 173.88C344.347 172.416 342.441 171.402 340.37 170.95V177.73ZM341.05 179.15C341.487 179.584 341.828 180.105 342.05 180.68L348 176.56C347.705 176.036 347.371 175.534 347 175.06L341.05 179.15ZM330 190.58C331.403 191.923 333.123 192.89 335 193.39V187.06L330 190.58ZM334.83 185.31C334.39 184.878 334.049 184.357 333.83 183.78L327.89 187.92C328.185 188.445 328.519 188.946 328.89 189.42L334.83 185.31ZM329.83 174.09L335.53 178.09V170.98C333.342 171.432 331.333 172.513 329.75 174.09H329.83ZM338.43 193.76V186.59C338.29 186.59 338.15 186.59 338 186.59C337.53 186.588 337.063 186.507 336.62 186.35V193.65C337.078 193.706 337.538 193.736 338 193.74L338.43 193.76Z" fill="#A3B9BC"/>
<path d="M222.75 159.78C227.191 159.78 231.533 161.097 235.226 163.564C238.919 166.031 241.798 169.538 243.498 173.641C245.199 177.743 245.645 182.258 244.78 186.615C243.915 190.971 241.778 194.973 238.639 198.115C235.5 201.257 231.5 203.397 227.144 204.266C222.789 205.135 218.273 204.693 214.169 202.996C210.064 201.299 206.555 198.424 204.085 194.733C201.615 191.042 200.294 186.702 200.29 182.26C200.289 179.309 200.869 176.387 201.997 173.661C203.125 170.934 204.779 168.456 206.864 166.369C208.95 164.281 211.426 162.625 214.152 161.495C216.878 160.364 219.799 159.782 222.75 159.78ZM222.75 193.78C225.033 193.78 227.265 193.103 229.163 191.834C231.062 190.565 232.541 188.762 233.414 186.652C234.286 184.542 234.514 182.221 234.067 179.982C233.62 177.742 232.519 175.686 230.903 174.073C229.287 172.46 227.229 171.363 224.989 170.92C222.749 170.477 220.428 170.708 218.32 171.584C216.212 172.461 214.411 173.943 213.145 175.844C211.88 177.744 211.206 179.977 211.21 182.26C211.215 185.317 212.433 188.248 214.597 190.407C216.761 192.567 219.693 193.78 222.75 193.78Z" fill="#181B20"/>
<path d="M222.75 166.61C225.84 166.612 228.86 167.53 231.429 169.248C233.997 170.966 235.999 173.406 237.181 176.261C238.363 179.116 238.672 182.258 238.07 185.288C237.467 188.319 235.98 191.103 233.795 193.289C231.611 195.475 228.828 196.964 225.798 197.568C222.767 198.173 219.626 197.866 216.77 196.685C213.914 195.505 211.472 193.505 209.753 190.937C208.034 188.37 207.114 185.35 207.11 182.26C207.107 180.205 207.51 178.17 208.295 176.271C209.08 174.371 210.232 172.645 211.684 171.192C213.137 169.738 214.862 168.585 216.761 167.799C218.66 167.013 220.695 166.609 222.75 166.61ZM211.21 182.26C211.212 183.723 211.491 185.171 212.03 186.53L217.9 182.43L211.9 178.26C211.431 179.541 211.197 180.896 211.21 182.26ZM224.74 193.62C226.889 193.242 228.887 192.26 230.5 190.79L224.74 186.79V193.62ZM231.6 189.62C231.971 189.153 232.305 188.659 232.6 188.14L226.71 184.02C226.451 184.574 226.084 185.07 225.63 185.48L231.6 189.62ZM234.29 182.22C234.289 180.76 234.007 179.314 233.46 177.96L227.12 182.38L233.36 186.74C233.969 185.325 234.286 183.801 234.29 182.26V182.22ZM222.75 170.68C222.446 170.682 222.142 170.698 221.84 170.73V177.93C222.138 177.861 222.444 177.827 222.75 177.83C223.052 177.83 223.354 177.86 223.65 177.92V170.73C223.35 170.72 223.05 170.7 222.75 170.7V170.68ZM218.56 180.95C218.738 180.364 219.038 179.823 219.44 179.36L213.56 175.26C213.187 175.74 212.853 176.248 212.56 176.78L218.56 180.95ZM225.2 177.73L230.71 173.88C229.177 172.416 227.271 171.402 225.2 170.95V177.73ZM225.88 179.15C226.314 179.587 226.654 180.108 226.88 180.68L232.81 176.54C232.515 176.016 232.181 175.514 231.81 175.04L225.88 179.15ZM214.78 190.56C216.183 191.903 217.903 192.87 219.78 193.37V187.06L214.78 190.56ZM219.61 185.29C219.17 184.859 218.829 184.337 218.61 183.76L212.67 187.9C212.962 188.427 213.296 188.929 213.67 189.4L219.61 185.29ZM214.61 174.07L220.31 178.07V170.96C218.137 171.427 216.147 172.514 214.58 174.09L214.61 174.07ZM223.21 193.74V186.57C223.07 186.57 222.93 186.57 222.78 186.57C222.31 186.568 221.843 186.487 221.4 186.33V193.63C221.858 193.686 222.319 193.716 222.78 193.72L223.21 193.74Z" fill="#A3B9BC"/>
<path d="M247.08 174.45C247.08 174.45 243.49 165.07 235.08 161C224.08 155.65 217.13 158.89 217.13 158.89C217.13 158.89 217.59 162.15 225.34 163.35C232.88 164.52 235.25 167.35 241.26 173.2C242.69 174.56 247.08 174.45 247.08 174.45Z" fill="#768F91"/>
<path d="M243.58 129.02C248.65 129.33 250.24 134.71 250.24 134.71C250.24 134.71 250.8 141.29 243.69 141.29H243.58V129.02Z" fill="#393E42"/>
<path d="M242.51 129.02C242.51 129.02 237.25 129.95 237.25 135.16C237.25 140.37 242.61 141.29 242.61 141.29L242.51 129.02Z" fill="#CE677B"/>
<path d="M243.15 142.77C242.848 142.768 242.56 142.647 242.347 142.433C242.133 142.22 242.012 141.932 242.01 141.63V128.63C242.01 128.328 242.13 128.038 242.344 127.824C242.557 127.61 242.847 127.49 243.15 127.49C243.452 127.49 243.742 127.61 243.956 127.824C244.17 128.038 244.29 128.328 244.29 128.63V141.63C244.287 141.932 244.166 142.22 243.953 142.433C243.74 142.647 243.451 142.768 243.15 142.77Z" fill="#768F91"/>
<path d="M264.42 189.14H297.4C298.355 189.14 299.13 188.365 299.13 187.41V179.19C299.13 178.234 298.355 177.46 297.4 177.46H264.42C263.464 177.46 262.69 178.234 262.69 179.19V187.41C262.69 188.365 263.464 189.14 264.42 189.14Z" fill="#393E42"/>
<path d="M275.19 182.62C275.188 183.188 275.355 183.745 275.669 184.218C275.984 184.692 276.432 185.061 276.957 185.279C277.482 185.498 278.06 185.556 278.617 185.445C279.175 185.335 279.687 185.061 280.089 184.659C280.491 184.257 280.765 183.745 280.875 183.187C280.986 182.63 280.928 182.052 280.71 181.527C280.491 181.002 280.122 180.554 279.648 180.239C279.175 179.925 278.618 179.758 278.05 179.76C277.291 179.76 276.564 180.061 276.028 180.597C275.491 181.134 275.19 181.861 275.19 182.62Z" fill="#768F91"/>
<path d="M263.51 178.91C263.508 179.668 263.731 180.41 264.151 181.041C264.571 181.673 265.169 182.165 265.869 182.456C266.57 182.748 267.341 182.824 268.085 182.677C268.828 182.529 269.512 182.164 270.048 181.628C270.584 181.092 270.949 180.408 271.097 179.665C271.244 178.921 271.167 178.15 270.876 177.45C270.585 176.749 270.093 176.151 269.461 175.731C268.83 175.311 268.088 175.088 267.33 175.09C266.317 175.09 265.345 175.492 264.629 176.209C263.912 176.925 263.51 177.897 263.51 178.91Z" fill="#181B20"/>
<path d="M325 161.49C322.785 163.007 320.799 164.832 319.1 166.91L316.88 164.53C316.88 164.53 320.55 157.1 333.4 154.28C346.25 151.46 354.7 157.62 354.7 157.62C354.34 158.331 353.904 159.002 353.4 159.62C349.907 158.044 346.155 157.118 342.33 156.89C335.9 156.7 331.32 157.08 325 161.49Z" fill="#E2718C"/>
<path d="M336.2 162.78C330.685 163.479 325.459 165.648 321.07 169.06L319.07 166.91C320.769 164.832 322.755 163.007 324.97 161.49C331.31 157.08 335.89 156.7 342.3 156.9C346.125 157.129 349.877 158.054 353.37 159.63C349.82 163.97 344.62 161.61 336.2 162.78Z" fill="#CE677B"/>
<path d="M302.94 155.15C298.04 154.42 296.4 160.75 304.07 162.55C308.653 163.292 313.3 163.577 317.94 163.4C323.34 162.92 330.15 156.72 330.94 155.15C331.73 153.58 329.08 148.61 325 151.4C320.92 154.19 323 158.13 302.94 155.15Z" fill="#181B20"/>
<path d="M321.628 166.869L337.043 183.204C337.468 183.654 338.177 183.674 338.627 183.25L339.674 182.262C340.124 181.837 340.144 181.128 339.72 180.678L324.305 164.343C323.88 163.893 323.171 163.873 322.722 164.297L321.674 165.286C321.224 165.71 321.204 166.419 321.628 166.869Z" fill="#768F91"/>
<path d="M319.5 166.17C319.498 166.935 319.723 167.685 320.147 168.322C320.571 168.96 321.175 169.458 321.882 169.752C322.589 170.047 323.368 170.125 324.119 169.976C324.87 169.828 325.561 169.46 326.103 168.92C326.645 168.379 327.015 167.689 327.165 166.938C327.315 166.187 327.239 165.409 326.946 164.701C326.654 163.993 326.158 163.388 325.521 162.962C324.884 162.537 324.136 162.31 323.37 162.31C322.345 162.31 321.363 162.716 320.637 163.44C319.912 164.163 319.503 165.145 319.5 166.17Z" fill="#24272B"/>
<path d="M315 164.26C305.19 164.43 299.18 163.86 297 165.74C293 169.19 296.6 178.89 302.86 178.93C309.54 178.93 316.99 175.42 320.65 172.27C325.53 168 323.57 164.09 315 164.26Z" fill="#393E42"/>
<path d="M253.71 128.06C253.845 127.806 254.03 127.582 254.255 127.402C254.48 127.223 254.74 127.091 255.017 127.016C255.295 126.941 255.586 126.924 255.87 126.966C256.155 127.007 256.428 127.107 256.673 127.259C256.918 127.411 257.128 127.611 257.292 127.848C257.456 128.085 257.569 128.353 257.625 128.635C257.681 128.917 257.679 129.208 257.617 129.49C257.556 129.771 257.438 130.037 257.27 130.27L237.51 162.16L234.01 159.86L253.71 128.06Z" fill="#768F91"/>
<path d="M221.36 184.26C220.861 183.95 220.505 183.456 220.37 182.884C220.235 182.312 220.332 181.71 220.64 181.21L233.82 159.91L237.51 162.34L224.4 183.54C224.09 184.037 223.597 184.391 223.028 184.525C222.459 184.66 221.859 184.565 221.36 184.26Z" fill="#24272B"/>
<path d="M252.45 128.01C252.45 128.85 252.699 129.672 253.166 130.371C253.633 131.07 254.297 131.615 255.074 131.936C255.85 132.258 256.705 132.342 257.529 132.178C258.354 132.014 259.111 131.609 259.705 131.015C260.3 130.421 260.705 129.663 260.869 128.839C261.033 128.014 260.948 127.16 260.627 126.383C260.305 125.607 259.76 124.943 259.061 124.476C258.362 124.009 257.541 123.76 256.7 123.76C255.573 123.76 254.492 124.208 253.695 125.005C252.898 125.802 252.45 126.883 252.45 128.01Z" fill="#24272B"/>
<path d="M256.76 130.36H268.15C268.772 130.357 269.369 130.109 269.809 129.669C270.249 129.229 270.497 128.632 270.5 128.01C270.497 127.388 270.249 126.793 269.808 126.355C269.368 125.916 268.771 125.67 268.15 125.67H256.76C256.139 125.67 255.544 125.916 255.105 126.355C254.666 126.794 254.42 127.389 254.42 128.01C254.42 128.631 254.666 129.228 255.105 129.668C255.543 130.109 256.138 130.357 256.76 130.36Z" fill="#393E42"/>
<path d="M239.845 148.17L245.86 151.808C246.338 152.097 246.959 151.944 247.247 151.467L249.017 148.541C249.306 148.063 249.153 147.442 248.676 147.154L242.661 143.515C242.184 143.226 241.563 143.379 241.274 143.857L239.504 146.783C239.215 147.26 239.368 147.881 239.845 148.17Z" fill="#181B20"/>
<path d="M232.535 160.788L237.087 163.541C237.46 163.767 237.946 163.648 238.172 163.274L239.538 161.015C239.764 160.642 239.644 160.156 239.271 159.931L234.719 157.177C234.346 156.951 233.86 157.071 233.634 157.444L232.268 159.703C232.042 160.076 232.161 160.562 232.535 160.788Z" fill="#181B20"/>
<path d="M257 136.71C257 136.71 258.8 130.71 268 134C277.2 137.29 283.77 142.1 288.79 145.2C290.22 146.08 292.45 147.2 291.95 151.13C291.15 157.41 270.23 153.13 263.05 152.21C259 151.71 255.36 149.4 257 136.71Z" fill="#CE677B"/>
<path d="M266.23 136.34C269.23 137.47 277.15 141.1 279.85 143.34C282.55 145.58 282.31 149.4 277.33 149.41C272.35 149.42 264.58 149.19 262.33 147.16C260.08 145.13 260.22 141.63 260.21 140.16C260.21 136.96 261.56 134.59 266.23 136.34Z" fill="#E2718C"/>
<path d="M277.23 170.74C277.248 170.578 277.299 170.421 277.38 170.28L277.46 170.2L282.82 160.62L280.82 159.5L282.71 156.12C283.598 155.867 284.53 155.805 285.444 155.939C286.358 156.074 287.233 156.401 288.01 156.9L288.16 157.01L288.33 157.08C289.161 157.483 289.896 158.057 290.487 158.766C291.079 159.475 291.513 160.301 291.76 161.19L289.87 164.57L288.18 163.63L282.79 173.26C282.78 173.318 282.763 173.375 282.74 173.43C282.664 173.562 282.562 173.678 282.44 173.771C282.319 173.864 282.18 173.931 282.033 173.97C281.885 174.009 281.731 174.019 281.579 173.998C281.428 173.978 281.282 173.927 281.15 173.85L277.8 171.85C277.66 171.771 277.539 171.661 277.446 171.53C277.352 171.399 277.289 171.248 277.26 171.09C277.232 170.976 277.222 170.857 277.23 170.74ZM279.65 170.27L281.59 171.4L286.48 162.67L284.48 161.58L279.65 170.27Z" fill="#768F91"/>
<path d="M260.81 157.08L260.98 157.01L261.13 156.9C261.906 156.401 262.779 156.074 263.691 155.94C264.603 155.805 265.534 155.866 266.42 156.12L268.32 159.5L266.32 160.62L271.68 170.2C271.68 170.2 271.74 170.25 271.76 170.28C271.838 170.422 271.886 170.578 271.9 170.74C271.925 170.862 271.925 170.988 271.9 171.11C271.868 171.267 271.803 171.416 271.71 171.546C271.617 171.677 271.498 171.787 271.36 171.87L268.01 173.87C267.878 173.947 267.732 173.997 267.581 174.018C267.43 174.039 267.276 174.029 267.128 173.99C266.98 173.951 266.842 173.883 266.72 173.791C266.599 173.698 266.497 173.582 266.42 173.45C266.394 173.395 266.374 173.338 266.36 173.28L261 163.63L259.32 164.57L257.43 161.19C257.67 160.304 258.095 159.48 258.678 158.771C259.261 158.062 259.988 157.486 260.81 157.08ZM267.55 171.4L269.48 170.27L264.61 161.58L262.66 162.67L267.55 171.4Z" fill="#768F91"/>
<path d="M267.62 163.84C267.618 165.215 268.024 166.56 268.787 167.704C269.549 168.849 270.634 169.741 271.904 170.268C273.173 170.796 274.571 170.935 275.92 170.668C277.269 170.401 278.508 169.74 279.481 168.768C280.454 167.797 281.117 166.558 281.386 165.21C281.655 163.861 281.518 162.464 280.992 161.193C280.466 159.923 279.576 158.836 278.432 158.072C277.289 157.308 275.945 156.9 274.57 156.9C272.729 156.9 270.962 157.631 269.659 158.932C268.356 160.234 267.623 161.999 267.62 163.84Z" fill="#181B20"/>
<path d="M272.86 163.84C272.842 164.075 272.873 164.311 272.95 164.533C273.028 164.756 273.15 164.96 273.31 165.133C273.471 165.306 273.665 165.443 273.881 165.538C274.096 165.632 274.329 165.681 274.565 165.681C274.801 165.681 275.034 165.632 275.249 165.538C275.465 165.443 275.659 165.306 275.819 165.133C275.98 164.96 276.102 164.756 276.18 164.533C276.257 164.311 276.288 164.075 276.27 163.84C276.237 163.41 276.043 163.009 275.727 162.716C275.411 162.423 274.996 162.261 274.565 162.261C274.134 162.261 273.719 162.423 273.403 162.716C273.087 163.009 272.893 163.41 272.86 163.84Z" fill="#768F91"/>
<path d="M281.08 193.44H305.79C306.654 193.437 307.481 193.093 308.092 192.482C308.703 191.871 309.047 191.044 309.05 190.18C309.05 189.315 308.706 188.486 308.095 187.875C307.484 187.263 306.654 186.92 305.79 186.92H281.08C280.216 186.923 279.388 187.267 278.778 187.878C278.167 188.488 277.822 189.316 277.82 190.18C277.822 191.044 278.167 191.871 278.778 192.482C279.388 193.093 280.216 193.437 281.08 193.44Z" fill="#181B20"/>
<path d="M259.35 164.45C259.85 163.91 261 162.86 262.02 163.67C263.04 164.48 262.22 166.05 261.73 166.61C261.68 166.61 257.13 171.26 262.73 182.89L263.04 183.55C264.61 186.89 265.4 188.55 272.5 188.55H275C275.181 188.302 275.408 188.091 275.67 187.93C276.009 187.74 276.391 187.64 276.78 187.64H299C299.594 187.64 300.164 187.876 300.584 188.296C301.004 188.716 301.24 189.286 301.24 189.88V189.98C301.246 190.278 301.192 190.573 301.081 190.85C300.971 191.126 300.807 191.378 300.598 191.59C300.39 191.802 300.141 191.971 299.867 192.086C299.592 192.201 299.298 192.26 299 192.26H277C276.599 192.263 276.205 192.156 275.86 191.95L275.72 191.87C275.489 191.728 275.286 191.545 275.12 191.33H272.52C264.12 191.33 262.52 188.83 260.6 184.76L260.29 184.11C253.8 170.61 259.12 164.7 259.35 164.45Z" fill="#768F91"/>
<path d="M303.78 190.06C303.826 190.48 303.993 190.878 304.261 191.205C304.528 191.533 304.885 191.776 305.287 191.905C305.69 192.034 306.121 192.044 306.529 191.934C306.937 191.823 307.305 191.597 307.587 191.282C307.869 190.968 308.055 190.578 308.12 190.16C308.186 189.743 308.129 189.315 307.957 188.929C307.785 188.543 307.505 188.214 307.151 187.984C306.796 187.753 306.383 187.63 305.96 187.63C305.35 187.666 304.779 187.942 304.37 188.397C303.962 188.852 303.75 189.449 303.78 190.06Z" fill="#24272B"/>
<path d="M295 191.59C294.896 191.587 294.796 191.544 294.723 191.469C294.651 191.395 294.61 191.294 294.61 191.19V188.57C294.61 188.466 294.651 188.365 294.723 188.291C294.796 188.216 294.896 188.173 295 188.17C295.106 188.17 295.208 188.212 295.283 188.287C295.358 188.362 295.4 188.464 295.4 188.57V191.19C295.4 191.296 295.358 191.398 295.283 191.473C295.208 191.548 295.106 191.59 295 191.59Z" fill="#24272B"/>
<path d="M293 191.59C292.894 191.59 292.792 191.548 292.717 191.473C292.642 191.398 292.6 191.296 292.6 191.19V188.57C292.6 188.464 292.642 188.362 292.717 188.287C292.792 188.212 292.894 188.17 293 188.17C293.106 188.17 293.208 188.212 293.283 188.287C293.358 188.362 293.4 188.464 293.4 188.57V191.19C293.4 191.296 293.358 191.398 293.283 191.473C293.208 191.548 293.106 191.59 293 191.59Z" fill="#24272B"/>
<path d="M291.15 191.59C291.098 191.59 291.046 191.58 290.998 191.559C290.95 191.539 290.907 191.509 290.871 191.472C290.834 191.435 290.806 191.391 290.787 191.342C290.768 191.294 290.759 191.242 290.76 191.19V188.57C290.759 188.518 290.768 188.466 290.787 188.418C290.806 188.369 290.834 188.325 290.871 188.288C290.907 188.25 290.95 188.221 290.998 188.201C291.046 188.18 291.098 188.17 291.15 188.17C291.256 188.17 291.358 188.212 291.433 188.287C291.508 188.362 291.55 188.464 291.55 188.57V191.19C291.55 191.296 291.508 191.398 291.433 191.473C291.358 191.548 291.256 191.59 291.15 191.59Z" fill="#24272B"/>
<path d="M309 187.12H333.71C334.577 187.117 335.407 186.772 336.02 186.159C336.632 185.547 336.978 184.716 336.98 183.85C336.975 182.985 336.628 182.158 336.016 181.547C335.404 180.936 334.575 180.592 333.71 180.59H309C308.136 180.592 307.309 180.937 306.698 181.548C306.087 182.158 305.743 182.986 305.74 183.85C305.743 184.715 306.087 185.543 306.697 186.156C307.308 186.768 308.136 187.115 309 187.12Z" fill="#181B20"/>
<path d="M283.8 168.41C284.058 168.158 284.404 168.017 284.765 168.017C285.126 168.017 285.472 168.158 285.73 168.41C285.73 168.46 291.02 173.49 294.73 176.83L295.58 177.61C298.69 180.46 300.41 182.02 302.94 182.02H303.19C303.333 181.878 303.494 181.757 303.67 181.66C304.007 181.463 304.39 181.359 304.78 181.36H326.92C327.514 181.36 328.084 181.596 328.504 182.016C328.924 182.436 329.16 183.006 329.16 183.6V183.71C329.16 184.304 328.924 184.874 328.504 185.294C328.084 185.714 327.514 185.95 326.92 185.95H304.92C304.52 185.948 304.127 185.841 303.78 185.64L303.64 185.55C303.311 185.358 303.038 185.082 302.85 184.75C299.32 184.75 297.1 182.7 293.75 179.64L292.9 178.87C289.19 175.5 283.9 170.45 283.9 170.4C283.759 170.278 283.645 170.129 283.563 169.962C283.482 169.794 283.435 169.612 283.426 169.426C283.416 169.241 283.445 169.055 283.509 168.88C283.573 168.705 283.672 168.545 283.8 168.41Z" fill="#768F91"/>
<path d="M331.73 183.74C331.778 184.159 331.947 184.556 332.215 184.882C332.483 185.208 332.84 185.449 333.243 185.577C333.645 185.705 334.076 185.714 334.484 185.602C334.891 185.491 335.257 185.264 335.539 184.949C335.82 184.634 336.004 184.244 336.069 183.827C336.134 183.41 336.078 182.983 335.905 182.597C335.733 182.212 335.453 181.884 335.099 181.654C334.745 181.424 334.332 181.301 333.91 181.3C333.298 181.336 332.725 181.613 332.316 182.07C331.908 182.527 331.697 183.128 331.73 183.74Z" fill="#24272B"/>
<path d="M323 185.26C322.896 185.258 322.796 185.214 322.723 185.14C322.651 185.065 322.61 184.965 322.61 184.86V182.26C322.61 182.157 322.651 182.058 322.724 181.985C322.797 181.911 322.896 181.87 323 181.87C323.052 181.869 323.104 181.878 323.152 181.897C323.201 181.916 323.245 181.945 323.282 181.981C323.319 182.017 323.349 182.061 323.369 182.109C323.389 182.157 323.4 182.208 323.4 182.26V184.89C323.392 184.991 323.347 185.085 323.273 185.154C323.198 185.223 323.101 185.261 323 185.26Z" fill="#24272B"/>
<path d="M321 185.26C320.894 185.26 320.792 185.218 320.717 185.143C320.642 185.068 320.6 184.966 320.6 184.86V182.26C320.6 182.208 320.61 182.157 320.631 182.109C320.651 182.061 320.681 182.017 320.718 181.981C320.755 181.945 320.799 181.916 320.848 181.897C320.896 181.878 320.948 181.869 321 181.87C321.052 181.869 321.104 181.878 321.152 181.897C321.201 181.916 321.245 181.945 321.282 181.981C321.32 182.017 321.349 182.061 321.369 182.109C321.39 182.157 321.4 182.208 321.4 182.26V184.89C321.393 184.991 321.347 185.085 321.273 185.154C321.199 185.223 321.101 185.261 321 185.26Z" fill="#24272B"/>
<path d="M319.1 185.26C319.048 185.26 318.996 185.25 318.948 185.23C318.901 185.209 318.857 185.18 318.821 185.143C318.784 185.105 318.756 185.061 318.737 185.013C318.718 184.964 318.709 184.912 318.71 184.86V182.26C318.709 182.209 318.718 182.157 318.737 182.109C318.756 182.061 318.785 182.018 318.821 181.981C318.858 181.945 318.901 181.916 318.949 181.897C318.997 181.878 319.049 181.869 319.1 181.87C319.152 181.869 319.204 181.878 319.252 181.897C319.301 181.916 319.345 181.945 319.382 181.981C319.42 182.017 319.449 182.061 319.469 182.109C319.49 182.157 319.5 182.208 319.5 182.26V184.89C319.493 184.991 319.447 185.085 319.373 185.154C319.299 185.223 319.201 185.261 319.1 185.26Z" fill="#24272B"/>
<path d="M259.84 176.81C260.64 180.07 262.69 180.2 265.31 181.18C267.93 182.16 269.94 184.38 271.92 184.24C273.9 184.1 275.73 181.87 278.77 182.24C281.07 178.81 280.97 176.15 280.77 176.36L271.93 174.31C269.54 174.93 268.16 176.13 263.49 174.25C260.96 173.25 259.08 173.42 258.03 174.25C258.511 174.506 258.925 174.87 259.239 175.315C259.554 175.759 259.759 176.272 259.84 176.81Z" fill="#393E42"/>
<path d="M258.25 179.4C260.054 181.493 262.384 183.067 265 183.96C269.78 185.57 272 188.72 274.31 186.96C276.033 185.658 277.535 184.088 278.76 182.31C275.76 181.91 273.76 184.14 271.91 184.31C270.06 184.48 267.91 182.23 265.3 181.25C262.69 180.27 260.63 180.14 259.83 176.88C259.756 176.329 259.552 175.803 259.234 175.347C258.915 174.891 258.492 174.519 258 174.26C256.67 175.32 256.64 177.38 258.25 179.4Z" fill="#24272B"/>
<path d="M288.74 108.9C289.795 111.218 290.613 113.637 291.18 116.12C292.02 119.99 298.87 113.51 298.87 113.51L297.23 107.51L288.74 108.9Z" fill="#C88F76"/>
<path d="M296.63 105.57C295.84 109.81 294.11 111.02 290.18 111.74C287.74 112.19 286.18 111.74 285.91 109.61L285.63 107.25C285.63 107.04 285.17 106.89 284.79 106.78C284.41 106.67 284.15 106.35 284.23 106.14C284.72 104.92 285.57 104.63 286.15 103.59C286.73 102.55 285.95 102.32 286.04 101.82C286.83 97.5795 289.49 96.2895 292.54 96.8195C295.59 97.3495 297.42 101.32 296.63 105.57Z" fill="#FBC2AB"/>
<path d="M289.72 125.34C290.288 128.078 291.112 130.756 292.18 133.34C293.86 137.25 295.91 139.86 296.24 141.34C296.57 142.82 295.18 143.27 295 145.02C294.961 145.534 295.06 146.049 295.287 146.511C295.514 146.973 295.86 147.367 296.29 147.65C296.29 147.65 310.29 148.53 312.63 148.11C314.97 147.69 317.39 147.62 317.33 147.2C317.27 146.78 316.84 140.26 315 136.26C313.16 132.26 307.25 121.38 304.49 116.92C301.28 111.75 296.95 109.62 292.08 113.67C288.11 116.94 288.21 119.84 289.72 125.34Z" fill="#393E42"/>
<path d="M299.13 145.77C299.13 145.77 286.94 147.77 285.13 148.77C281.86 150.58 280.88 153.61 278.08 159.77C276.71 162.77 269.46 173.99 269.46 173.99C269.46 173.99 272.9 179.49 275.13 180.99C277.36 182.49 281.43 181.57 281.43 181.57C281.43 181.57 287.22 171.7 289.15 167.95C290.344 165.172 291.366 162.323 292.21 159.42C292.21 159.42 311.93 163.1 316.31 159.03C320.16 155.44 317.25 145.96 317.25 145.96L299.13 145.77Z" fill="#636FAD"/>
<path d="M262.46 123.76C260.46 124.6 260.38 125.67 260.95 128.01C261.52 130.35 263.6 129.26 264.64 128.01C265.666 127.034 266.854 126.242 268.15 125.67C268.15 125.67 265.29 122.59 262.46 123.76Z" fill="#FBC2AB"/>
<path d="M293.81 125.34C293.81 125.34 294.35 129.27 298.1 129.89C301.85 130.51 305.57 128.55 303.78 123.76C301.99 118.97 298.2 116.24 295.83 116.05C293.46 115.86 293.81 125.34 293.81 125.34Z" fill="#C88F76"/>
<path d="M263.26 126.99C263.26 126.99 273.94 133.3 276.85 135.13C278.85 136.37 281.22 135.13 284.2 133C288.38 130 295.36 127.77 297.43 125.67C299.5 123.57 302.35 116.19 295.83 116.05C290.1 115.94 289.35 119.56 287.32 121.05C285.29 122.54 278.81 128.19 278.81 128.19L264.28 123.73L263.26 126.99Z" fill="#FBC2AB"/>
<path d="M299.13 138.99L298.79 141.29C300.325 142.167 302.03 142.706 303.79 142.87L309.26 143.6V141.26C309.26 141.26 302.11 140.49 299.13 138.99Z" fill="#24272B"/>
<path d="M288.75 100.1C291.02 101.47 295 103.93 295 103.93C295 103.93 295.09 106.34 295.32 107.72C295.55 109.1 296.65 111.34 299.32 114.05C299.2 112.78 299.2 112.78 299.15 112.41C300.138 113.459 301.311 114.317 302.61 114.94C304.031 115.465 305.526 115.765 307.04 115.83C304.382 113.635 302.095 111.024 300.27 108.1C299.792 107.492 299.405 106.819 299.12 106.1C298.53 102.79 300.12 98.0498 299.41 97.3298C298.7 96.6098 297.12 96.0198 295.23 95.7298C293.15 95.3698 288.44 93.9598 288.75 100.1Z" fill="#202123"/>
<path d="M293 102.68C293.116 103.87 293.116 105.069 293 106.26C292.933 107.303 292.786 108.339 292.56 109.36C292.149 110.321 291.45 111.131 290.56 111.68C290.56 111.68 290.85 111.99 292.18 111.53C293.51 111.07 294.77 108.88 295.71 106.95C296.237 105.936 296.576 104.835 296.71 103.7H296C296 103.7 295.43 106.28 294.75 106.95C294.07 107.62 293.5 107.08 293.7 105.74C293.835 104.806 293.888 103.863 293.86 102.92L293 102.68Z" fill="#3A3436"/>
<path d="M295.82 92.8897C295.57 92.8188 295.316 92.7621 295.06 92.7197C296.64 93.3868 297.92 94.6106 298.658 96.1591C299.395 97.7075 299.538 99.4727 299.06 101.12L298.06 104.6L299.56 105.04L300.56 101.56C301.078 99.7815 300.869 97.8707 299.981 96.2456C299.093 94.6206 297.596 93.4139 295.82 92.8897Z" fill="#302B2D"/>
<path d="M295.06 92.7203C293.369 92.4297 291.63 92.7703 290.174 93.6773C288.718 94.5843 287.645 95.9946 287.16 97.6403L286.16 101.12L298.06 104.6L299.06 101.12C299.538 99.4732 299.395 97.708 298.658 96.1596C297.92 94.6112 296.64 93.3873 295.06 92.7203Z" fill="#3A3436"/>
<path d="M285.831 100.356L285.82 100.394C285.721 100.734 285.916 101.089 286.255 101.188L299.291 104.993C299.63 105.092 299.986 104.897 300.085 104.558L300.096 104.519C300.195 104.18 300 103.825 299.661 103.726L286.625 99.921C286.286 99.8219 285.93 100.017 285.831 100.356Z" fill="#A09C9D"/>
<path d="M286.29 104.6C286.919 104.885 287.6 105.035 288.29 105.04C289.29 105.04 290.66 104.6 291.43 104.6C293.56 104.6 299.17 106.05 299.17 106.05L299.33 105.05L286.18 101.16C286.18 101.16 285.18 104.34 286.29 104.6Z" fill="#3A3436"/>
<path d="M100.73 174.69C99.3011 177.095 97.6254 179.344 95.7298 181.4C93.4398 183.59 86.0498 187.45 86.0498 187.45L86.5998 190.73C86.5998 190.73 95.9998 186.82 98.2398 185.26C98.9398 184.78 103.64 178.21 103.64 178.21L100.73 174.69Z" fill="#C88F76"/>
<path d="M101.5 186.45C101.5 186.45 91.2398 186.66 87.8298 188.81C84.4198 190.96 94.6898 196.37 96.6298 195.41C98.5698 194.45 101.5 186.45 101.5 186.45Z" fill="#4A5993"/>
<path d="M75.3001 185.85C79.3801 186.7 84.1401 192.29 87.9101 193.28C91.6801 194.27 105.29 199.57 105.29 199.57L120.91 200.96L116.23 215.71H75.7201C74.3001 212.28 67.7201 196.27 66.7201 192.41C64.2201 183.12 69.1701 184.57 75.3001 185.85Z" fill="#24272B"/>
<path d="M65.04 191.41L71.4 207.88L72.94 208.92L73.97 206.35L67.11 188.05L65.04 191.41Z" fill="#393E42"/>
<path d="M126.68 199.81C129.647 199.81 132.547 200.689 135.014 202.338C137.48 203.986 139.403 206.328 140.538 209.069C141.674 211.81 141.971 214.826 141.392 217.736C140.813 220.646 139.385 223.318 137.287 225.416C135.189 227.514 132.516 228.943 129.607 229.521C126.697 230.1 123.681 229.803 120.94 228.668C118.199 227.532 115.856 225.61 114.208 223.143C112.56 220.676 111.68 217.776 111.68 214.81C111.68 210.831 113.261 207.016 116.074 204.203C118.887 201.39 122.702 199.81 126.68 199.81ZM126.68 222.56C128.207 222.56 129.7 222.107 130.969 221.259C132.239 220.41 133.228 219.205 133.813 217.794C134.397 216.383 134.55 214.831 134.252 213.333C133.954 211.836 133.219 210.46 132.139 209.381C131.059 208.301 129.684 207.566 128.186 207.268C126.689 206.97 125.137 207.123 123.726 207.707C122.315 208.292 121.11 209.281 120.261 210.551C119.413 211.82 118.96 213.313 118.96 214.84C118.96 216.887 119.774 218.851 121.221 220.298C122.669 221.746 124.633 222.56 126.68 222.56Z" fill="#181B20"/>
<path d="M126.68 204.38C128.749 204.38 130.771 204.993 132.491 206.143C134.212 207.292 135.552 208.926 136.344 210.837C137.136 212.748 137.343 214.851 136.939 216.881C136.536 218.91 135.539 220.773 134.077 222.236C132.614 223.699 130.75 224.695 128.721 225.099C126.692 225.503 124.589 225.295 122.677 224.504C120.766 223.712 119.132 222.371 117.983 220.651C116.834 218.931 116.22 216.909 116.22 214.84C116.219 213.466 116.489 212.105 117.014 210.835C117.539 209.566 118.309 208.412 119.281 207.441C120.253 206.469 121.406 205.699 122.676 205.173C123.945 204.648 125.306 204.379 126.68 204.38ZM119 214.84C119.001 215.816 119.188 216.783 119.55 217.69L123.48 214.95L119.48 212.16C119.161 213.017 118.998 213.925 119 214.84ZM128 222.43C129.441 222.18 130.78 221.524 131.86 220.54L128 217.84V222.43ZM132.59 219.78C132.85 219.468 133.081 219.133 133.28 218.78L129.34 216.03C129.172 216.409 128.927 216.75 128.62 217.03L132.59 219.78ZM134.38 214.84C134.383 213.86 134.196 212.889 133.83 211.98L129.59 214.98L133.77 217.89C134.18 216.925 134.391 215.888 134.39 214.84H134.38ZM126.67 207.12C126.467 207.11 126.263 207.11 126.06 207.12V211.93C126.261 211.889 126.465 211.869 126.67 211.87C126.872 211.87 127.073 211.89 127.27 211.93V207.12H126.67ZM123.87 213.99C123.988 213.597 124.186 213.233 124.45 212.92L120.52 210.18C120.274 210.495 120.054 210.83 119.86 211.18L123.87 213.99ZM128.31 211.83L132 209.26C130.983 208.264 129.709 207.572 128.32 207.26L128.31 211.83ZM128.76 212.78C129.04 213.067 129.261 213.407 129.41 213.78L133.41 211.01C133.21 210.659 132.983 210.325 132.73 210.01L128.76 212.78ZM121.34 220.41C122.285 221.316 123.445 221.966 124.71 222.3V218.06L121.34 220.41ZM124.57 216.89C124.291 216.601 124.071 216.262 123.92 215.89L119.92 218.66C120.12 219.011 120.348 219.345 120.6 219.66L124.57 216.89ZM121.2 209.38L125.02 212.05V207.26C123.575 207.59 122.253 208.325 121.21 209.38H121.2ZM127 222.54V217.74C126.904 217.745 126.807 217.745 126.71 217.74C126.397 217.739 126.086 217.685 125.79 217.58V222.47C126.096 222.505 126.403 222.525 126.71 222.53L127 222.54Z" fill="white"/>
<path d="M49.6299 199.81C52.5966 199.81 55.4967 200.689 57.9634 202.338C60.4302 203.986 62.3528 206.328 63.4881 209.069C64.6234 211.81 64.9204 214.826 64.3417 217.736C63.7629 220.646 62.3343 223.318 60.2365 225.416C58.1387 227.514 55.466 228.943 52.5562 229.521C49.6465 230.1 46.6305 229.803 43.8896 228.668C41.1487 227.532 38.8061 225.61 37.1578 223.143C35.5096 220.676 34.6299 217.776 34.6299 214.81C34.6299 210.831 36.2102 207.016 39.0233 204.203C41.8363 201.39 45.6516 199.81 49.6299 199.81ZM49.6299 222.56C51.1572 222.562 52.6507 222.11 53.9216 221.263C55.1925 220.416 56.1835 219.211 56.7694 217.801C57.3552 216.39 57.5095 214.838 57.2128 213.34C56.916 211.841 56.1815 210.465 55.1023 209.384C54.023 208.304 52.6475 207.567 51.1497 207.269C49.6519 206.97 48.0991 207.122 46.6879 207.706C45.2767 208.29 44.0704 209.28 43.2216 210.55C42.3729 211.819 41.9199 213.312 41.9199 214.84C41.9199 216.885 42.7319 218.847 44.1775 220.295C45.6231 221.742 47.5841 222.557 49.6299 222.56Z" fill="#181B20"/>
<path d="M49.6302 204.38C51.6994 204.378 53.7227 204.99 55.4442 206.138C57.1656 207.286 58.5079 208.919 59.3011 210.83C60.0943 212.741 60.3029 214.845 59.9004 216.874C59.4979 218.904 58.5025 220.769 57.0401 222.233C55.5776 223.697 53.7138 224.694 51.6845 225.098C49.6552 225.503 47.5515 225.296 45.6396 224.505C43.7277 223.713 42.0935 222.373 40.9437 220.652C39.7939 218.932 39.1802 216.909 39.1802 214.84C39.1802 212.067 40.2808 209.408 42.2403 207.447C44.1998 205.486 46.8577 204.383 49.6302 204.38ZM41.9202 214.84C41.9209 215.816 42.1076 216.783 42.4702 217.69L46.3902 214.95L42.3902 212.16C42.0742 213.018 41.915 213.926 41.9202 214.84ZM50.9202 222.43C52.3575 222.18 53.6933 221.524 54.7702 220.54L51.0002 217.84L50.9202 222.43ZM55.5102 219.78C55.7698 219.468 56.0007 219.133 56.2002 218.78L52.2602 216.03C52.092 216.409 51.8468 216.75 51.5402 217.03L55.5102 219.78ZM57.3002 214.84C57.2985 213.86 57.1119 212.89 56.7502 211.98L52.5102 214.98L56.6902 217.89C57.1136 216.928 57.3381 215.891 57.3502 214.84H57.3002ZM49.5802 207.12H48.9802V211.93C49.1777 211.89 49.3787 211.87 49.5802 211.87C49.785 211.87 49.9893 211.89 50.1902 211.93V207.12C50.0036 207.111 49.8167 207.111 49.6302 207.12H49.5802ZM46.7902 213.99C46.9084 213.597 47.1058 213.233 47.3702 212.92L43.4402 210.18C43.1943 210.495 42.9736 210.83 42.7802 211.18L46.7902 213.99ZM51.2302 211.83L55.0002 209.26C53.9831 208.264 52.7088 207.572 51.3202 207.26L51.2302 211.83ZM51.6802 212.78C51.9603 213.067 52.1812 213.407 52.3302 213.78L56.3302 211.01C56.1299 210.659 55.9025 210.325 55.6502 210.01L51.6802 212.78ZM44.2602 220.41C45.2234 221.309 46.4008 221.946 47.6802 222.26V218.06L44.2602 220.41ZM47.4902 216.89C47.2112 216.601 46.9905 216.262 46.8402 215.89L42.8402 218.66C43.0401 219.011 43.2675 219.345 43.5202 219.66L47.4902 216.89ZM44.1202 209.38L48.0002 212.05V207.26C46.5473 207.586 45.2183 208.322 44.1702 209.38H44.1202ZM49.8802 222.54V217.74C49.4726 217.809 49.0539 217.764 48.6702 217.61V222.5C48.9723 222.535 49.276 222.555 49.5802 222.56L49.8802 222.54Z" fill="white"/>
<path d="M65.9102 209.63C65.9102 209.63 63.5102 203.35 57.9102 200.63C50.5602 197.05 45.9102 199.21 45.9102 199.21C45.9102 199.21 46.2202 201.4 51.4002 202.21C56.5802 203.02 58.0302 204.86 62.0502 208.8C63.0002 209.7 65.9102 209.63 65.9102 209.63Z" fill="#768F91"/>
<path d="M63.5698 179.26C66.9598 179.47 68.0298 183.07 68.0298 183.07C68.0942 183.663 68.025 184.263 67.8275 184.826C67.6299 185.389 67.3089 185.9 66.888 186.323C66.4671 186.746 65.957 187.069 65.3949 187.269C64.8329 187.47 64.2332 187.541 63.6398 187.48H63.5698V179.26Z" fill="#393E42"/>
<path d="M62.8498 179.26C62.8498 179.26 59.3398 179.88 59.3398 183.37C59.3398 186.86 62.9298 187.48 62.9298 187.48L62.8498 179.26Z" fill="#EA663A"/>
<path d="M63.28 188.43C63.0785 188.43 62.8851 188.35 62.7426 188.207C62.6001 188.065 62.52 187.871 62.52 187.67V178.98C62.52 178.778 62.6001 178.585 62.7426 178.442C62.8851 178.3 63.0785 178.22 63.28 178.22C63.4816 178.22 63.6749 178.3 63.8174 178.442C63.9599 178.585 64.04 178.778 64.04 178.98V187.67C64.04 187.871 63.9599 188.065 63.8174 188.207C63.6749 188.35 63.4816 188.43 63.28 188.43Z" fill="white"/>
<path d="M78.09 219.46H99C99.9554 219.46 100.73 218.685 100.73 217.73V213.38C100.73 212.425 99.9554 211.65 99 211.65H78.09C77.1345 211.65 76.36 212.425 76.36 213.38V217.73C76.36 218.685 77.1345 219.46 78.09 219.46Z" fill="#393E42"/>
<path d="M84.7202 215.09C84.7183 215.47 84.8294 215.843 85.0396 216.16C85.2499 216.477 85.5496 216.725 85.9009 216.872C86.2521 217.018 86.639 217.057 87.0123 216.983C87.3857 216.91 87.7287 216.726 87.9979 216.457C88.267 216.188 88.45 215.845 88.5238 215.472C88.5976 215.098 88.5587 214.712 88.4122 214.36C88.2656 214.009 88.0179 213.709 87.7007 213.499C87.3834 213.289 87.0108 213.178 86.6302 213.18C86.1237 213.18 85.6379 213.381 85.2797 213.739C84.9215 214.097 84.7202 214.583 84.7202 215.09Z" fill="#768F91"/>
<path d="M76.9102 212.61C76.9102 213.117 77.0606 213.612 77.3423 214.033C77.6241 214.454 78.0245 214.782 78.4928 214.976C78.9612 215.169 79.4764 215.219 79.9733 215.12C80.4702 215.02 80.9263 214.775 81.2839 214.416C81.6415 214.057 81.8846 213.6 81.9822 213.103C82.0798 212.606 82.0277 212.091 81.8324 211.623C81.6371 211.156 81.3074 210.756 80.8851 210.476C80.4628 210.196 79.9669 210.048 79.4602 210.05C79.1245 210.05 78.792 210.116 78.482 210.245C78.172 210.374 77.8904 210.562 77.6535 210.8C77.4166 211.038 77.229 211.32 77.1014 211.631C76.9738 211.941 76.9089 212.274 76.9102 212.61Z" fill="#181B20"/>
<path d="M118 200.96C116.519 201.971 115.192 203.19 114.06 204.58L112.57 202.99C112.57 202.99 115.03 197.99 123.57 196.14C132.11 194.29 137.82 198.37 137.82 198.37C137.582 198.849 137.29 199.298 136.95 199.71C134.612 198.653 132.101 198.033 129.54 197.88C125.33 197.75 122.26 198.01 118 200.96Z" fill="#EA663A"/>
<path d="M125.53 201.82C121.841 202.286 118.345 203.737 115.41 206.02L114.08 204.58C115.206 203.191 116.526 201.972 118 200.96C122.24 198.01 125.31 197.75 129.59 197.88C132.151 198.032 134.663 198.652 137 199.71C134.64 202.62 131.16 201.03 125.53 201.82Z" fill="#DD542F"/>
<path d="M103.28 196.71C99.9998 196.22 98.8998 200.46 104.04 201.66C107.106 202.16 110.215 202.351 113.32 202.23C115.71 202.02 118.52 200.12 120.32 198.56C121.22 197.77 125.57 195.41 133.44 196.36C134.15 196.45 137.68 193.99 134.29 192.87C126.29 190.25 123 190.87 118.08 194.21C115.32 196.07 116.69 198.71 103.28 196.71Z" fill="#181B20"/>
<path d="M116.034 204.827L125.841 215.22C126.266 215.669 126.975 215.69 127.424 215.265L127.584 215.115C128.034 214.69 128.055 213.981 127.63 213.531L117.823 203.138C117.398 202.688 116.689 202.668 116.239 203.092L116.079 203.243C115.63 203.668 115.609 204.377 116.034 204.827Z" fill="#393E42"/>
<path d="M114.36 204.09C114.36 204.603 114.512 205.104 114.797 205.53C115.082 205.956 115.487 206.288 115.961 206.484C116.435 206.68 116.956 206.73 117.459 206.63C117.962 206.529 118.423 206.281 118.785 205.918C119.147 205.555 119.393 205.092 119.491 204.589C119.59 204.086 119.537 203.565 119.34 203.092C119.142 202.619 118.809 202.215 118.382 201.932C117.954 201.648 117.453 201.498 116.94 201.5C116.6 201.5 116.264 201.567 115.95 201.697C115.637 201.828 115.352 202.019 115.112 202.259C114.872 202.5 114.682 202.785 114.553 203.1C114.424 203.414 114.359 203.75 114.36 204.09Z" fill="#24272B"/>
<path d="M111.31 202.8C104.75 202.91 100.73 202.52 99.31 203.8C96.62 206.11 99.04 212.6 103.22 212.63C107.565 212.457 111.74 210.894 115.13 208.17C118.39 205.31 117.08 202.7 111.31 202.8Z" fill="#393E42"/>
<path d="M83.0999 163.17L78.8799 165.78C78.0627 166.307 77.3782 167.015 76.8799 167.85L70.3899 178.59L57.1699 199.86L59.5099 201.4L78.2699 170.83C79.1843 169.332 80.5346 168.149 82.1399 167.44L84.1399 166.57L83.0999 163.17Z" fill="white"/>
<path d="M48.7002 216.15C48.3802 215.941 48.1529 215.617 48.0654 215.244C47.9779 214.872 48.0369 214.48 48.2302 214.15L57.0002 199.86L59.4702 201.49L50.7002 215.67C50.4924 215.992 50.1687 216.221 49.7963 216.311C49.4239 216.4 49.0314 216.343 48.7002 216.15Z" fill="#24272B"/>
<path d="M61.3553 192.199L64.8121 194.29C65.2894 194.578 65.9103 194.426 66.199 193.948L67.0375 192.562C67.3262 192.085 67.1734 191.464 66.6961 191.175L63.2393 189.084C62.762 188.795 62.1411 188.948 61.8524 189.426L61.0139 190.812C60.7252 191.289 60.878 191.91 61.3553 192.199Z" fill="#181B20"/>
<path d="M56.4026 200.606L59.0037 202.179C59.3771 202.405 59.8628 202.285 60.0886 201.912L60.7304 200.851C60.9562 200.478 60.8366 199.992 60.4633 199.766L57.8622 198.193C57.4889 197.967 57.0032 198.086 56.7773 198.46L56.1355 199.521C55.9097 199.894 56.0293 200.38 56.4026 200.606Z" fill="#181B20"/>
<path d="M72.5298 184.38C72.5298 184.38 73.7398 180.38 79.9098 182.57C86.0798 184.76 90.4598 187.98 93.8198 190.06C94.5866 190.372 95.2188 190.943 95.6048 191.675C95.9909 192.407 96.106 193.252 95.9298 194.06C95.3998 198.27 81.3998 195.38 76.5998 194.79C73.8898 194.41 71.4498 192.87 72.5298 184.38Z" fill="#EA663A"/>
<path d="M78.7202 184.13C80.7202 184.89 86.0302 187.32 87.8302 188.81C89.6302 190.3 89.4802 192.86 86.1502 192.87C82.8202 192.88 77.6202 192.72 76.1502 191.36C74.6802 190 74.7302 187.66 74.7302 186.67C74.7002 184.54 75.6002 182.96 78.7202 184.13Z" fill="#FF8978"/>
<path d="M86.08 207.15C86.0873 207.04 86.1217 206.933 86.18 206.84C86.18 206.84 86.18 206.84 86.18 206.78L89.77 200.38L88.43 199.63L89.7 197.36C90.2937 197.191 90.9168 197.151 91.5273 197.242C92.1379 197.333 92.7218 197.554 93.24 197.89L93.34 197.96C93.3784 197.972 93.4153 197.989 93.45 198.01C94.0079 198.277 94.5019 198.661 94.8987 199.135C95.2955 199.61 95.5858 200.164 95.75 200.76L94.48 203.02L93.36 202.39L89.75 208.82C89.75 208.82 89.75 208.9 89.75 208.93C89.6993 209.018 89.6315 209.096 89.5506 209.158C89.4696 209.22 89.3772 209.266 89.2785 209.292C89.1799 209.318 89.0771 209.324 88.9761 209.31C88.875 209.296 88.7778 209.262 88.69 209.21L86.45 207.9C86.3569 207.846 86.2765 207.772 86.2144 207.684C86.1523 207.596 86.1098 207.496 86.09 207.39C86.0718 207.311 86.0684 207.23 86.08 207.15ZM87.7 206.83L89 207.58L92.27 201.75L91 201.01L87.7 206.83Z" fill="#768F91"/>
<path d="M75.0998 198.01C75.1345 197.989 75.1714 197.972 75.2098 197.96L75.3098 197.89C75.828 197.554 76.4119 197.333 77.0225 197.242C77.633 197.151 78.2561 197.191 78.8498 197.36L80.1198 199.63L78.7798 200.38L82.3698 206.78C82.3698 206.78 82.3698 206.78 82.3698 206.84C82.4281 206.933 82.4625 207.04 82.4698 207.15C82.4847 207.229 82.4847 207.311 82.4698 207.39C82.4499 207.496 82.4075 207.596 82.3454 207.684C82.2833 207.772 82.2029 207.846 82.1098 207.9L79.8998 209.26C79.812 209.312 79.7148 209.346 79.6137 209.36C79.5127 209.374 79.4099 209.368 79.3112 209.342C79.2126 209.316 79.1202 209.27 79.0392 209.208C78.9583 209.146 78.8905 209.068 78.8398 208.98C78.8398 208.98 78.8398 208.9 78.8398 208.87L75.2298 202.44L74.1098 203.07L72.7998 200.76C72.964 200.164 73.2543 199.61 73.6511 199.135C74.0479 198.661 74.5419 198.277 75.0998 198.01ZM79.5998 207.58L80.8998 206.83L77.6398 201.01L76.3298 201.75L79.5998 207.58Z" fill="#768F91"/>
<path d="M79.6499 202.53C79.6499 203.45 79.9226 204.349 80.4336 205.113C80.9445 205.878 81.6707 206.474 82.5204 206.826C83.3701 207.178 84.3051 207.27 85.2071 207.091C86.1091 206.911 86.9376 206.468 87.5879 205.818C88.2383 205.168 88.6811 204.339 88.8605 203.437C89.04 202.535 88.9479 201.6 88.5959 200.75C88.244 199.901 87.648 199.174 86.8833 198.664C86.1186 198.153 85.2196 197.88 84.2999 197.88C83.0666 197.88 81.8839 198.37 81.0119 199.242C80.1398 200.114 79.6499 201.297 79.6499 202.53Z" fill="#181B20"/>
<path d="M83.1602 202.53C83.1602 202.755 83.227 202.976 83.3523 203.163C83.4775 203.35 83.6556 203.497 83.8639 203.583C84.0722 203.669 84.3014 203.692 84.5226 203.648C84.7437 203.604 84.9468 203.495 85.1063 203.336C85.2657 203.176 85.3743 202.973 85.4183 202.752C85.4622 202.531 85.4397 202.302 85.3534 202.093C85.2671 201.885 85.121 201.707 84.9335 201.582C84.746 201.456 84.5256 201.39 84.3002 201.39C83.9978 201.39 83.7078 201.51 83.494 201.724C83.2803 201.937 83.1602 202.227 83.1602 202.53Z" fill="#768F91"/>
<path d="M83.3998 219.06H82.8998C78.1498 219.06 77.6198 217.94 76.5698 215.71L76.3598 215.27C72.6298 207.49 75.6798 204.41 75.7098 204.38C76.0398 204.01 76.4998 202.89 75.9098 202.38C75.3198 201.87 74.4598 202.53 74.1198 202.9C73.9598 203.06 70.4098 207.01 74.7198 216.01L74.9198 216.45C76.2098 219.17 77.2798 220.84 82.9198 220.84H83.4198L83.3998 219.06Z" fill="#768F91"/>
<path d="M102.68 214.62C101.29 214.4 100.18 213.39 98.34 211.71L97.77 211.19C95.31 208.96 91.77 205.59 91.77 205.56C91.6872 205.463 91.5852 205.385 91.4703 205.33C91.3554 205.275 91.2304 205.245 91.1032 205.242C90.976 205.238 90.8494 205.261 90.7318 205.31C90.6141 205.358 90.5079 205.431 90.4201 205.523C90.3322 205.615 90.2647 205.725 90.2218 205.844C90.1788 205.964 90.1615 206.092 90.1709 206.219C90.1804 206.345 90.2163 206.469 90.2764 206.581C90.3365 206.693 90.4195 206.792 90.52 206.87C90.52 206.87 94.08 210.29 96.52 212.54L97.09 213.06C99.15 214.94 100.59 216.23 102.65 216.43L102.68 214.62Z" fill="#768F91"/>
<path d="M147.75 211.63C144.47 212.16 124.62 215.09 117.67 216C109.6 217.06 108.23 219.07 108.23 219.07H102.49V220.89C102.49 220.89 105.02 220.83 108.09 220.83C108.09 220.83 109.84 221.83 113.5 221.46C123.22 220.46 143.25 217.31 148.5 216.2C152.18 215.42 152.34 213.2 151.04 212.13C150.556 211.824 150.014 211.623 149.447 211.536C148.881 211.45 148.304 211.482 147.75 211.63Z" fill="#768F91"/>
<path d="M148.23 212.15C146.47 212.35 146.01 212.43 146.28 214.5C146.55 216.57 149.94 215.42 150.49 214.5C151.04 213.58 150.49 211.89 148.23 212.15Z" fill="#393E42"/>
<path d="M143.82 213.01C144.35 212.81 144.55 213.36 144.66 214.23C144.77 215.1 144.95 216.03 144.26 216.13C143.57 216.23 143.68 215.35 143.56 214.57C143.44 213.79 143.26 213.26 143.82 213.01Z" fill="#393E42"/>
<path d="M141.54 213.4C142.07 213.21 142.27 213.75 142.37 214.63C142.47 215.51 142.67 216.43 141.97 216.53C141.27 216.63 141.4 215.75 141.28 214.96C141.16 214.17 141 213.61 141.54 213.4Z" fill="#393E42"/>
<path d="M139.26 213.77C139.79 213.58 139.99 214.13 140.09 215C140.19 215.87 140.38 216.8 139.69 216.9C139 217 139.12 216.12 139 215.34C138.88 214.56 138.69 213.98 139.26 213.77Z" fill="#393E42"/>
<path d="M137 214.17C137.54 213.98 137.74 214.52 137.84 215.39C137.94 216.26 138.13 217.2 137.44 217.3C136.75 217.4 136.87 216.52 136.75 215.73C136.63 214.94 136.41 214.38 137 214.17Z" fill="#393E42"/>
<path d="M153.67 195.62C153.131 195.455 152.564 195.401 152.004 195.461C151.444 195.521 150.901 195.695 150.41 195.97C147.41 197.34 128.96 205.3 122.48 207.97C114.96 211.08 114.16 213.38 114.16 213.38L111.16 214.18C110.125 214.451 109.06 214.589 107.99 214.59H102.67V216.42H108C109.125 216.42 110.245 216.269 111.33 215.97C112.11 215.74 113.17 215.45 114.45 215.11C114.45 215.11 116.45 215.64 119.83 214.32C128.96 210.82 147.5 202.62 152.25 200.2C155.62 198.5 155.22 196.35 153.67 195.62Z" fill="#768F91"/>
<path d="M151 196.36C149.35 197.01 148.93 197.2 149.72 199.13C150.51 201.06 153.49 199.07 153.78 198.05C154.07 197.03 153.12 195.52 151 196.36Z" fill="#393E42"/>
<path d="M147 198.32C147.46 198 147.8 198.47 148.12 199.32C148.44 200.17 148.87 200.98 148.23 201.26C147.59 201.54 147.47 200.66 147.15 199.93C146.83 199.2 146.48 198.67 147 198.32Z" fill="#393E42"/>
<path d="M144.87 199.26C145.33 198.93 145.66 199.41 145.99 200.26C146.32 201.11 146.74 201.93 146.1 202.2C145.46 202.47 145.34 201.6 145.02 200.87C144.7 200.14 144.37 199.64 144.87 199.26Z" fill="#393E42"/>
<path d="M142.76 200.26C143.22 199.93 143.56 200.41 143.88 201.26C144.2 202.11 144.63 202.93 143.99 203.2C143.35 203.47 143.23 202.6 142.91 201.87C142.59 201.14 142.27 200.59 142.76 200.26Z" fill="#393E42"/>
<path d="M140.66 201.26C141.12 200.93 141.46 201.41 141.78 202.26C142.1 203.11 142.53 203.92 141.89 204.2C141.25 204.48 141.13 203.59 140.81 202.86C140.49 202.13 140.16 201.56 140.66 201.26Z" fill="#393E42"/>
<path d="M102.68 219.06H83.3999V220.88H102.68V219.06Z" fill="#768F91"/>
<path d="M127.11 210.87C126.963 210.869 126.819 210.83 126.693 210.755C126.567 210.68 126.463 210.572 126.393 210.444C126.322 210.315 126.288 210.17 126.292 210.023C126.297 209.876 126.341 209.734 126.42 209.61C126.69 209.18 153.59 166.5 155.63 163.07C159.63 156.3 164.15 156.3 168.52 156.3C168.738 156.3 168.946 156.386 169.1 156.54C169.254 156.694 169.34 156.902 169.34 157.12C169.34 157.337 169.254 157.546 169.1 157.7C168.946 157.853 168.738 157.94 168.52 157.94C164.26 157.94 160.58 157.94 157.04 163.94C155.04 167.4 128.92 208.77 127.81 210.53C127.731 210.64 127.625 210.729 127.503 210.788C127.381 210.847 127.246 210.876 127.11 210.87Z" fill="#768F91"/>
<path d="M72.5898 210.05C73.1398 212.3 74.5898 212.39 76.3598 213.05C78.1298 213.71 79.5398 215.25 80.8998 215.15C82.2598 215.05 83.5298 213.52 85.6198 213.8C87.2098 211.44 87.1398 209.61 86.9798 209.75L80.8898 208.34C79.2498 208.77 78.2998 209.59 75.0798 208.34C73.3398 207.64 72.0798 207.77 71.3198 208.34C71.6498 208.507 71.9364 208.748 72.1568 209.045C72.3772 209.342 72.5255 209.686 72.5898 210.05Z" fill="#393E42"/>
<path d="M71.4902 211.84C72.7393 213.28 74.347 214.363 76.1502 214.98C79.4402 216.08 80.9602 218.25 82.5602 216.98C83.7458 216.085 84.7791 215.004 85.6202 213.78C83.5302 213.5 82.1802 215.04 80.9002 215.13C79.6202 215.22 78.1702 213.7 76.3602 213.03C74.5502 212.36 73.1402 212.27 72.5902 210.03C72.5302 209.661 72.384 209.31 72.1633 209.008C71.9427 208.706 71.6538 208.46 71.3202 208.29C70.4102 209.02 70.3902 210.44 71.4902 211.84Z" fill="#24272B"/>
<path d="M100.73 188.7C100.73 188.7 94.4099 189.7 93.0399 190.14C91.6699 190.58 88.5499 196.14 86.0399 199.94C84.7999 201.87 79.1499 208.12 79.1499 208.12C79.1499 208.12 81.5199 211.9 83.0599 212.97C84.5999 214.04 87.3999 213.36 87.3999 213.36C87.3999 213.36 92.5899 206.26 93.9199 203.67C94.7599 202.03 96.4099 197.88 96.4099 197.88C96.4099 197.88 107.77 200.69 110.79 197.88C113.44 195.41 111.87 188.05 111.87 188.05L100.73 188.7Z" fill="#636FAD"/>
<path d="M102 163.18C102.731 164.785 103.294 166.46 103.68 168.18C104.26 170.85 108.98 166.38 108.98 166.38L107.85 162.23L102 163.18Z" fill="#C88F76"/>
<path d="M108.12 164.93C105.71 164.23 102.28 167.93 101.35 169.02C100.699 169.859 100.183 170.793 99.8198 171.79C99.8198 171.79 99.8198 177.79 99.5998 179.9C99.3798 182.01 100.43 182.46 99.5998 183.53C98.7698 184.6 98.4998 184.3 98.2398 185.27C98.0628 185.745 97.9849 186.25 98.0107 186.756C98.0365 187.261 98.1655 187.756 98.3898 188.21C100.701 189.919 103.517 190.806 106.39 190.73C111.27 190.61 112.32 189.68 112.32 189.68C112.486 187.139 112.46 184.588 112.24 182.05C112.082 180.053 112.082 178.047 112.24 176.05C112.63 173.79 114.38 166.73 108.12 164.93Z" fill="#393E42"/>
<path d="M87.7101 163.94C88.8494 165.627 90.3574 167.033 92.1201 168.05C94.9701 169.65 96.8701 171.64 98.7501 172.61C100.07 173.29 101 172.43 104.23 169.51C107.46 166.59 109.11 166.51 110.78 168.56C112.27 170.41 111.2 172.15 108.12 174.82C105.04 177.49 102.12 177.97 100.32 178.92C98.5201 179.87 96.3201 178.42 95.0901 177.25C91.6013 173.75 88.3412 170.029 85.3301 166.11L87.7101 163.94Z" fill="#FBC2AB"/>
<path d="M80.8999 165.36C80.8979 165.795 81.0253 166.222 81.2658 166.585C81.5063 166.948 81.8492 167.232 82.2511 167.4C82.6529 167.568 83.0955 167.613 83.523 167.529C83.9504 167.445 84.3433 167.236 84.652 166.929C84.9607 166.622 85.1712 166.23 85.2569 165.803C85.3426 165.376 85.2996 164.933 85.1334 164.53C84.9672 164.128 84.6852 163.784 84.3232 163.541C83.9612 163.299 83.5355 163.17 83.0999 163.17C82.5182 163.17 81.9601 163.4 81.5478 163.811C81.1355 164.221 80.9026 164.778 80.8999 165.36Z" fill="#24272B"/>
<path d="M83.6902 166.57H89.5702C89.8911 166.57 90.1989 166.443 90.4258 166.216C90.6528 165.989 90.7802 165.681 90.7802 165.36C90.7776 165.04 90.6493 164.734 90.423 164.508C90.1966 164.281 89.8903 164.153 89.5702 164.15H83.6902C83.3711 164.153 83.0659 164.282 82.8411 164.508C82.6163 164.735 82.4902 165.041 82.4902 165.36C82.4902 165.68 82.6163 165.986 82.8411 166.212C83.0659 166.439 83.3711 166.568 83.6902 166.57Z" fill="#393E42"/>
<path d="M107.46 159.54C107.46 162.54 106.21 163.41 103.64 164.39C103.352 164.528 103.038 164.605 102.719 164.619C102.4 164.632 102.081 164.581 101.782 164.468C101.483 164.355 101.21 164.182 100.98 163.961C100.749 163.74 100.566 163.474 100.44 163.18C100.36 163.03 100.28 162.24 100.22 162.07C100.16 161.9 99.8702 161.88 99.5902 161.86C99.3102 161.84 99.1102 161.64 99.1402 161.49C99.3256 160.748 99.5629 160.019 99.8502 159.31C100.09 158.58 99.8502 158.69 99.8502 158.31C99.8502 155.31 101.48 154.12 103.62 154.12C105.76 154.12 107.46 156.57 107.46 159.54Z" fill="#FBC2AB"/>
<path d="M108.58 158.82C109.701 158.191 111.012 157.988 112.27 158.25C114.47 158.66 115.27 158.82 115.27 158.82C115.27 158.82 112.2 161.18 110.4 160.56C108.6 159.94 108.58 158.82 108.58 158.82Z" fill="#DD542F"/>
<path d="M112.42 160.82C111.952 160.238 111.323 159.806 110.612 159.579C109.901 159.351 109.139 159.338 108.42 159.54H107.21C108.58 160.41 109.86 161.415 111.03 162.54C111.657 163.089 112.395 163.497 113.194 163.735C113.993 163.973 114.834 164.036 115.66 163.92C114.462 163.017 113.375 161.976 112.42 160.82Z" fill="#DD542F"/>
<path d="M99.82 153.9C99.82 153.9 98.65 154.9 101.72 156.78C103.37 157.78 106.24 159.54 106.24 159.54C106.24 159.54 106.31 161.29 106.47 162.29C106.63 163.29 106.99 164.39 108.94 166.35C109.733 166.949 110.569 167.49 111.44 167.97C112.093 168.518 112.523 169.286 112.65 170.13C112.65 170.13 113.39 168.27 110.06 162.56C108.87 160.51 110.06 155.37 109.44 154.74C108.586 154.05 107.536 153.648 106.44 153.59C105.023 153.537 103.604 153.641 102.21 153.9C101.416 153.815 100.614 153.815 99.82 153.9Z" fill="#24272B"/>
<path d="M100.39 155.82C100.39 155.82 99.4802 157.82 99.8202 158.35C101.903 159.011 104.059 159.411 106.24 159.54C107.46 159.54 109.51 159.38 109.51 159.38V157.71C109.51 157.71 102 156.5 100.39 155.82Z" fill="#EA663A"/>
<path d="M85.9998 162.8C85.6098 162.34 84.8998 162.2 84.1298 163.17C83.3598 164.14 82.5298 164.82 83.1298 166.17C83.7298 167.52 83.9598 167.54 84.8198 167.57C84.961 167.601 85.1071 167.6 85.2481 167.569C85.3892 167.538 85.5217 167.476 85.6367 167.389C85.7517 167.301 85.8464 167.19 85.9142 167.063C85.9821 166.935 86.0215 166.794 86.0298 166.65C86.2298 164.65 88.4898 164.17 88.4898 164.17C88.4898 164.17 87.1398 161.83 85.9998 162.8Z" fill="#FBC2AB"/>
<path d="M85.29 166.83V167.55C85.9969 167.863 86.7575 168.036 87.53 168.06C88.69 168.06 89.24 166.57 89.24 166.57L85.29 166.83Z" fill="#FBC2AB"/>
<path d="M102.68 183.74L102.49 184.91C102.49 184.91 104.72 185.91 106.16 186.45C107.6 186.99 108.94 187.45 108.94 187.45V185.59C108.94 185.59 104.59 183.75 102.68 183.74Z" fill="#24272B"/>
<path d="M140.2 187.45C142.276 188.265 144.506 188.606 146.73 188.45C149.85 188.32 154.83 188.45 154.83 188.45C154.83 188.45 153.83 185.22 150.66 184.91C149.11 184.76 142.22 184.61 142.22 184.61L140.2 187.45Z" fill="#EA663A"/>
<path d="M144.1 181.71C146.174 182.529 148.406 182.871 150.63 182.71C153.76 182.57 158.73 182.71 158.73 182.71C158.73 182.71 157.73 179.49 154.57 179.18C153.02 179.02 145.89 178.59 145.89 178.59L144.1 181.71Z" fill="#CE677B"/>
<path d="M148.44 174.69C150.477 175.653 152.72 176.1 154.97 175.99C158.1 175.86 163.07 175.99 163.07 175.99C163.07 175.99 162.07 172.77 158.91 172.46C157.35 172.3 150.23 171.87 150.23 171.87L148.44 174.69Z" fill="#EA663A"/>
<path d="M152.88 167.64C154.92 168.604 157.166 169.054 159.42 168.95C162.54 168.81 167.51 168.95 167.51 168.95C167.51 168.95 166.51 165.73 163.35 165.42C161.8 165.26 154.67 164.83 154.67 164.83L152.88 167.64Z" fill="#CE677B"/>
<path d="M125.65 162.76C125.976 164.002 126.097 165.289 126.01 166.57C125.8 168.35 129.92 166.9 129.92 166.9L129.45 162.2L125.65 162.76Z" fill="#C88F76"/>
<path d="M129.17 159.84C129.17 162.58 126.63 164.22 124.97 164.5C124.496 164.547 124.019 164.439 123.611 164.192C123.204 163.945 122.887 163.572 122.71 163.13C122.53 162.75 122.5 162.42 122.15 162.42C121.8 162.42 121.1 162.16 121.15 161.94C121.24 161.31 121.35 160.87 121.45 160.41C121.606 159.959 121.627 159.472 121.51 159.01C122.01 156.3 123.19 154.89 125.32 154.89C127.45 154.89 129.17 157.11 129.17 159.84Z" fill="#FBC2AB"/>
<path d="M108.54 208.31C108.014 209.709 107.242 211.003 106.26 212.13C105.473 212.753 104.546 213.175 103.56 213.36C102.88 213.58 102.31 213.87 102.39 214.55C102.49 215.55 105.39 215.55 107.85 215.32C109.141 214.772 110.31 213.973 111.29 212.97V215.32H112.16C113.124 213.744 113.48 211.87 113.16 210.05C112.52 207.1 108.54 208.31 108.54 208.31Z" fill="#DD542F"/>
<path d="M124.11 184.91C120.74 185.201 117.444 186.06 114.36 187.45C113.082 188.037 111.866 188.751 110.73 189.58C108.31 191.65 109.21 193.58 108.94 197.2C108.72 200.04 108.41 205.92 107.5 209.73C109.05 211.04 113.7 210.87 113.7 210.87C113.7 210.87 115.34 199.75 115.24 196.12C118.11 196.26 126.68 194.5 128.75 192.87C130.34 191.62 129.85 185.48 129.85 185.48L124.11 184.91Z" fill="#4A5993"/>
<path d="M127.27 165.6C125.884 165.91 124.612 166.603 123.6 167.6C122.705 168.385 121.882 169.249 121.14 170.18C120.674 170.685 120.353 171.306 120.21 171.979C120.067 172.651 120.109 173.349 120.33 174C120.609 175.015 120.803 176.052 120.91 177.1C120.91 180.7 118.71 184.96 118.71 184.96C118.71 184.96 118.82 187.89 123.4 188.5C127.98 189.11 130.21 188.1 130.21 188.1C130.21 188.1 129.04 178.47 130.63 174C132.22 169.53 130.52 164.79 127.27 165.6Z" fill="#24272B"/>
<path d="M115.24 186.45C113.895 186.854 112.665 187.57 111.65 188.54C110.26 190.03 109.56 190.76 109.51 191.99C109.46 193.22 112.32 192.25 113.45 190.73C114.208 189.771 115.195 189.018 116.32 188.54L115.24 186.45Z" fill="#FBC2AB"/>
<path d="M125.3 167.55C124.37 168.32 124.36 171.38 124.11 173.95C123.76 177.58 123.51 179.88 123.51 179.88L114.16 186.64C115.047 187.49 115.657 188.588 115.91 189.79C118.493 188.906 120.93 187.642 123.14 186.04C124.46 185.11 126.75 183.93 127.14 183.22C128.505 180.235 129.596 177.132 130.4 173.95C131.06 171.38 130.84 169.2 129.53 167.55C128.52 166.33 126.85 166.26 125.3 167.55Z" fill="#393E42"/>
<path d="M135.5 166.35C132.98 159.35 131.92 157.15 129.17 154.89C126.42 152.63 123.26 153.47 122.05 154.89C121.684 155.203 121.413 155.613 121.268 156.073C121.123 156.532 121.11 157.023 121.23 157.49C121.47 158.13 124.44 158.59 124.49 159C124.83 161.83 126.63 164.7 129.32 165.58C129.75 167.84 131.32 171.24 136.73 172.35C138.42 172.7 141.23 171.61 141.23 171.61C141.23 171.61 136.38 168.81 135.5 166.35ZM126.44 162.56C126.053 161.974 125.74 161.343 125.51 160.68C126.285 162.182 127.589 163.343 129.17 163.94C129.165 164.274 129.182 164.608 129.22 164.94C128.096 164.411 127.135 163.589 126.44 162.56Z" fill="#DD542F"/>
<path d="M130.42 155.98C130.42 155.98 126.63 158.62 122.71 157.85L121.23 157.49L121.49 159.01C123.078 159.651 124.825 159.78 126.49 159.38C128.29 159.128 129.976 158.352 131.34 157.15L130.42 155.98Z" fill="#393E42"/>
<path d="M101.84 159.37C101.697 159.238 101.523 159.144 101.334 159.097C101.146 159.05 100.948 159.051 100.76 159.1C100.55 159.15 100.65 159.25 100.7 159.29C100.75 159.33 100.99 159.39 101.18 159.43C101.18 159.43 101.18 160.21 101.43 160.22C101.68 160.23 101.78 159.96 101.73 159.74C101.842 159.796 101.936 159.883 102 159.99C102.07 160.1 102.2 160.31 102.28 160.25C102.36 160.19 102.05 159.56 101.84 159.37Z" fill="#C88F76"/>
<path d="M100.68 163.26C100.68 163.26 101.26 163.13 101.68 163.01C102.1 162.89 102.47 163.2 102.06 163.38C101.597 163.442 101.126 163.401 100.68 163.26Z" fill="#C88F76"/>
<path d="M123.91 160.47C123.856 160.307 123.767 160.159 123.649 160.035C123.532 159.91 123.389 159.813 123.23 159.75C122.989 159.652 122.724 159.631 122.47 159.69C122.447 159.701 122.427 159.719 122.414 159.741C122.4 159.763 122.393 159.789 122.393 159.815C122.393 159.84 122.4 159.866 122.414 159.888C122.427 159.91 122.447 159.928 122.47 159.94C122.596 159.95 122.724 159.95 122.85 159.94C122.78 160.15 122.85 160.77 123.18 160.64C123.37 160.57 123.39 160.26 123.33 160.06C123.483 160.187 123.608 160.343 123.7 160.52C123.76 160.71 124 160.66 123.91 160.47Z" fill="#C88F76"/>
<path d="M123.15 163.26C123.432 163.315 123.723 163.287 123.99 163.18C124.33 162.99 124.64 163.29 124.13 163.46C123.962 163.505 123.786 163.51 123.616 163.476C123.446 163.441 123.287 163.367 123.15 163.26Z" fill="#C88F76"/>
<path d="M211 219.16C206.585 216.328 201.946 213.86 197.13 211.78C189.72 208.59 185.99 207.43 182.6 209.4C176.99 212.66 173.78 215.58 184.6 219.16C195.42 222.74 210.42 223.84 210.42 223.84L211 219.16Z" fill="white"/>
<path d="M172.15 234.51C173.74 231.05 175.69 226.4 175.69 226.4L183.22 248.87C183.22 248.87 180.5 247.78 174.93 245.38C169.36 242.98 170.56 237.97 172.15 234.51Z" fill="#393E42"/>
<path d="M176.81 212.61C176.81 212.61 181.87 213.93 184.96 214.67C188.05 215.41 200.4 217.87 202.83 218.59C206.41 219.768 209.928 221.127 213.37 222.66C214.54 223.29 221.17 237.81 221.17 237.81C221.17 237.81 218.38 245.17 214.84 249.6C210.78 254.7 201.48 250.45 201.48 250.45H183.22L172.15 218.03L176.81 212.61Z" fill="#393E42"/>
<path d="M147.55 237.66H146.72V259.5H147.55V237.66Z" fill="#A3B9BC"/>
<path d="M147.13 231.96C150.42 231.958 153.636 232.932 156.373 234.758C159.109 236.585 161.242 239.182 162.502 242.221C163.762 245.26 164.092 248.605 163.451 251.832C162.809 255.059 161.225 258.023 158.899 260.349C156.573 262.675 153.609 264.26 150.382 264.901C147.155 265.542 143.81 265.212 140.771 263.952C137.732 262.692 135.135 260.559 133.308 257.823C131.482 255.087 130.508 251.87 130.51 248.58C130.512 244.173 132.264 239.947 135.381 236.831C138.497 233.714 142.723 231.963 147.13 231.96ZM147.13 259.5C149.29 259.5 151.401 258.86 153.197 257.66C154.992 256.46 156.392 254.754 157.219 252.759C158.045 250.763 158.261 248.568 157.84 246.45C157.419 244.331 156.379 242.386 154.851 240.858C153.324 239.331 151.378 238.291 149.26 237.87C147.142 237.448 144.946 237.665 142.951 238.491C140.956 239.318 139.25 240.717 138.05 242.513C136.85 244.309 136.21 246.42 136.21 248.58C136.21 251.476 137.36 254.254 139.408 256.302C141.456 258.349 144.234 259.5 147.13 259.5Z" fill="#181B20"/>
<path d="M139.531 240.328L138.859 241L154.712 256.853L155.384 256.182L139.531 240.328Z" fill="#A3B9BC"/>
<path d="M154.722 240.316L138.869 256.169L139.54 256.841L155.394 240.987L154.722 240.316Z" fill="#A3B9BC"/>
<path d="M158.35 248.11H135.92V249.06H158.35V248.11Z" fill="#A3B9BC"/>
<path d="M148.243 255.345C151.982 254.736 154.52 251.211 153.911 247.472C153.302 243.732 149.777 241.195 146.037 241.804C142.298 242.413 139.76 245.938 140.369 249.677C140.978 253.416 144.503 255.954 148.243 255.345Z" fill="#768F91"/>
<path d="M147.13 260.74C149.536 260.746 151.89 260.038 153.894 258.705C155.898 257.373 157.461 255.476 158.386 253.254C159.311 251.033 159.556 248.587 159.09 246.226C158.624 243.865 157.468 241.696 155.769 239.992C154.07 238.289 151.903 237.127 149.543 236.656C147.184 236.184 144.737 236.423 142.514 237.343C140.29 238.262 138.389 239.821 137.051 241.821C135.714 243.821 135 246.174 135 248.58C135.003 251.799 136.28 254.886 138.554 257.165C140.827 259.444 143.911 260.729 147.13 260.74ZM147.13 238.32C149.162 238.318 151.149 238.919 152.839 240.047C154.53 241.174 155.848 242.778 156.626 244.655C157.405 246.532 157.609 248.598 157.213 250.591C156.817 252.584 155.839 254.415 154.402 255.852C152.965 257.289 151.134 258.267 149.141 258.663C147.148 259.059 145.082 258.855 143.205 258.076C141.328 257.298 139.724 255.98 138.597 254.289C137.469 252.599 136.868 250.612 136.87 248.58C136.875 245.86 137.958 243.254 139.881 241.331C141.804 239.408 144.411 238.325 147.13 238.32Z" fill="white"/>
<path d="M166.5 255.44C166.5 255.44 161.58 255.44 161.11 252.83C160.64 250.22 161.75 240.65 152.22 236.36C146.42 233.74 135.38 234.36 135.38 234.36C135.38 234.36 140.28 227.78 151.38 229.5C155.215 230.076 158.762 231.876 161.492 234.631C164.222 237.386 165.989 240.949 166.53 244.79C166.85 248.333 166.84 251.898 166.5 255.44Z" fill="#24272B"/>
<path d="M240.01 237.66H239.18V259.5H240.01V237.66Z" fill="#A3B9BC"/>
<path d="M239.6 231.96C242.891 231.954 246.109 232.925 248.848 234.749C251.587 236.573 253.723 239.169 254.986 242.207C256.249 245.246 256.582 248.591 255.943 251.82C255.304 255.048 253.722 258.014 251.396 260.342C249.071 262.67 246.107 264.256 242.879 264.899C239.652 265.542 236.306 265.213 233.266 263.954C230.226 262.695 227.627 260.562 225.8 257.825C223.972 255.088 222.998 251.871 223 248.58C223 244.176 224.748 239.951 227.861 236.835C230.973 233.719 235.196 231.965 239.6 231.96ZM239.6 259.5C241.76 259.5 243.871 258.86 245.667 257.66C247.463 256.46 248.862 254.754 249.689 252.759C250.515 250.764 250.732 248.568 250.31 246.45C249.889 244.331 248.849 242.386 247.322 240.858C245.794 239.331 243.849 238.291 241.73 237.87C239.612 237.448 237.416 237.665 235.421 238.491C233.426 239.318 231.72 240.717 230.52 242.513C229.32 244.309 228.68 246.42 228.68 248.58C228.68 251.476 229.83 254.254 231.878 256.302C233.926 258.349 236.704 259.5 239.6 259.5Z" fill="#181B20"/>
<path d="M231.999 240.339L231.328 241.011L247.181 256.864L247.853 256.192L231.999 240.339Z" fill="#A3B9BC"/>
<path d="M247.191 240.317L231.338 256.17L232.01 256.842L247.863 240.988L247.191 240.317Z" fill="#A3B9BC"/>
<path d="M250.8 248.11H228.38V249.06H250.8V248.11Z" fill="#A3B9BC"/>
<path d="M240.424 255.404C244.183 254.931 246.847 251.5 246.374 247.741C245.901 243.982 242.471 241.318 238.712 241.791C234.953 242.264 232.289 245.695 232.761 249.454C233.234 253.213 236.665 255.877 240.424 255.404Z" fill="#768F91"/>
<path d="M239.6 260.74C242.005 260.74 244.356 260.027 246.356 258.691C248.355 257.354 249.914 255.455 250.834 253.233C251.755 251.011 251.995 248.566 251.526 246.208C251.057 243.849 249.899 241.682 248.198 239.982C246.498 238.281 244.331 237.123 241.972 236.654C239.613 236.184 237.168 236.425 234.947 237.346C232.725 238.266 230.825 239.824 229.489 241.824C228.153 243.824 227.44 246.175 227.44 248.58C227.443 251.804 228.725 254.896 231.004 257.175C233.284 259.455 236.376 260.737 239.6 260.74ZM239.6 238.32C241.632 238.32 243.618 238.923 245.307 240.051C246.996 241.18 248.312 242.785 249.089 244.662C249.866 246.539 250.069 248.605 249.672 250.597C249.275 252.59 248.296 254.42 246.858 255.855C245.421 257.291 243.59 258.269 241.597 258.664C239.605 259.059 237.539 258.854 235.663 258.075C233.786 257.296 232.183 255.979 231.056 254.288C229.929 252.598 229.328 250.612 229.33 248.58C229.333 245.858 230.416 243.248 232.341 241.324C234.267 239.401 236.878 238.32 239.6 238.32Z" fill="white"/>
<path d="M180.06 200.85V187.67C177.738 189.015 175.847 190.993 174.608 193.373C173.368 195.753 172.832 198.436 173.06 201.11C173.62 210.71 180.06 200.85 180.06 200.85Z" fill="white"/>
<path d="M231.28 229.2L235.92 249.6H227C225.8 249.6 223 249.65 221.92 247.02C220.01 242.32 215.18 231.88 213.84 229.2H231.28Z" fill="#24272B"/>
<path d="M182.45 253.8L186.03 254.03L174.75 219.16L171.58 220.19L182.45 253.8Z" fill="#181B20"/>
<path d="M145.268 248.573C144.676 249.302 144.789 250.373 145.518 250.964C146.248 251.555 147.318 251.443 147.909 250.713L184.721 205.287C185.312 204.557 185.2 203.487 184.471 202.895C183.741 202.304 182.671 202.416 182.08 203.146L145.268 248.573Z" fill="white"/>
<path d="M179.11 197.03C180.65 196.35 181.22 197.48 181.46 199.96C181.609 201.214 181.642 202.479 181.56 203.74C180.3 205.3 180.82 207.16 178.8 209.34C174.75 211.12 174.5 211.63 171.98 215.48C170.664 217.462 169.179 219.325 167.54 221.05C167.54 221.05 163.23 215.93 162.17 212.3C161.11 208.67 162.75 205.23 167.24 202.8C170.71 200.93 176.78 198.05 179.11 197.03Z" fill="#24272B"/>
<path d="M168.9 219.54L169.23 219.16C167.791 217.488 166.543 215.66 165.51 213.71C164.18 210.71 164.69 208.22 166.9 206.9C169.33 205.44 181.36 200.19 181.48 200.14V199.74C180.98 199.95 169.15 205 166.69 206.47C164.23 207.94 163.69 210.65 165.1 213.91C166.137 215.932 167.413 217.822 168.9 219.54Z" fill="white"/>
<path d="M169.75 219.525L171.149 220.658C171.9 221.266 173.002 221.151 173.61 220.4L182.525 209.399C183.134 208.648 183.018 207.546 182.267 206.937L180.869 205.804C180.118 205.196 179.016 205.311 178.407 206.062L169.492 217.063C168.884 217.814 168.999 218.916 169.75 219.525Z" fill="#181B20"/>
<path d="M184.27 254.74C184.439 254.74 184.604 254.687 184.743 254.591C184.882 254.495 184.989 254.359 185.05 254.2C185.124 253.994 185.113 253.766 185.019 253.567C184.925 253.368 184.756 253.215 184.55 253.14C184.45 253.14 174.29 249.43 170.89 247.57C165.18 244.44 166.05 242.34 167.5 238.86C167.68 238.43 167.86 237.99 168.04 237.53C169.57 233.53 174.33 222.78 174.38 222.67C174.469 222.469 174.474 222.24 174.394 222.035C174.314 221.83 174.156 221.664 173.955 221.575C173.753 221.487 173.525 221.481 173.319 221.561C173.114 221.641 172.949 221.799 172.86 222C172.81 222.11 168.04 232.89 166.49 236.94C166.32 237.38 166.14 237.81 165.97 238.23C164.48 241.8 163.09 245.18 170.09 249.02C173.61 250.95 183.56 254.54 183.99 254.69C184.078 254.727 184.174 254.744 184.27 254.74Z" fill="white"/>
<path d="M229.64 228.88C231.31 226.35 231.46 224.03 243.11 226.38C254.76 228.73 256.6 228.26 257.67 230.26C258.27 231.473 258.794 232.722 259.24 234H228.14C228.14 234 227.67 231.84 229.64 228.88Z" fill="#24272B"/>
<path d="M209.34 219.88C210.11 219.07 210.8 218.31 213.04 220.76C218.68 226.95 222.31 226.47 225.75 225.05C228.506 223.689 231.178 222.163 233.75 220.48C233.75 220.48 238.64 221.65 240.75 222.25C245.98 223.73 246.2 225.39 246.2 227.01C244.02 227.01 241.41 226.36 235.06 226.36C230.45 226.36 228.44 231.43 228.44 231.43H218.78C217.616 231.525 216.452 231.253 215.451 230.652C214.45 230.051 213.663 229.152 213.2 228.08C212.17 226.05 211.06 223.32 209.34 219.88Z" fill="#181B20"/>
<path d="M259.24 233.99C259.24 233.99 261.19 239.91 262.57 243.62C263.95 247.33 263.27 249.62 259.24 249.62H235.92C231.38 249.62 231.09 247.62 229.99 243.62C229.204 240.445 228.586 237.231 228.14 233.99H259.24Z" fill="#181B20"/>
<path d="M191.33 250.53H202.2C203.487 250.53 204.53 249.487 204.53 248.2V238.32C204.53 237.033 203.487 235.99 202.2 235.99H191.33C190.043 235.99 189 237.033 189 238.32V248.2C189 249.487 190.043 250.53 191.33 250.53Z" fill="#768F91"/>
<path d="M203.65 236.59C205.27 234.27 208.04 235.94 206.04 238.84C204.62 240.89 201.59 244.84 200.17 247.19C199.06 249.03 200.56 249.95 201.48 249.95H223.48V253.26H200.24C196.72 253.26 194.24 249.67 197.24 245.53C200.24 241.39 201.9 239.11 203.65 236.59Z" fill="white"/>
<path d="M220.62 253.8H259.82L261.47 248.98H220.62C219.982 248.983 219.37 249.238 218.919 249.689C218.467 250.141 218.213 250.752 218.21 251.39C218.213 252.029 218.467 252.64 218.919 253.092C219.37 253.543 219.982 253.798 220.62 253.8Z" fill="white"/>
<path d="M228.09 233.78H259.16L259.41 234.51H228.22L228.09 233.78Z" fill="white"/>
<path d="M247.8 235.5L248.54 237.81H241.17C238.58 237.81 237.71 235.5 240.59 235.5H247.8Z" fill="#A3B9BC"/>
<path d="M247.25 236L247.62 237.23H240.79C239.68 237.23 239.1 236 240.79 236H247.25Z" fill="white"/>
<path d="M231.9 239.29H245.68L239.72 241.1L254.78 242.75H234.53L231.9 239.29Z" fill="white"/>
<path d="M177.03 255.57H213.68C214.32 255.57 214.84 255.051 214.84 254.41C214.84 253.77 214.32 253.25 213.68 253.25H177.03C176.389 253.25 175.87 253.77 175.87 254.41C175.87 255.051 176.389 255.57 177.03 255.57Z" fill="#A3B9BC"/>
<path d="M198.324 229.601L213.25 235.379L214.874 231.185L199.948 225.407L198.324 229.601Z" fill="#768F91"/>
<path d="M199.805 229.906L210.244 233.937L211.375 231.007L200.936 226.977L199.805 229.906Z" fill="#A3B9BC"/>
<path d="M212.78 234.19L211.46 237.67L204.1 244.09L197.65 241.28L197.8 228.41L212.78 234.19Z" fill="#181B20"/>
<path d="M193.875 224.223L178.902 230.004L180.527 234.211L195.5 228.431L193.875 224.223Z" fill="#768F91"/>
<path d="M192.348 227.001L181.909 231.031L183.04 233.961L193.479 229.93L192.348 227.001Z" fill="white"/>
<path d="M180.55 234.19L181.88 237.67L189.23 244.09L195.68 241.28L195.53 228.41L180.55 234.19Z" fill="#181B20"/>
<path d="M189 211.85C193.42 212.28 202 215.23 207.71 218.52C211.71 220.86 211.11 225.39 207.04 225.39H187.69C181.81 225.39 179.4 223.23 180.61 218.52C181.82 213.81 183.86 211.35 189 211.85Z" fill="#24272B"/>
<path d="M197.945 237.605C200.872 237.131 202.862 234.374 202.388 231.446C201.914 228.518 199.157 226.529 196.229 227.003C193.302 227.476 191.312 230.234 191.786 233.161C192.26 236.089 195.017 238.079 197.945 237.605Z" fill="#A3B9BC"/>
<path d="M193.71 232.26C193.71 232.933 193.909 233.59 194.283 234.149C194.657 234.708 195.188 235.144 195.809 235.402C196.43 235.659 197.114 235.726 197.773 235.595C198.433 235.464 199.039 235.14 199.514 234.665C199.99 234.189 200.313 233.583 200.445 232.924C200.576 232.264 200.508 231.58 200.251 230.959C199.994 230.338 199.558 229.807 198.999 229.433C198.44 229.06 197.782 228.86 197.11 228.86C196.208 228.86 195.343 229.219 194.706 229.856C194.068 230.494 193.71 231.359 193.71 232.26Z" fill="#768F91"/>
<path d="M237.66 226.4L239.72 221.98L237.41 221.38L235.02 226.36L237.66 226.4Z" fill="#768F91"/>
<path d="M184.27 221.98H193.73V220.79H184.27V221.98Z" fill="#768F91"/>
<path d="M183.725 204.019L190.01 205.64C190.796 205.842 191.597 205.37 191.8 204.583C192.003 203.797 191.53 202.996 190.744 202.793L184.459 201.172C183.673 200.97 182.872 201.443 182.669 202.229C182.466 203.015 182.939 203.816 183.725 204.019Z" fill="#24272B"/>
<path d="M215.77 185.76C216.046 186.118 216.235 186.536 216.322 186.981C216.409 187.425 216.391 187.883 216.27 188.32C215.95 190.05 215.77 191.4 215.77 191.4L223.51 188.58C222.824 186.936 222.334 185.218 222.05 183.46L222 181.81L215.77 185.76Z" fill="#C88F76"/>
<path d="M222.42 180.78C222.28 184.71 219.9 185.72 216.49 187.03C216.107 187.21 215.692 187.312 215.269 187.328C214.846 187.345 214.424 187.276 214.028 187.125C213.632 186.975 213.271 186.747 212.965 186.454C212.66 186.16 212.417 185.809 212.25 185.42C212.15 185.22 212.04 184.17 211.96 183.95C211.88 183.73 211.5 183.7 211.14 183.67C210.78 183.64 210.49 183.39 210.53 183.19C210.776 182.204 211.093 181.238 211.48 180.3C211.8 179.3 211.24 178.78 211.48 177.78C212.41 173.96 213.48 173.02 216.33 173.02C220.84 173.02 222.62 175.11 222.42 180.78Z" fill="#FBC2AB"/>
<path d="M186 246.44C184.589 247.759 182.823 248.635 180.92 248.96C177.92 249.37 176.92 249.37 176.06 251.67C175.46 253.26 179.57 253.24 179.57 253.24H193.82L194.3 245.49L186 246.44Z" fill="#393E42"/>
<path d="M212.78 214.59C212.78 214.59 199.2 218.01 194.2 219.97C189.63 221.76 188.94 223.73 187.94 227.97C186.94 232.21 183.94 247.14 183.94 247.14C185.684 247.993 187.567 248.528 189.5 248.72C191.409 248.65 193.311 248.443 195.19 248.1L197.59 230.51C197.59 230.51 207.44 229.99 212.59 228.73C215.99 227.89 223.15 228.3 225.7 225.4C227 223.91 227.3 218.3 226.65 215.34C225.06 208.06 212.78 214.59 212.78 214.59Z" fill="#636FAD"/>
<path d="M213.32 191.68C214.24 190.45 215.98 189.45 218.47 188.32C220.3 187.48 223.07 187.13 224.76 188.79C228.76 192.7 227.28 201.11 228.36 207.19C229.004 211.851 229.219 216.561 229 221.26C229 221.26 222.44 223.06 217.32 221.48C213.6 220.165 210.072 218.359 206.83 216.11C208.444 212.468 209.837 208.731 211 204.92C212.44 199.48 211.81 193.71 213.32 191.68Z" fill="#393E42"/>
<path d="M218.05 189.44C215.36 189.34 214.25 193.44 212.93 196.18C211.37 199.44 206.1 204.67 206.1 204.67C206.1 204.67 196.35 200.02 192.58 199.74C191.509 199.641 190.431 199.806 189.439 200.221C188.446 200.636 187.571 201.288 186.89 202.12C189.438 203.163 191.885 204.439 194.2 205.93C197.593 208.347 201.246 210.376 205.09 211.98C207.6 212.91 211.5 210.33 214.19 207.55C216.88 204.77 221.14 202.24 223.19 198.44C225.24 194.64 223.81 189.65 218.05 189.44Z" fill="#FBC2AB"/>
<path d="M211.59 179.53L211.48 180.3C211.629 180.235 211.795 180.221 211.953 180.261C212.11 180.301 212.25 180.392 212.35 180.52C212.75 181.03 212.63 181.8 214.84 181.34C216.169 181.064 217.43 180.527 218.55 179.76L217.34 179.37L211.59 179.53Z" fill="#3A3436"/>
<path d="M211.48 176.68C213.643 178.06 215.891 179.303 218.21 180.4C219.592 180.928 221.005 181.372 222.44 181.73C222.44 181.73 225.44 175.94 220.27 173.02C213.71 169.26 211.48 176.68 211.48 176.68Z" fill="#EA663A"/>
<path d="M221.63 180.68C221.708 181.262 221.912 181.821 222.226 182.318C222.54 182.815 222.957 183.239 223.45 183.56C225.05 184.46 227.65 186.18 227.65 186.18C227.65 186.18 228.15 183.75 226.58 183C225.01 182.25 221.63 180.68 221.63 180.68Z" fill="#EA663A"/>
<path d="M222.09 180.12C223.404 180.438 224.775 180.438 226.09 180.12C227.405 179.781 228.741 179.53 230.09 179.37C229.374 180.413 228.399 181.25 227.26 181.8C226.549 182.138 225.768 182.304 224.98 182.283C224.193 182.262 223.422 182.055 222.73 181.68L222.09 180.12Z" fill="#EA663A"/>
<path d="M212 213.66L211.4 214.94C212.384 216.073 213.688 216.882 215.14 217.26C216.85 217.813 218.594 218.257 220.36 218.59L220.96 216.31C217.904 215.679 214.907 214.792 212 213.66Z" fill="#24272B"/>
<path d="M192.58 199.74C192.58 199.74 186.89 197.17 185.09 202.46C184.09 205.41 184.56 206.06 186.89 205.32C188.532 204.83 190.202 204.436 191.89 204.14L192.58 199.74Z" fill="#FBC2AB"/>
<path d="M212.25 185.42C212.125 186.262 212.276 187.121 212.68 187.87C213.34 188.98 214.9 188.71 215.56 188.4C216.872 187.617 218.132 186.749 219.33 185.8C217.817 185.876 216.314 186.091 214.84 186.44C213.58 186.91 212.25 185.42 212.25 185.42Z" fill="#3A3436"/>
<path d="M91.0498 48.8001H121.1C121.1 48.8001 120 44.6001 116.29 43.8001C115.151 43.4964 113.949 43.5346 112.832 43.9098C111.715 44.285 110.734 44.9807 110.01 45.9101C110.01 45.9101 105.01 37.5701 97.1398 40.8301C92.6398 42.7301 91.0498 48.8001 91.0498 48.8001Z" fill="#A7A7A7" fill-opacity="0.3"/>
<path d="M341.87 59.3097H301.75C301.75 59.3097 303.23 53.6697 308.17 52.6697C313.93 51.4897 316.56 55.4897 316.56 55.4897C316.56 55.4897 323.24 44.3597 333.75 48.6997C339.76 51.1997 341.87 59.3097 341.87 59.3097Z" fill="#A7A7A7" fill-opacity="0.3"/>
<path d="M213.61 67.0804H194.67C194.67 67.0804 196.77 62.9703 200.67 62.7103C209.07 62.1303 213.61 67.0804 213.61 67.0804Z" fill="#A7A7A7" fill-opacity="0.3"/>
<path d="M84.0898 37.5804H65.0898C65.0898 37.5804 67.1898 33.4704 71.0898 33.2104C79.5398 32.6704 84.0898 37.5804 84.0898 37.5804Z" fill="#A7A7A7" fill-opacity="0.3"/>
<path d="M146.08 64.8697C145.18 63.6197 145.63 61.6897 140.08 59.3097C132.31 55.9797 129.56 60.9397 127.62 62.4097C125.274 61.5819 122.783 61.2416 120.3 61.4097C117.65 61.5897 115.83 63.5897 114.95 64.8197L146.08 64.8697Z" fill="#A7A7A7" fill-opacity="0.3"/>
<path d="M150.08 82.3198H180.46C180.46 82.3198 177.15 77.9799 174.33 77.3799C171.51 76.7799 167.39 79.1899 167.39 79.1899C167.39 79.1899 161.8 74.1898 155.91 76.8898C151.23 78.9898 150.08 82.3198 150.08 82.3198Z" fill="#A7A7A7" fill-opacity="0.3"/>
<path d="M262.01 43.1799H292.39C292.39 43.1799 289.08 38.84 286.26 38.25C283.44 37.66 279.32 40.05 279.32 40.05C279.32 40.05 273.73 35.11 267.84 37.75C263.17 39.85 262.01 43.1799 262.01 43.1799Z" fill="#A7A7A7" fill-opacity="0.3"/>
<path d="M97.31 19.1903C95.41 17.3003 90.49 12.9303 84.69 11.8203C77.23 10.4003 70.56 14.6703 70.56 14.6703C68.3583 11.1383 65.247 8.26371 61.5522 6.34771C57.8575 4.43172 53.7153 3.54493 49.56 3.7803C34.66 4.3103 30.7 14.6703 30.7 14.6703C30.7 14.6703 15.97 10.4103 12 19.2003L97.31 19.1903Z" fill="#A7A7A7" fill-opacity="0.3"/>
<path d="M335.96 9.17977C334.595 9.18229 333.241 9.42604 331.96 9.89977C330.973 6.94549 329.061 4.38776 326.506 2.60577C323.952 0.823777 320.891 -0.0876317 317.778 0.00664195C314.664 0.100916 311.664 1.19586 309.222 3.12915C306.78 5.06245 305.026 7.73119 304.22 10.7398C302.47 9.71448 300.478 9.17587 298.45 9.17977C295.685 9.18281 293.013 10.1775 290.92 11.9831C288.826 13.7887 287.449 16.2855 287.04 19.0198H347.37C346.963 16.2846 345.587 13.7867 343.493 11.9807C341.398 10.1747 338.725 9.18075 335.96 9.17977Z" fill="#A7A7A7" fill-opacity="0.3"/>
</svg>
